{"glyphs":{"0":{"ha":813,"x_min":107,"x_max":706,"o":"m 406 -11 q 197 22 256 -11 q 122 147 138 54 q 107 478 107 239 q 122 809 107 717 q 197 934 138 901 q 406 967 256 967 q 617 934 558 967 q 691 810 676 901 q 706 478 706 719 q 690 147 706 239 q 615 22 674 54 q 406 -11 556 -11 m 406 36 q 582 59 535 36 q 642 165 629 82 q 656 478 656 247 q 642 791 656 708 q 582 897 629 874 q 406 919 535 919 q 230 897 276 919 q 170 791 183 874 q 157 478 157 708 q 170 165 157 247 q 230 59 183 82 q 406 36 276 36 z "},"1":{"ha":436,"x_min":60,"x_max":283,"o":"m 233 0 l 233 889 l 60 796 l 60 847 l 244 956 l 283 956 l 283 0 l 233 0 z "},"2":{"ha":726,"x_min":93,"x_max":633,"o":"m 143 47 l 633 47 l 633 0 l 93 0 l 93 99 q 99 265 93 218 q 133 344 106 313 q 229 410 160 375 l 285 438 q 475 533 388 488 q 562 606 540 565 q 583 726 583 646 q 565 849 583 808 q 500 904 546 889 q 361 919 454 919 q 242 915 314 919 q 110 904 169 911 l 110 949 q 231 962 157 957 q 371 967 304 967 q 514 953 460 967 q 601 890 568 939 q 633 739 633 840 q 619 616 633 661 q 574 542 606 571 q 482 482 543 513 l 208 346 q 151 283 164 325 q 144 223 146 260 q 143 139 143 186 l 143 47 z "},"3":{"ha":708,"x_min":69,"x_max":608,"o":"m 304 -11 q 185 -6 251 -11 q 69 8 119 0 l 69 53 q 304 36 210 36 q 446 51 392 36 q 529 113 500 67 q 558 246 558 158 q 516 411 558 361 q 376 461 474 461 l 214 461 l 214 508 l 376 508 q 499 554 449 508 q 549 713 549 600 q 522 844 549 800 q 441 904 494 889 q 292 919 388 919 q 185 915 246 919 q 75 903 124 910 l 75 947 q 190 961 125 956 q 306 967 254 967 q 481 942 418 967 q 572 863 544 917 q 599 715 599 808 q 562 562 599 615 q 456 492 525 508 l 456 486 q 569 419 529 472 q 608 256 608 367 q 585 106 608 163 q 495 19 561 49 q 304 -11 429 -11 z "},"4":{"ha":769,"x_min":64,"x_max":703,"o":"m 521 0 l 521 244 l 64 244 l 64 288 l 394 956 l 451 956 l 119 292 l 522 292 l 522 708 l 571 708 l 571 292 l 703 292 l 703 244 l 571 244 l 571 0 l 521 0 z "},"5":{"ha":733,"x_min":104,"x_max":643,"o":"m 104 53 q 339 36 244 36 q 499 58 444 36 q 573 130 553 81 q 593 274 593 179 q 572 422 593 375 q 495 484 551 468 q 315 500 439 500 q 114 479 257 500 l 114 956 l 581 956 l 581 908 l 164 908 l 164 532 q 361 547 243 547 q 545 519 485 547 q 624 438 606 492 q 643 283 643 383 q 618 106 643 168 q 528 17 593 44 q 339 -11 464 -11 q 220 -6 286 -11 q 104 8 154 0 l 104 53 z "},"6":{"ha":782,"x_min":107,"x_max":707,"o":"m 421 -11 q 273 1 329 -11 q 180 47 217 13 q 124 149 143 81 q 110 256 113 185 q 107 464 107 326 q 112 672 107 594 q 131 797 117 749 q 227 931 158 894 q 433 967 296 967 q 661 947 525 967 l 661 903 q 443 919 547 919 q 253 887 311 919 q 176 766 194 854 q 157 479 157 678 l 164 479 q 244 533 189 514 q 417 551 299 551 q 595 534 536 551 q 681 463 654 517 q 707 292 707 408 q 685 104 707 167 q 604 15 664 42 q 421 -11 544 -11 m 411 36 q 568 51 518 36 q 638 115 618 67 q 658 265 658 163 q 640 428 658 381 q 573 490 621 476 q 411 504 525 504 q 245 486 299 504 q 176 430 192 468 q 160 317 160 392 q 181 134 160 193 q 254 56 203 75 q 411 36 306 36 z "},"7":{"ha":665,"x_min":51,"x_max":600,"o":"m 186 0 l 544 908 l 51 908 l 51 956 l 600 956 l 600 915 l 240 0 l 186 0 z "},"8":{"ha":818,"x_min":100,"x_max":718,"o":"m 408 -11 q 213 17 279 -11 q 123 101 146 46 q 100 256 100 157 q 117 383 100 338 q 165 450 133 428 q 250 485 196 472 l 250 490 q 141 558 175 506 q 107 715 107 611 q 133 862 107 808 q 224 941 158 915 q 408 967 289 967 q 594 941 528 967 q 685 862 660 915 q 711 715 711 808 q 676 558 711 611 q 567 490 642 506 l 567 485 q 653 450 621 472 q 701 383 685 428 q 718 256 718 338 q 694 101 718 157 q 604 17 671 46 q 408 -11 538 -11 m 408 507 q 565 525 511 507 q 640 587 618 543 q 661 713 661 631 q 641 839 661 796 q 567 901 621 882 q 408 919 514 919 q 251 901 304 919 q 177 839 197 882 q 157 713 157 796 q 178 587 157 631 q 252 525 199 543 q 408 507 306 507 m 408 36 q 567 53 513 36 q 644 114 621 69 q 668 246 668 158 q 647 383 668 339 q 572 444 625 428 q 408 460 519 460 q 244 444 297 460 q 171 384 192 428 q 150 246 150 340 q 174 114 150 158 q 251 53 197 69 q 408 36 306 36 z "},"9":{"ha":782,"x_min":74,"x_max":675,"o":"m 349 -11 q 238 -6 303 -11 q 119 8 174 0 l 119 53 q 339 36 233 36 q 528 69 471 36 q 606 190 586 101 q 625 476 625 278 l 618 476 q 538 423 593 442 q 365 404 483 404 q 186 422 246 404 q 100 493 126 439 q 74 664 74 547 q 95 851 74 789 q 177 940 117 914 q 361 967 238 967 q 509 956 453 967 q 601 912 565 944 q 654 818 638 879 q 671 696 667 771 q 675 492 675 621 q 669 275 675 354 q 647 144 664 196 q 551 22 619 56 q 349 -11 482 -11 m 371 451 q 536 469 483 451 q 605 525 589 488 q 621 639 621 563 q 599 822 621 763 q 526 900 578 881 q 371 919 475 919 q 214 904 264 919 q 144 841 164 889 q 124 690 124 793 q 142 527 124 575 q 209 465 161 479 q 371 451 257 451 z "},"\u0000":{"ha":0,"x_min":0,"x_max":0,"o":""},"\r":{"ha":286,"x_min":0,"x_max":0,"o":""}," ":{"ha":286,"x_min":0,"x_max":0,"o":""},"A":{"ha":819,"x_min":46,"x_max":774,"o":"m 721 0 l 613 306 l 206 306 l 99 0 l 46 0 l 385 956 l 436 956 l 774 0 l 721 0 m 413 875 l 406 875 l 222 353 l 596 353 l 413 875 z "},"Á":{"ha":819,"x_min":46,"x_max":774,"o":"m 721 0 l 613 306 l 206 306 l 99 0 l 46 0 l 385 956 l 436 956 l 774 0 l 721 0 m 413 875 l 406 875 l 222 353 l 596 353 l 413 875 m 379 1042 l 379 1049 l 494 1233 l 556 1233 l 556 1226 l 415 1042 l 379 1042 z "},"Ă":{"ha":819,"x_min":46,"x_max":774,"o":"m 721 0 l 613 306 l 206 306 l 99 0 l 46 0 l 385 956 l 436 956 l 774 0 l 721 0 m 413 875 l 406 875 l 222 353 l 596 353 l 413 875 m 572 1233 q 564 1123 572 1161 q 521 1061 556 1085 q 410 1038 486 1038 q 299 1061 333 1038 q 256 1123 264 1085 q 249 1233 249 1161 l 293 1233 q 299 1140 293 1171 q 329 1093 304 1110 q 410 1076 354 1076 q 491 1093 465 1076 q 522 1140 517 1110 q 528 1233 528 1171 l 572 1233 z "},"Ắ":{"ha":819,"x_min":46,"x_max":774,"o":"m 721 0 l 613 306 l 206 306 l 99 0 l 46 0 l 385 956 l 436 956 l 774 0 l 721 0 m 413 875 l 406 875 l 222 353 l 596 353 l 413 875 m 568 1233 q 560 1123 568 1161 q 517 1061 551 1085 q 406 1038 482 1038 q 294 1061 329 1038 q 252 1123 260 1085 q 244 1233 244 1161 l 289 1233 q 294 1140 289 1171 q 325 1093 300 1110 q 406 1076 350 1076 q 487 1093 461 1076 q 518 1140 513 1110 q 524 1233 524 1171 l 568 1233 m 386 1282 l 386 1289 l 501 1474 l 563 1474 l 563 1467 l 422 1282 l 386 1282 z "},"Ặ":{"ha":819,"x_min":46,"x_max":774,"o":"m 721 0 l 613 306 l 206 306 l 99 0 l 46 0 l 385 956 l 436 956 l 774 0 l 721 0 m 413 875 l 406 875 l 222 353 l 596 353 l 413 875 m 379 -176 l 379 -86 l 443 -86 l 443 -176 l 379 -176 m 572 1233 q 564 1123 572 1161 q 521 1061 556 1085 q 410 1038 486 1038 q 299 1061 333 1038 q 256 1123 264 1085 q 249 1233 249 1161 l 293 1233 q 299 1140 293 1171 q 329 1093 304 1110 q 410 1076 354 1076 q 491 1093 465 1076 q 522 1140 517 1110 q 528 1233 528 1171 l 572 1233 z "},"Ằ":{"ha":819,"x_min":46,"x_max":774,"o":"m 721 0 l 613 306 l 206 306 l 99 0 l 46 0 l 385 956 l 436 956 l 774 0 l 721 0 m 413 875 l 406 875 l 222 353 l 596 353 l 413 875 m 572 1233 q 564 1123 572 1161 q 521 1061 556 1085 q 410 1038 486 1038 q 299 1061 333 1038 q 256 1123 264 1085 q 249 1233 249 1161 l 293 1233 q 299 1140 293 1171 q 329 1093 304 1110 q 410 1076 354 1076 q 491 1093 465 1076 q 522 1140 517 1110 q 528 1233 528 1171 l 572 1233 m 408 1282 l 268 1467 l 268 1474 l 329 1474 l 444 1289 l 444 1282 l 408 1282 z "},"Ẳ":{"ha":819,"x_min":46,"x_max":774,"o":"m 721 0 l 613 306 l 206 306 l 99 0 l 46 0 l 385 956 l 436 956 l 774 0 l 721 0 m 413 875 l 406 875 l 222 353 l 596 353 l 413 875 m 572 1233 q 564 1123 572 1161 q 521 1061 556 1085 q 410 1038 486 1038 q 299 1061 333 1038 q 256 1123 264 1085 q 249 1233 249 1161 l 293 1233 q 299 1140 293 1171 q 329 1093 304 1110 q 410 1076 354 1076 q 491 1093 465 1076 q 522 1140 517 1110 q 528 1233 528 1171 l 572 1233 m 358 1247 q 370 1289 358 1276 q 414 1310 382 1301 l 443 1318 q 504 1342 490 1331 q 518 1383 518 1354 q 508 1422 518 1410 q 473 1437 497 1433 q 394 1440 449 1440 q 267 1433 346 1440 l 267 1469 q 404 1478 332 1478 q 498 1470 465 1478 q 545 1444 531 1463 q 560 1389 560 1425 q 548 1326 560 1346 q 490 1294 536 1307 l 458 1285 q 415 1271 426 1276 q 401 1258 404 1265 q 399 1233 399 1251 l 358 1233 l 358 1247 z "},"Ẵ":{"ha":819,"x_min":46,"x_max":774,"o":"m 721 0 l 613 306 l 206 306 l 99 0 l 46 0 l 385 956 l 436 956 l 774 0 l 721 0 m 413 875 l 406 875 l 222 353 l 596 353 l 413 875 m 569 1233 q 561 1123 569 1161 q 518 1061 553 1085 q 407 1038 483 1038 q 296 1061 331 1038 q 253 1123 261 1085 q 246 1233 246 1161 l 290 1233 q 296 1140 290 1171 q 326 1093 301 1110 q 407 1076 351 1076 q 488 1093 463 1076 q 519 1140 514 1110 q 525 1233 525 1171 l 569 1233 m 622 1474 q 607 1369 622 1397 q 543 1342 592 1342 q 478 1351 511 1342 q 400 1379 446 1361 q 279 1413 322 1413 q 244 1394 253 1413 q 236 1326 236 1375 l 199 1326 q 215 1430 199 1401 q 279 1458 231 1458 q 342 1449 311 1458 q 424 1419 374 1439 q 490 1396 463 1404 q 543 1388 518 1388 q 577 1406 569 1388 q 585 1474 585 1424 l 622 1474 z "},"Ǎ":{"ha":819,"x_min":46,"x_max":774,"o":"m 721 0 l 613 306 l 206 306 l 99 0 l 46 0 l 385 956 l 436 956 l 774 0 l 721 0 m 413 875 l 406 875 l 222 353 l 596 353 l 413 875 m 379 1042 l 249 1226 l 249 1233 l 286 1233 l 411 1083 l 536 1233 l 574 1233 l 574 1226 l 443 1042 l 379 1042 z "},"Â":{"ha":819,"x_min":46,"x_max":774,"o":"m 721 0 l 613 306 l 206 306 l 99 0 l 46 0 l 385 956 l 436 956 l 774 0 l 721 0 m 413 875 l 406 875 l 222 353 l 596 353 l 413 875 m 246 1042 l 246 1049 l 376 1233 l 440 1233 l 571 1049 l 571 1042 l 533 1042 l 408 1192 l 283 1042 l 246 1042 z "},"Ấ":{"ha":819,"x_min":46,"x_max":774,"o":"m 721 0 l 613 306 l 206 306 l 99 0 l 46 0 l 385 956 l 436 956 l 774 0 l 721 0 m 413 875 l 406 875 l 222 353 l 596 353 l 413 875 m 244 1038 l 244 1044 l 375 1229 l 439 1229 l 569 1044 l 569 1038 l 532 1038 l 407 1188 l 282 1038 l 244 1038 m 508 1229 l 508 1236 l 624 1421 l 685 1421 l 685 1414 l 544 1229 l 508 1229 z "},"Ậ":{"ha":819,"x_min":46,"x_max":774,"o":"m 721 0 l 613 306 l 206 306 l 99 0 l 46 0 l 385 956 l 436 956 l 774 0 l 721 0 m 413 875 l 406 875 l 222 353 l 596 353 l 413 875 m 379 -176 l 379 -86 l 443 -86 l 443 -176 l 379 -176 m 249 1042 l 249 1049 l 379 1233 l 443 1233 l 574 1049 l 574 1042 l 536 1042 l 411 1192 l 286 1042 l 249 1042 z "},"Ầ":{"ha":819,"x_min":46,"x_max":774,"o":"m 721 0 l 613 306 l 206 306 l 99 0 l 46 0 l 385 956 l 436 956 l 774 0 l 721 0 m 413 875 l 406 875 l 222 353 l 596 353 l 413 875 m 243 1038 l 243 1044 l 374 1229 l 438 1229 l 568 1044 l 568 1038 l 531 1038 l 406 1188 l 281 1038 l 243 1038 m 539 1229 l 399 1414 l 399 1421 l 460 1421 l 575 1236 l 575 1229 l 539 1229 z "},"Ẩ":{"ha":819,"x_min":46,"x_max":774,"o":"m 721 0 l 613 306 l 206 306 l 99 0 l 46 0 l 385 956 l 436 956 l 774 0 l 721 0 m 413 875 l 406 875 l 222 353 l 596 353 l 413 875 m 249 1038 l 249 1044 l 379 1229 l 443 1229 l 574 1044 l 574 1038 l 536 1038 l 411 1188 l 286 1038 l 249 1038 m 472 1244 q 484 1286 472 1274 q 528 1307 496 1299 l 557 1315 q 618 1340 604 1328 q 632 1381 632 1351 q 622 1419 632 1407 q 587 1434 611 1431 q 508 1438 563 1438 q 381 1431 460 1438 l 381 1467 q 518 1475 446 1475 q 612 1467 579 1475 q 659 1441 644 1460 q 674 1386 674 1422 q 662 1324 674 1343 q 604 1292 650 1304 l 572 1282 q 529 1268 540 1274 q 515 1256 518 1263 q 513 1231 513 1249 l 472 1231 l 472 1244 z "},"Ẫ":{"ha":819,"x_min":46,"x_max":774,"o":"m 721 0 l 613 306 l 206 306 l 99 0 l 46 0 l 385 956 l 436 956 l 774 0 l 721 0 m 413 875 l 406 875 l 222 353 l 596 353 l 413 875 m 246 1039 l 246 1046 l 376 1231 l 440 1231 l 571 1046 l 571 1039 l 533 1039 l 408 1189 l 283 1039 l 246 1039 m 622 1471 q 607 1367 622 1394 q 543 1339 592 1339 q 478 1349 511 1339 q 400 1376 446 1358 q 279 1410 322 1410 q 244 1391 253 1410 q 236 1324 236 1372 l 199 1324 q 215 1427 199 1399 q 279 1456 231 1456 q 342 1446 311 1456 q 424 1417 374 1436 q 490 1393 463 1401 q 543 1385 518 1385 q 577 1403 569 1385 q 585 1471 585 1421 l 622 1471 z "},"Ȁ":{"ha":819,"x_min":46,"x_max":774,"o":"m 721 0 l 613 306 l 206 306 l 99 0 l 46 0 l 385 956 l 436 956 l 774 0 l 721 0 m 413 875 l 406 875 l 222 353 l 596 353 l 413 875 m 328 1044 l 292 1044 l 151 1221 l 151 1228 l 214 1228 l 328 1051 l 328 1044 m 553 1044 l 517 1044 l 378 1221 l 378 1228 l 439 1228 l 553 1051 l 553 1044 z "},"Ä":{"ha":819,"x_min":46,"x_max":774,"o":"m 721 0 l 613 306 l 206 306 l 99 0 l 46 0 l 385 956 l 436 956 l 774 0 l 721 0 m 413 875 l 406 875 l 222 353 l 596 353 l 413 875 m 258 1069 l 258 1154 l 317 1154 l 317 1069 l 258 1069 m 504 1069 l 504 1154 l 563 1154 l 563 1069 l 504 1069 z "},"Ạ":{"ha":819,"x_min":46,"x_max":774,"o":"m 721 0 l 613 306 l 206 306 l 99 0 l 46 0 l 385 956 l 436 956 l 774 0 l 721 0 m 413 875 l 406 875 l 222 353 l 596 353 l 413 875 m 379 -176 l 379 -86 l 443 -86 l 443 -176 l 379 -176 z "},"À":{"ha":819,"x_min":46,"x_max":774,"o":"m 721 0 l 613 306 l 206 306 l 99 0 l 46 0 l 385 956 l 436 956 l 774 0 l 721 0 m 413 875 l 406 875 l 222 353 l 596 353 l 413 875 m 403 1042 l 263 1226 l 263 1233 l 324 1233 l 439 1049 l 439 1042 l 403 1042 z "},"Ả":{"ha":819,"x_min":46,"x_max":774,"o":"m 721 0 l 613 306 l 206 306 l 99 0 l 46 0 l 385 956 l 436 956 l 774 0 l 721 0 m 413 875 l 406 875 l 222 353 l 596 353 l 413 875 m 356 1032 q 367 1074 356 1061 q 411 1096 379 1086 l 440 1103 q 501 1127 488 1115 q 515 1168 515 1139 q 505 1206 515 1194 q 470 1222 494 1218 q 392 1225 446 1225 q 264 1219 358 1225 l 264 1256 q 401 1264 350 1264 q 495 1256 463 1264 q 542 1229 528 1249 q 557 1174 557 1210 q 545 1113 557 1132 q 488 1079 533 1093 l 456 1071 q 413 1057 425 1063 q 399 1044 401 1051 q 396 1018 396 1036 l 356 1018 l 356 1032 z "},"Ȃ":{"ha":819,"x_min":46,"x_max":774,"o":"m 721 0 l 613 306 l 206 306 l 99 0 l 46 0 l 385 956 l 436 956 l 774 0 l 721 0 m 413 875 l 406 875 l 222 353 l 596 353 l 413 875 m 250 1046 q 258 1156 250 1118 q 301 1218 267 1194 q 413 1242 336 1242 q 524 1218 489 1242 q 566 1156 558 1194 q 574 1046 574 1118 l 529 1046 q 524 1139 529 1108 q 493 1186 518 1169 q 413 1203 468 1203 q 331 1186 357 1203 q 300 1139 306 1169 q 294 1046 294 1108 l 250 1046 z "},"Ā":{"ha":819,"x_min":46,"x_max":774,"o":"m 721 0 l 613 306 l 206 306 l 99 0 l 46 0 l 385 956 l 436 956 l 774 0 l 721 0 m 413 875 l 406 875 l 222 353 l 596 353 l 413 875 m 267 1182 l 267 1232 l 553 1232 l 553 1182 l 267 1182 z "},"Ą":{"ha":819,"x_min":46,"x_max":774,"o":"m 683 -164 q 749 -228 683 -228 l 772 -226 l 772 -271 q 742 -272 760 -272 q 662 -245 688 -272 q 636 -172 636 -218 q 659 -83 636 -131 q 719 3 682 -35 l 613 306 l 206 306 l 99 0 l 46 0 l 385 956 l 436 956 l 774 0 l 765 0 q 709 -78 735 -29 q 683 -164 683 -126 m 222 353 l 596 353 l 413 875 l 406 875 l 222 353 z "},"Å":{"ha":819,"x_min":46,"x_max":774,"o":"m 774 0 l 721 0 l 613 306 l 206 306 l 99 0 l 46 0 l 374 929 q 303 945 325 932 q 274 983 281 958 q 268 1054 268 1007 q 276 1133 268 1107 q 315 1170 285 1158 q 410 1182 344 1182 q 505 1170 475 1182 q 543 1133 535 1158 q 551 1054 551 1107 q 545 983 551 1007 q 517 945 539 958 q 447 929 494 932 l 774 0 m 314 1054 q 319 999 314 1015 q 344 975 324 982 q 410 968 364 968 q 476 975 456 968 q 501 999 496 982 q 506 1054 506 1015 q 501 1110 506 1093 q 476 1135 496 1128 q 410 1143 456 1143 q 344 1135 364 1143 q 319 1110 324 1128 q 314 1054 314 1093 m 222 353 l 596 353 l 413 875 l 406 875 l 222 353 z "},"Ǻ":{"ha":819,"x_min":46,"x_max":774,"o":"m 774 0 l 721 0 l 613 306 l 206 306 l 99 0 l 46 0 l 374 929 q 303 945 325 932 q 274 983 281 958 q 268 1054 268 1007 q 276 1133 268 1107 q 315 1170 285 1158 q 410 1182 344 1182 q 505 1170 475 1182 q 543 1133 535 1158 q 551 1054 551 1107 q 545 983 551 1007 q 517 945 539 958 q 447 929 494 932 l 774 0 m 314 1054 q 319 999 314 1015 q 344 975 324 982 q 410 968 364 968 q 476 975 456 968 q 501 999 496 982 q 506 1054 506 1015 q 501 1110 506 1093 q 476 1135 496 1128 q 410 1143 456 1143 q 344 1135 364 1143 q 319 1110 324 1128 q 314 1054 314 1093 m 222 353 l 596 353 l 413 875 l 406 875 l 222 353 m 385 1268 l 385 1275 l 500 1460 l 561 1460 l 561 1453 l 421 1268 l 385 1268 z "},"Ã":{"ha":819,"x_min":46,"x_max":774,"o":"m 721 0 l 613 306 l 206 306 l 99 0 l 46 0 l 385 956 l 436 956 l 774 0 l 721 0 m 413 875 l 406 875 l 222 353 l 596 353 l 413 875 m 621 1189 q 606 1085 621 1113 q 542 1057 590 1057 q 477 1067 510 1057 q 399 1094 444 1076 q 278 1128 321 1128 q 243 1109 251 1128 q 235 1042 235 1090 l 197 1042 q 213 1145 197 1117 q 278 1174 229 1174 q 341 1164 310 1174 q 422 1135 372 1154 q 489 1111 461 1119 q 542 1103 517 1103 q 576 1121 568 1103 q 583 1189 583 1139 l 621 1189 z "},"Æ":{"ha":1132,"x_min":0,"x_max":1065,"o":"m 674 0 l 596 306 l 188 306 l 51 0 l 0 0 l 428 956 l 1065 956 l 1065 908 l 492 908 l 596 507 l 1008 507 l 1008 460 l 608 460 l 715 47 l 1065 47 l 1065 0 l 674 0 m 450 875 l 443 875 l 210 353 l 583 353 l 450 875 z "},"Ǽ":{"ha":1132,"x_min":0,"x_max":1065,"o":"m 674 0 l 596 306 l 188 306 l 51 0 l 0 0 l 428 956 l 1065 956 l 1065 908 l 492 908 l 596 507 l 1008 507 l 1008 460 l 608 460 l 715 47 l 1065 47 l 1065 0 l 674 0 m 450 875 l 443 875 l 210 353 l 583 353 l 450 875 m 536 1042 l 536 1049 l 651 1233 l 713 1233 l 713 1226 l 572 1042 l 536 1042 z "},"B":{"ha":825,"x_min":138,"x_max":725,"o":"m 138 956 l 489 956 q 665 893 615 956 q 715 717 715 831 q 563 492 715 522 l 563 486 q 692 406 660 469 q 725 250 725 343 q 674 69 725 139 q 478 0 624 0 l 138 0 l 138 956 m 479 508 q 617 560 568 508 q 665 708 665 613 q 624 861 665 814 q 479 908 583 908 l 188 908 l 188 508 l 479 508 m 483 47 q 632 97 589 47 q 675 254 675 146 q 629 411 675 361 q 483 461 583 461 l 188 461 l 188 47 l 483 47 z "},"C":{"ha":685,"x_min":107,"x_max":613,"o":"m 613 3 q 429 -11 532 -11 q 218 21 282 -11 q 131 152 154 53 q 107 478 107 251 q 131 801 107 701 q 219 933 154 900 q 429 967 283 967 q 524 962 474 967 q 607 950 575 957 l 607 906 q 440 919 531 919 q 248 892 303 919 q 175 778 193 865 q 157 478 157 692 q 175 177 157 264 q 248 63 193 90 q 440 36 303 36 q 613 50 533 36 l 613 3 z "},"Ć":{"ha":685,"x_min":107,"x_max":613,"o":"m 613 3 q 429 -11 532 -11 q 218 21 282 -11 q 131 152 154 53 q 107 478 107 251 q 131 801 107 701 q 219 933 154 900 q 429 967 283 967 q 524 962 474 967 q 607 950 575 957 l 607 906 q 440 919 531 919 q 248 892 303 919 q 175 778 193 865 q 157 478 157 692 q 175 177 157 264 q 248 63 193 90 q 440 36 303 36 q 613 50 533 36 l 613 3 m 317 1042 l 317 1049 l 432 1233 l 493 1233 l 493 1226 l 353 1042 l 317 1042 z "},"Č":{"ha":685,"x_min":107,"x_max":613,"o":"m 613 3 q 429 -11 532 -11 q 218 21 282 -11 q 131 152 154 53 q 107 478 107 251 q 131 801 107 701 q 219 933 154 900 q 429 967 283 967 q 524 962 474 967 q 607 950 575 957 l 607 906 q 440 919 531 919 q 248 892 303 919 q 175 778 193 865 q 157 478 157 692 q 175 177 157 264 q 248 63 193 90 q 440 36 303 36 q 613 50 533 36 l 613 3 m 310 1042 l 179 1226 l 179 1233 l 217 1233 l 342 1083 l 467 1233 l 504 1233 l 504 1226 l 374 1042 l 310 1042 z "},"Ç":{"ha":685,"x_min":107,"x_max":613,"o":"m 440 36 q 613 50 533 36 l 613 3 q 429 -11 532 -11 q 358 -10 379 -11 l 300 -264 l 244 -264 l 244 -257 l 319 -7 q 184 46 228 3 q 124 186 140 89 q 107 478 107 283 q 131 801 107 701 q 219 933 154 900 q 429 967 283 967 q 524 962 474 967 q 607 950 575 957 l 607 906 q 440 919 531 919 q 248 892 303 919 q 175 778 193 865 q 157 478 157 692 q 175 177 157 264 q 248 63 193 90 q 440 36 303 36 z "},"Ĉ":{"ha":685,"x_min":107,"x_max":613,"o":"m 613 3 q 429 -11 532 -11 q 218 21 282 -11 q 131 152 154 53 q 107 478 107 251 q 131 801 107 701 q 219 933 154 900 q 429 967 283 967 q 524 962 474 967 q 607 950 575 957 l 607 906 q 440 919 531 919 q 248 892 303 919 q 175 778 193 865 q 157 478 157 692 q 175 177 157 264 q 248 63 193 90 q 440 36 303 36 q 613 50 533 36 l 613 3 m 179 1042 l 179 1049 l 310 1233 l 374 1233 l 504 1049 l 504 1042 l 467 1042 l 342 1192 l 217 1042 l 179 1042 z "},"Ċ":{"ha":685,"x_min":107,"x_max":613,"o":"m 613 3 q 429 -11 532 -11 q 218 21 282 -11 q 131 152 154 53 q 107 478 107 251 q 131 801 107 701 q 219 933 154 900 q 429 967 283 967 q 524 962 474 967 q 607 950 575 957 l 607 906 q 440 919 531 919 q 248 892 303 919 q 175 778 193 865 q 157 478 157 692 q 175 177 157 264 q 248 63 193 90 q 440 36 303 36 q 613 50 533 36 l 613 3 m 311 1132 l 311 1217 l 371 1217 l 371 1132 l 311 1132 z "},"D":{"ha":832,"x_min":138,"x_max":725,"o":"m 138 956 l 386 956 q 617 924 550 956 q 705 799 685 892 q 725 478 725 706 q 705 157 725 250 q 617 32 685 64 q 386 0 550 0 l 138 0 l 138 956 m 368 47 q 583 69 525 47 q 658 173 640 90 q 675 478 675 256 q 657 782 675 699 q 581 887 639 865 q 368 908 524 908 l 188 908 l 188 47 l 368 47 z "},"Ǳ":{"ha":1544,"x_min":138,"x_max":1483,"o":"m 138 956 l 386 956 q 617 924 550 956 q 705 799 685 892 q 725 478 725 706 q 705 157 725 250 q 617 32 685 64 q 386 0 550 0 l 138 0 l 138 956 m 368 47 q 583 69 525 47 q 658 173 640 90 q 675 478 675 256 q 657 782 675 699 q 581 887 639 865 q 368 908 524 908 l 188 908 l 188 47 l 368 47 m 897 0 l 897 44 l 1414 908 l 911 908 l 911 956 l 1474 956 l 1474 911 l 958 47 l 1483 47 l 1483 0 l 897 0 z "},"Ǆ":{"ha":1544,"x_min":138,"x_max":1483,"o":"m 138 956 l 386 956 q 617 924 550 956 q 705 799 685 892 q 725 478 725 706 q 705 157 725 250 q 617 32 685 64 q 386 0 550 0 l 138 0 l 138 956 m 368 47 q 583 69 525 47 q 658 173 640 90 q 675 478 675 256 q 657 782 675 699 q 581 887 639 865 q 368 908 524 908 l 188 908 l 188 47 l 368 47 m 897 0 l 897 44 l 1414 908 l 911 908 l 911 956 l 1474 956 l 1474 911 l 958 47 l 1483 47 l 1483 0 l 897 0 m 1157 1042 l 1026 1226 l 1026 1233 l 1064 1233 l 1189 1083 l 1314 1233 l 1351 1233 l 1351 1226 l 1221 1042 l 1157 1042 z "},"Ð":{"ha":832,"x_min":47,"x_max":725,"o":"m 138 460 l 47 460 l 47 510 l 138 510 l 138 956 l 386 956 q 617 924 550 956 q 705 799 685 892 q 725 478 725 706 q 705 157 725 250 q 617 32 685 64 q 386 0 550 0 l 138 0 l 138 460 m 368 47 q 583 69 525 47 q 658 173 640 90 q 675 478 675 256 q 657 782 675 699 q 581 887 639 865 q 368 908 524 908 l 188 908 l 188 510 l 360 510 l 360 460 l 188 460 l 188 47 l 368 47 z "},"Ď":{"ha":832,"x_min":138,"x_max":725,"o":"m 138 956 l 386 956 q 617 924 550 956 q 705 799 685 892 q 725 478 725 706 q 705 157 725 250 q 617 32 685 64 q 386 0 550 0 l 138 0 l 138 956 m 368 47 q 583 69 525 47 q 658 173 640 90 q 675 478 675 256 q 657 782 675 699 q 581 887 639 865 q 368 908 524 908 l 188 908 l 188 47 l 368 47 m 385 1042 l 254 1226 l 254 1233 l 292 1233 l 417 1083 l 542 1233 l 579 1233 l 579 1226 l 449 1042 l 385 1042 z "},"Đ":{"ha":832,"x_min":47,"x_max":725,"o":"m 138 460 l 47 460 l 47 510 l 138 510 l 138 956 l 386 956 q 617 924 550 956 q 705 799 685 892 q 725 478 725 706 q 705 157 725 250 q 617 32 685 64 q 386 0 550 0 l 138 0 l 138 460 m 368 47 q 583 69 525 47 q 658 173 640 90 q 675 478 675 256 q 657 782 675 699 q 581 887 639 865 q 368 908 524 908 l 188 908 l 188 510 l 360 510 l 360 460 l 188 460 l 188 47 l 368 47 z "},"Ḍ":{"ha":832,"x_min":138,"x_max":725,"o":"m 138 956 l 386 956 q 617 924 550 956 q 705 799 685 892 q 725 478 725 706 q 705 157 725 250 q 617 32 685 64 q 386 0 550 0 l 138 0 l 138 956 m 368 47 q 583 69 525 47 q 658 173 640 90 q 675 478 675 256 q 657 782 675 699 q 581 887 639 865 q 368 908 524 908 l 188 908 l 188 47 l 368 47 m 385 -176 l 385 -86 l 449 -86 l 449 -176 l 385 -176 z "},"ǲ":{"ha":1431,"x_min":138,"x_max":1368,"o":"m 138 956 l 386 956 q 617 924 550 956 q 705 799 685 892 q 725 478 725 706 q 705 157 725 250 q 617 32 685 64 q 386 0 550 0 l 138 0 l 138 956 m 368 47 q 583 69 525 47 q 658 173 640 90 q 675 478 675 256 q 657 782 675 699 q 581 887 639 865 q 368 908 524 908 l 188 908 l 188 47 l 368 47 m 894 0 l 894 39 l 1303 664 l 910 664 l 910 708 l 1365 708 l 1365 669 l 958 44 l 1368 44 l 1368 0 l 894 0 z "},"ǅ":{"ha":1431,"x_min":138,"x_max":1368,"o":"m 138 956 l 386 956 q 617 924 550 956 q 705 799 685 892 q 725 478 725 706 q 705 157 725 250 q 617 32 685 64 q 386 0 550 0 l 138 0 l 138 956 m 368 47 q 583 69 525 47 q 658 173 640 90 q 675 478 675 256 q 657 782 675 699 q 581 887 639 865 q 368 908 524 908 l 188 908 l 188 47 l 368 47 m 894 0 l 894 39 l 1303 664 l 910 664 l 910 708 l 1365 708 l 1365 669 l 958 44 l 1368 44 l 1368 0 l 894 0 m 1114 840 l 983 1025 l 983 1032 l 1021 1032 l 1146 882 l 1271 1032 l 1308 1032 l 1308 1025 l 1178 840 l 1114 840 z "},"E":{"ha":718,"x_min":138,"x_max":651,"o":"m 138 0 l 138 956 l 651 956 l 651 908 l 188 908 l 188 507 l 594 507 l 594 460 l 188 460 l 188 47 l 651 47 l 651 0 l 138 0 z "},"É":{"ha":718,"x_min":138,"x_max":651,"o":"m 138 0 l 138 956 l 651 956 l 651 908 l 188 908 l 188 507 l 594 507 l 594 460 l 188 460 l 188 47 l 651 47 l 651 0 l 138 0 m 364 1042 l 364 1049 l 479 1233 l 540 1233 l 540 1226 l 400 1042 l 364 1042 z "},"Ĕ":{"ha":718,"x_min":138,"x_max":651,"o":"m 138 0 l 138 956 l 651 956 l 651 908 l 188 908 l 188 507 l 594 507 l 594 460 l 188 460 l 188 47 l 651 47 l 651 0 l 138 0 m 556 1233 q 547 1123 556 1161 q 504 1061 539 1085 q 393 1038 469 1038 q 282 1061 317 1038 q 240 1123 247 1085 q 232 1233 232 1161 l 276 1233 q 282 1140 276 1171 q 313 1093 288 1110 q 393 1076 338 1076 q 474 1093 449 1076 q 506 1140 500 1110 q 511 1233 511 1171 l 556 1233 z "},"Ě":{"ha":718,"x_min":138,"x_max":651,"o":"m 138 0 l 138 956 l 651 956 l 651 908 l 188 908 l 188 507 l 594 507 l 594 460 l 188 460 l 188 47 l 651 47 l 651 0 l 138 0 m 363 1042 l 232 1226 l 232 1233 l 269 1233 l 394 1083 l 519 1233 l 557 1233 l 557 1226 l 426 1042 l 363 1042 z "},"Ê":{"ha":718,"x_min":138,"x_max":651,"o":"m 138 0 l 138 956 l 651 956 l 651 908 l 188 908 l 188 507 l 594 507 l 594 460 l 188 460 l 188 47 l 651 47 l 651 0 l 138 0 m 236 1042 l 236 1049 l 367 1233 l 431 1233 l 561 1049 l 561 1042 l 524 1042 l 399 1192 l 274 1042 l 236 1042 z "},"Ế":{"ha":718,"x_min":138,"x_max":668,"o":"m 138 0 l 138 956 l 651 956 l 651 908 l 188 908 l 188 507 l 594 507 l 594 460 l 188 460 l 188 47 l 651 47 l 651 0 l 138 0 m 228 1038 l 228 1044 l 358 1229 l 422 1229 l 553 1044 l 553 1038 l 515 1038 l 390 1188 l 265 1038 l 228 1038 m 492 1229 l 492 1236 l 607 1421 l 668 1421 l 668 1414 l 528 1229 l 492 1229 z "},"Ệ":{"ha":718,"x_min":138,"x_max":651,"o":"m 138 0 l 138 956 l 651 956 l 651 908 l 188 908 l 188 507 l 594 507 l 594 460 l 188 460 l 188 47 l 651 47 l 651 0 l 138 0 m 363 -176 l 363 -86 l 426 -86 l 426 -176 l 363 -176 m 232 1042 l 232 1049 l 363 1233 l 426 1233 l 557 1049 l 557 1042 l 519 1042 l 394 1192 l 269 1042 l 232 1042 z "},"Ề":{"ha":718,"x_min":138,"x_max":651,"o":"m 138 0 l 138 956 l 651 956 l 651 908 l 188 908 l 188 507 l 594 507 l 594 460 l 188 460 l 188 47 l 651 47 l 651 0 l 138 0 m 226 1038 l 226 1044 l 357 1229 l 421 1229 l 551 1044 l 551 1038 l 514 1038 l 389 1188 l 264 1038 l 226 1038 m 522 1229 l 382 1414 l 382 1421 l 443 1421 l 558 1236 l 558 1229 l 522 1229 z "},"Ể":{"ha":718,"x_min":138,"x_max":657,"o":"m 138 0 l 138 956 l 651 956 l 651 908 l 188 908 l 188 507 l 594 507 l 594 460 l 188 460 l 188 47 l 651 47 l 651 0 l 138 0 m 232 1038 l 232 1044 l 363 1229 l 426 1229 l 557 1044 l 557 1038 l 519 1038 l 394 1188 l 269 1038 l 232 1038 m 456 1244 q 467 1286 456 1274 q 511 1307 479 1299 l 540 1315 q 601 1340 588 1328 q 615 1381 615 1351 q 605 1419 615 1407 q 570 1434 594 1431 q 492 1438 546 1438 q 364 1431 443 1438 l 364 1467 q 501 1475 429 1475 q 595 1467 563 1475 q 642 1441 628 1460 q 657 1386 657 1422 q 645 1324 657 1343 q 588 1292 633 1304 l 556 1282 q 513 1268 524 1274 q 499 1256 501 1263 q 496 1231 496 1249 l 456 1231 l 456 1244 z "},"Ễ":{"ha":718,"x_min":138,"x_max":651,"o":"m 138 0 l 138 956 l 651 956 l 651 908 l 188 908 l 188 507 l 594 507 l 594 460 l 188 460 l 188 47 l 651 47 l 651 0 l 138 0 m 229 1039 l 229 1046 l 360 1231 l 424 1231 l 554 1046 l 554 1039 l 517 1039 l 392 1189 l 267 1039 l 229 1039 m 606 1471 q 590 1367 606 1394 q 526 1339 575 1339 q 462 1349 494 1339 q 383 1376 429 1358 q 263 1410 306 1410 q 228 1391 236 1410 q 219 1324 219 1372 l 182 1324 q 198 1427 182 1399 q 263 1456 214 1456 q 326 1446 294 1456 q 407 1417 357 1436 q 474 1393 446 1401 q 526 1385 501 1385 q 560 1403 553 1385 q 568 1471 568 1421 l 606 1471 z "},"Ȅ":{"ha":718,"x_min":135,"x_max":651,"o":"m 138 0 l 138 956 l 651 956 l 651 908 l 188 908 l 188 507 l 594 507 l 594 460 l 188 460 l 188 47 l 651 47 l 651 0 l 138 0 m 311 1044 l 275 1044 l 135 1221 l 135 1228 l 197 1228 l 311 1051 l 311 1044 m 536 1044 l 500 1044 l 361 1221 l 361 1228 l 422 1228 l 536 1051 l 536 1044 z "},"Ë":{"ha":718,"x_min":138,"x_max":651,"o":"m 138 0 l 138 956 l 651 956 l 651 908 l 188 908 l 188 507 l 594 507 l 594 460 l 188 460 l 188 47 l 651 47 l 651 0 l 138 0 m 250 1069 l 250 1154 l 308 1154 l 308 1069 l 250 1069 m 496 1069 l 496 1154 l 554 1154 l 554 1069 l 496 1069 z "},"Ė":{"ha":718,"x_min":138,"x_max":651,"o":"m 138 0 l 138 956 l 651 956 l 651 908 l 188 908 l 188 507 l 594 507 l 594 460 l 188 460 l 188 47 l 651 47 l 651 0 l 138 0 m 364 1132 l 364 1217 l 424 1217 l 424 1132 l 364 1132 z "},"Ẹ":{"ha":718,"x_min":138,"x_max":651,"o":"m 138 0 l 138 956 l 651 956 l 651 908 l 188 908 l 188 507 l 594 507 l 594 460 l 188 460 l 188 47 l 651 47 l 651 0 l 138 0 m 363 -176 l 363 -86 l 426 -86 l 426 -176 l 363 -176 z "},"È":{"ha":718,"x_min":138,"x_max":651,"o":"m 138 0 l 138 956 l 651 956 l 651 908 l 188 908 l 188 507 l 594 507 l 594 460 l 188 460 l 188 47 l 651 47 l 651 0 l 138 0 m 396 1042 l 256 1226 l 256 1233 l 317 1233 l 432 1049 l 432 1042 l 396 1042 z "},"Ẻ":{"ha":718,"x_min":138,"x_max":651,"o":"m 138 0 l 138 956 l 651 956 l 651 908 l 188 908 l 188 507 l 594 507 l 594 460 l 188 460 l 188 47 l 651 47 l 651 0 l 138 0 m 339 1032 q 351 1074 339 1061 q 394 1096 363 1086 l 424 1103 q 485 1127 471 1115 q 499 1168 499 1139 q 488 1206 499 1194 q 453 1222 478 1218 q 375 1225 429 1225 q 247 1219 342 1225 l 247 1256 q 385 1264 333 1264 q 478 1256 446 1264 q 526 1229 511 1249 q 540 1174 540 1210 q 528 1113 540 1132 q 471 1079 517 1093 l 439 1071 q 397 1057 408 1063 q 382 1044 385 1051 q 379 1018 379 1036 l 339 1018 l 339 1032 z "},"Ȇ":{"ha":718,"x_min":138,"x_max":651,"o":"m 138 0 l 138 956 l 651 956 l 651 908 l 188 908 l 188 507 l 594 507 l 594 460 l 188 460 l 188 47 l 651 47 l 651 0 l 138 0 m 233 1046 q 242 1156 233 1118 q 285 1218 250 1194 q 396 1242 319 1242 q 507 1218 472 1242 q 549 1156 542 1194 q 557 1046 557 1118 l 513 1046 q 507 1139 513 1108 q 476 1186 501 1169 q 396 1203 451 1203 q 315 1186 340 1203 q 283 1139 289 1169 q 278 1046 278 1108 l 233 1046 z "},"Ē":{"ha":718,"x_min":138,"x_max":651,"o":"m 138 0 l 138 956 l 651 956 l 651 908 l 188 908 l 188 507 l 594 507 l 594 460 l 188 460 l 188 47 l 651 47 l 651 0 l 138 0 m 250 1182 l 250 1232 l 536 1232 l 536 1182 l 250 1182 z "},"Ę":{"ha":718,"x_min":138,"x_max":651,"o":"m 615 -272 q 535 -245 561 -272 q 510 -175 510 -218 q 535 -85 510 -132 q 603 0 561 -37 l 138 0 l 138 956 l 651 956 l 651 908 l 188 908 l 188 507 l 594 507 l 594 460 l 188 460 l 188 47 l 651 47 l 651 0 q 587 -76 617 -26 q 557 -165 557 -125 q 572 -210 557 -193 q 622 -228 588 -228 l 646 -226 l 646 -271 q 615 -272 633 -272 z "},"Ẽ":{"ha":718,"x_min":138,"x_max":651,"o":"m 138 0 l 138 956 l 651 956 l 651 908 l 188 908 l 188 507 l 594 507 l 594 460 l 188 460 l 188 47 l 651 47 l 651 0 l 138 0 m 606 1233 q 590 1129 606 1157 q 526 1101 575 1101 q 462 1111 494 1101 q 383 1139 429 1121 q 263 1172 306 1172 q 228 1153 236 1172 q 219 1086 219 1135 l 182 1086 q 198 1190 182 1161 q 263 1218 214 1218 q 326 1208 294 1218 q 407 1179 357 1199 q 474 1156 446 1164 q 526 1147 501 1147 q 560 1165 553 1147 q 568 1233 568 1183 l 606 1233 z "},"F":{"ha":675,"x_min":138,"x_max":626,"o":"m 138 0 l 138 956 l 626 956 l 626 908 l 188 908 l 188 488 l 582 488 l 582 440 l 188 440 l 188 0 l 138 0 z "},"G":{"ha":815,"x_min":107,"x_max":701,"o":"m 424 438 l 424 485 l 701 485 l 701 13 q 572 -5 643 1 q 447 -11 501 -11 q 228 22 297 -11 q 133 156 160 56 q 107 478 107 257 q 133 798 107 697 q 228 933 160 899 q 447 967 297 967 q 578 960 507 967 q 699 942 650 953 l 699 897 q 583 913 644 907 q 483 919 522 919 q 269 897 331 919 q 183 785 208 875 q 157 478 157 696 q 176 187 157 275 q 253 67 194 99 q 446 36 311 36 q 550 41 489 36 q 651 53 611 46 l 651 438 l 424 438 z "},"Ǵ":{"ha":815,"x_min":107,"x_max":701,"o":"m 424 438 l 424 485 l 701 485 l 701 13 q 572 -5 643 1 q 447 -11 501 -11 q 228 22 297 -11 q 133 156 160 56 q 107 478 107 257 q 133 798 107 697 q 228 933 160 899 q 447 967 297 967 q 578 960 507 967 q 699 942 650 953 l 699 897 q 583 913 644 907 q 483 919 522 919 q 269 897 331 919 q 183 785 208 875 q 157 478 157 696 q 176 187 157 275 q 253 67 194 99 q 446 36 311 36 q 550 41 489 36 q 651 53 611 46 l 651 438 l 424 438 m 383 1042 l 383 1049 l 499 1233 l 560 1233 l 560 1226 l 419 1042 l 383 1042 z "},"Ğ":{"ha":815,"x_min":107,"x_max":701,"o":"m 424 438 l 424 485 l 701 485 l 701 13 q 572 -5 643 1 q 447 -11 501 -11 q 228 22 297 -11 q 133 156 160 56 q 107 478 107 257 q 133 798 107 697 q 228 933 160 899 q 447 967 297 967 q 578 960 507 967 q 699 942 650 953 l 699 897 q 583 913 644 907 q 483 919 522 919 q 269 897 331 919 q 183 785 208 875 q 157 478 157 696 q 176 187 157 275 q 253 67 194 99 q 446 36 311 36 q 550 41 489 36 q 651 53 611 46 l 651 438 l 424 438 m 569 1233 q 561 1123 569 1161 q 518 1061 553 1085 q 407 1038 483 1038 q 296 1061 331 1038 q 253 1123 261 1085 q 246 1233 246 1161 l 290 1233 q 296 1140 290 1171 q 326 1093 301 1110 q 407 1076 351 1076 q 488 1093 463 1076 q 519 1140 514 1110 q 525 1233 525 1171 l 569 1233 z "},"Ǧ":{"ha":815,"x_min":107,"x_max":701,"o":"m 424 438 l 424 485 l 701 485 l 701 13 q 572 -5 643 1 q 447 -11 501 -11 q 228 22 297 -11 q 133 156 160 56 q 107 478 107 257 q 133 798 107 697 q 228 933 160 899 q 447 967 297 967 q 578 960 507 967 q 699 942 650 953 l 699 897 q 583 913 644 907 q 483 919 522 919 q 269 897 331 919 q 183 785 208 875 q 157 478 157 696 q 176 187 157 275 q 253 67 194 99 q 446 36 311 36 q 550 41 489 36 q 651 53 611 46 l 651 438 l 424 438 m 376 1042 l 246 1226 l 246 1233 l 283 1233 l 408 1083 l 533 1233 l 571 1233 l 571 1226 l 440 1042 l 376 1042 z "},"Ĝ":{"ha":815,"x_min":107,"x_max":701,"o":"m 424 438 l 424 485 l 701 485 l 701 13 q 572 -5 643 1 q 447 -11 501 -11 q 228 22 297 -11 q 133 156 160 56 q 107 478 107 257 q 133 798 107 697 q 228 933 160 899 q 447 967 297 967 q 578 960 507 967 q 699 942 650 953 l 699 897 q 583 913 644 907 q 483 919 522 919 q 269 897 331 919 q 183 785 208 875 q 157 478 157 696 q 176 187 157 275 q 253 67 194 99 q 446 36 311 36 q 550 41 489 36 q 651 53 611 46 l 651 438 l 424 438 m 246 1042 l 246 1049 l 376 1233 l 440 1233 l 571 1049 l 571 1042 l 533 1042 l 408 1192 l 283 1042 l 246 1042 z "},"Ģ":{"ha":815,"x_min":107,"x_max":701,"o":"m 424 438 l 424 485 l 701 485 l 701 13 q 572 -5 643 1 q 447 -11 501 -11 q 228 22 297 -11 q 133 156 160 56 q 107 478 107 257 q 133 798 107 697 q 228 933 160 899 q 447 967 297 967 q 578 960 507 967 q 699 942 650 953 l 699 897 q 583 913 644 907 q 483 919 522 919 q 269 897 331 919 q 183 785 208 875 q 157 478 157 696 q 176 187 157 275 q 253 67 194 99 q 446 36 311 36 q 550 41 489 36 q 651 53 611 46 l 651 438 l 424 438 m 356 -287 q 400 -280 386 -287 q 418 -255 414 -272 q 422 -200 422 -237 l 422 -176 l 394 -176 l 394 -86 l 461 -86 l 461 -190 q 452 -268 461 -242 q 421 -306 443 -294 q 356 -317 399 -317 l 356 -287 z "},"Ġ":{"ha":815,"x_min":107,"x_max":701,"o":"m 424 438 l 424 485 l 701 485 l 701 13 q 572 -5 643 1 q 447 -11 501 -11 q 228 22 297 -11 q 133 156 160 56 q 107 478 107 257 q 133 798 107 697 q 228 933 160 899 q 447 967 297 967 q 578 960 507 967 q 699 942 650 953 l 699 897 q 583 913 644 907 q 483 919 522 919 q 269 897 331 919 q 183 785 208 875 q 157 478 157 696 q 176 187 157 275 q 253 67 194 99 q 446 36 311 36 q 550 41 489 36 q 651 53 611 46 l 651 438 l 424 438 m 378 1132 l 378 1217 l 438 1217 l 438 1132 l 378 1132 z "},"H":{"ha":886,"x_min":138,"x_max":750,"o":"m 700 0 l 700 460 l 188 460 l 188 0 l 138 0 l 138 956 l 188 956 l 188 507 l 700 507 l 700 956 l 750 956 l 750 0 l 700 0 z "},"Ħ":{"ha":886,"x_min":138,"x_max":750,"o":"m 700 956 l 750 956 l 750 0 l 700 0 l 700 432 l 188 432 l 188 0 l 138 0 l 138 956 l 188 956 l 188 736 l 700 736 l 700 956 m 188 479 l 700 479 l 700 686 l 188 686 l 188 479 z "},"Ĥ":{"ha":886,"x_min":138,"x_max":750,"o":"m 700 0 l 700 460 l 188 460 l 188 0 l 138 0 l 138 956 l 188 956 l 188 507 l 700 507 l 700 956 l 750 956 l 750 0 l 700 0 m 281 1042 l 281 1049 l 411 1233 l 475 1233 l 606 1049 l 606 1042 l 568 1042 l 443 1192 l 318 1042 l 281 1042 z "},"Ḥ":{"ha":886,"x_min":138,"x_max":750,"o":"m 700 0 l 700 460 l 188 460 l 188 0 l 138 0 l 138 956 l 188 956 l 188 507 l 700 507 l 700 956 l 750 956 l 750 0 l 700 0 m 411 -176 l 411 -86 l 475 -86 l 475 -176 l 411 -176 z "},"I":{"ha":328,"x_min":139,"x_max":189,"o":"m 139 0 l 139 956 l 189 956 l 189 0 l 139 0 z "},"Ĳ":{"ha":711,"x_min":139,"x_max":586,"o":"m 139 0 l 139 956 l 189 956 l 189 0 l 139 0 m 369 47 q 489 65 458 50 q 528 131 519 79 q 536 332 536 182 l 536 956 l 586 956 l 586 349 q 574 105 586 169 q 522 22 563 40 q 369 0 482 3 l 369 47 z "},"Í":{"ha":328,"x_min":131,"x_max":307,"o":"m 139 0 l 139 956 l 189 956 l 189 0 l 139 0 m 131 1042 l 131 1049 l 246 1233 l 307 1233 l 307 1226 l 167 1042 l 131 1042 z "},"Ĭ":{"ha":328,"x_min":1,"x_max":325,"o":"m 139 0 l 139 956 l 189 956 l 189 0 l 139 0 m 325 1233 q 317 1123 325 1161 q 274 1061 308 1085 q 163 1038 239 1038 q 51 1061 86 1038 q 9 1123 17 1085 q 1 1233 1 1161 l 46 1233 q 51 1140 46 1171 q 82 1093 57 1110 q 163 1076 107 1076 q 244 1093 218 1076 q 275 1140 269 1110 q 281 1233 281 1171 l 325 1233 z "},"Ǐ":{"ha":328,"x_min":1,"x_max":326,"o":"m 139 0 l 139 956 l 189 956 l 189 0 l 139 0 m 132 1042 l 1 1226 l 1 1233 l 39 1233 l 164 1083 l 289 1233 l 326 1233 l 326 1226 l 196 1042 l 132 1042 z "},"Î":{"ha":328,"x_min":1,"x_max":326,"o":"m 139 0 l 139 956 l 189 956 l 189 0 l 139 0 m 1 1042 l 1 1049 l 132 1233 l 196 1233 l 326 1049 l 326 1042 l 289 1042 l 164 1192 l 39 1042 l 1 1042 z "},"Ȉ":{"ha":328,"x_min":-96,"x_max":306,"o":"m 139 0 l 139 956 l 189 956 l 189 0 l 139 0 m 81 1044 l 44 1044 l -96 1221 l -96 1228 l -33 1228 l 81 1051 l 81 1044 m 306 1044 l 269 1044 l 131 1221 l 131 1228 l 192 1228 l 306 1051 l 306 1044 z "},"Ï":{"ha":328,"x_min":13,"x_max":317,"o":"m 139 0 l 139 956 l 189 956 l 189 0 l 139 0 m 13 1069 l 13 1154 l 71 1154 l 71 1069 l 13 1069 m 258 1069 l 258 1154 l 317 1154 l 317 1069 l 258 1069 z "},"İ":{"ha":328,"x_min":133,"x_max":193,"o":"m 139 0 l 139 956 l 189 956 l 189 0 l 139 0 m 133 1132 l 133 1217 l 193 1217 l 193 1132 l 133 1132 z "},"Ị":{"ha":328,"x_min":132,"x_max":196,"o":"m 139 0 l 139 956 l 189 956 l 189 0 l 139 0 m 132 -176 l 132 -86 l 196 -86 l 196 -176 l 132 -176 z "},"Ì":{"ha":328,"x_min":22,"x_max":199,"o":"m 139 0 l 139 956 l 189 956 l 189 0 l 139 0 m 163 1042 l 22 1226 l 22 1233 l 83 1233 l 199 1049 l 199 1042 l 163 1042 z "},"Ỉ":{"ha":328,"x_min":17,"x_max":310,"o":"m 139 0 l 139 956 l 189 956 l 189 0 l 139 0 m 108 1032 q 120 1074 108 1061 q 164 1096 132 1086 l 193 1103 q 254 1127 240 1115 q 268 1168 268 1139 q 258 1206 268 1194 q 223 1222 247 1218 q 144 1225 199 1225 q 17 1219 111 1225 l 17 1256 q 154 1264 103 1264 q 248 1256 215 1264 q 295 1229 281 1249 q 310 1174 310 1210 q 298 1113 310 1132 q 240 1079 286 1093 l 208 1071 q 166 1057 178 1063 q 151 1044 154 1051 q 149 1018 149 1036 l 108 1018 l 108 1032 z "},"Ȋ":{"ha":328,"x_min":3,"x_max":326,"o":"m 139 0 l 139 956 l 189 956 l 189 0 l 139 0 m 3 1046 q 11 1156 3 1118 q 54 1218 19 1194 q 165 1242 89 1242 q 276 1218 242 1242 q 319 1156 311 1194 q 326 1046 326 1118 l 282 1046 q 276 1139 282 1108 q 246 1186 271 1169 q 165 1203 221 1203 q 84 1186 110 1203 q 53 1139 58 1169 q 47 1046 47 1108 l 3 1046 z "},"Ī":{"ha":328,"x_min":19,"x_max":306,"o":"m 139 0 l 139 956 l 189 956 l 189 0 l 139 0 m 19 1182 l 19 1232 l 306 1232 l 306 1182 l 19 1182 z "},"Į":{"ha":328,"x_min":54,"x_max":190,"o":"m 160 -272 q 80 -245 106 -272 q 54 -172 54 -218 q 78 -85 54 -132 q 140 0 101 -37 l 139 0 l 139 956 l 189 956 l 189 0 q 130 -76 158 -26 q 101 -164 101 -125 q 167 -228 101 -228 l 190 -226 l 190 -271 q 160 -272 178 -272 z "},"Ĩ":{"ha":328,"x_min":-49,"x_max":375,"o":"m 139 0 l 139 956 l 189 956 l 189 0 l 139 0 m 375 1233 q 360 1129 375 1157 q 296 1101 344 1101 q 231 1111 264 1101 q 153 1139 199 1121 q 32 1172 75 1172 q -3 1153 6 1172 q -11 1086 -11 1135 l -49 1086 q -33 1190 -49 1161 q 32 1218 -17 1218 q 95 1208 64 1218 q 176 1179 126 1199 q 243 1156 215 1164 q 296 1147 271 1147 q 330 1165 322 1147 q 338 1233 338 1183 l 375 1233 z "},"J":{"ha":383,"x_min":42,"x_max":258,"o":"m 42 47 q 161 65 131 50 q 200 131 192 79 q 208 332 208 182 l 208 956 l 258 956 l 258 349 q 247 105 258 169 q 194 22 235 40 q 42 0 154 3 l 42 47 z "},"Ĵ":{"ha":383,"x_min":42,"x_max":396,"o":"m 42 47 q 161 65 131 50 q 200 131 192 79 q 208 332 208 182 l 208 956 l 258 956 l 258 349 q 247 105 258 169 q 194 22 235 40 q 42 0 154 3 l 42 47 m 71 1042 l 71 1049 l 201 1233 l 265 1233 l 396 1049 l 396 1042 l 358 1042 l 233 1192 l 108 1042 l 71 1042 z "},"K":{"ha":796,"x_min":138,"x_max":753,"o":"m 694 0 l 386 461 l 188 461 l 188 0 l 138 0 l 138 956 l 188 956 l 188 508 l 386 508 l 692 956 l 749 956 l 429 485 l 753 0 l 694 0 z "},"Ķ":{"ha":796,"x_min":138,"x_max":753,"o":"m 694 0 l 386 461 l 188 461 l 188 0 l 138 0 l 138 956 l 188 956 l 188 508 l 386 508 l 692 956 l 749 956 l 429 485 l 753 0 l 694 0 m 346 -287 q 390 -280 376 -287 q 408 -255 404 -272 q 413 -200 413 -237 l 413 -176 l 385 -176 l 385 -86 l 451 -86 l 451 -190 q 442 -268 451 -242 q 411 -306 433 -294 q 346 -317 389 -317 l 346 -287 z "},"L":{"ha":638,"x_min":138,"x_max":603,"o":"m 138 0 l 138 956 l 188 956 l 188 47 l 603 47 l 603 0 l 138 0 z "},"Ǉ":{"ha":1021,"x_min":138,"x_max":896,"o":"m 138 0 l 138 956 l 188 956 l 188 47 l 603 47 l 603 0 l 138 0 m 679 47 q 799 65 768 50 q 838 131 829 79 q 846 332 846 182 l 846 956 l 896 956 l 896 349 q 884 105 896 169 q 832 22 872 40 q 679 0 792 3 l 679 47 z "},"Ĺ":{"ha":638,"x_min":138,"x_max":603,"o":"m 138 0 l 138 956 l 188 956 l 188 47 l 603 47 l 603 0 l 138 0 m 138 1042 l 138 1049 l 253 1233 l 314 1233 l 314 1226 l 174 1042 l 138 1042 z "},"Ľ":{"ha":638,"x_min":138,"x_max":603,"o":"m 138 0 l 138 956 l 188 956 l 188 47 l 603 47 l 603 0 l 138 0 m 382 631 l 399 832 l 399 956 l 453 956 l 453 832 l 414 631 l 382 631 z "},"Ļ":{"ha":638,"x_min":138,"x_max":603,"o":"m 138 0 l 138 956 l 188 956 l 188 47 l 603 47 l 603 0 l 138 0 m 289 -287 q 333 -280 319 -287 q 351 -255 347 -272 q 356 -200 356 -237 l 356 -176 l 328 -176 l 328 -86 l 394 -86 l 394 -190 q 385 -268 394 -242 q 354 -306 376 -294 q 289 -317 332 -317 l 289 -287 z "},"Ŀ":{"ha":638,"x_min":138,"x_max":603,"o":"m 138 0 l 138 956 l 188 956 l 188 47 l 603 47 l 603 0 l 138 0 m 460 454 l 460 544 l 524 544 l 524 454 l 460 454 z "},"ǈ":{"ha":928,"x_min":138,"x_max":811,"o":"m 138 0 l 138 956 l 188 956 l 188 47 l 603 47 l 603 0 l 138 0 m 754 947 l 754 1032 l 811 1032 l 811 947 l 754 947 m 635 -232 q 717 -225 692 -232 q 751 -203 743 -218 q 758 -153 758 -187 l 758 708 l 807 708 l 807 -139 q 789 -230 807 -201 q 737 -266 771 -258 q 635 -274 703 -274 l 635 -232 z "},"Ł":{"ha":638,"x_min":51,"x_max":603,"o":"m 188 47 l 603 47 l 603 0 l 138 0 l 138 422 l 51 390 l 51 438 l 138 469 l 138 956 l 188 956 l 188 488 l 446 582 l 446 535 l 188 440 l 188 47 z "},"M":{"ha":1100,"x_min":138,"x_max":964,"o":"m 914 0 l 914 847 l 908 847 l 574 0 l 525 0 l 192 847 l 186 847 l 186 0 l 138 0 l 138 956 l 204 956 l 547 83 l 554 83 l 899 956 l 964 956 l 964 0 l 914 0 z "},"N":{"ha":886,"x_min":138,"x_max":750,"o":"m 697 0 l 192 851 l 186 851 l 186 0 l 138 0 l 138 956 l 189 956 l 696 104 l 701 104 l 701 956 l 750 956 l 750 0 l 697 0 z "},"Ǌ":{"ha":1269,"x_min":138,"x_max":1144,"o":"m 697 0 l 192 851 l 186 851 l 186 0 l 138 0 l 138 956 l 189 956 l 696 104 l 701 104 l 701 956 l 750 956 l 750 0 l 697 0 m 928 47 q 1047 65 1017 50 q 1086 131 1078 79 q 1094 332 1094 182 l 1094 956 l 1144 956 l 1144 349 q 1133 105 1144 169 q 1081 22 1121 40 q 928 0 1040 3 l 928 47 z "},"Ń":{"ha":886,"x_min":138,"x_max":750,"o":"m 697 0 l 192 851 l 186 851 l 186 0 l 138 0 l 138 956 l 189 956 l 696 104 l 701 104 l 701 956 l 750 956 l 750 0 l 697 0 m 418 1042 l 418 1049 l 533 1233 l 594 1233 l 594 1226 l 454 1042 l 418 1042 z "},"Ň":{"ha":886,"x_min":138,"x_max":750,"o":"m 697 0 l 192 851 l 186 851 l 186 0 l 138 0 l 138 956 l 189 956 l 696 104 l 701 104 l 701 956 l 750 956 l 750 0 l 697 0 m 411 1042 l 281 1226 l 281 1233 l 318 1233 l 443 1083 l 568 1233 l 606 1233 l 606 1226 l 475 1042 l 411 1042 z "},"Ņ":{"ha":886,"x_min":138,"x_max":750,"o":"m 697 0 l 192 851 l 186 851 l 186 0 l 138 0 l 138 956 l 189 956 l 696 104 l 701 104 l 701 956 l 750 956 l 750 0 l 697 0 m 390 -287 q 435 -280 421 -287 q 453 -255 449 -272 q 457 -200 457 -237 l 457 -176 l 429 -176 l 429 -86 l 496 -86 l 496 -190 q 487 -268 496 -242 q 456 -306 478 -294 q 390 -317 433 -317 l 390 -287 z "},"Ṅ":{"ha":886,"x_min":138,"x_max":750,"o":"m 697 0 l 192 851 l 186 851 l 186 0 l 138 0 l 138 956 l 189 956 l 696 104 l 701 104 l 701 956 l 750 956 l 750 0 l 697 0 m 413 1132 l 413 1217 l 472 1217 l 472 1132 l 413 1132 z "},"Ŋ":{"ha":886,"x_min":138,"x_max":750,"o":"m 750 956 l 750 -139 q 732 -230 750 -201 q 680 -266 714 -258 q 578 -274 646 -274 l 578 -232 q 660 -225 635 -232 q 694 -203 686 -218 q 701 -153 701 -187 l 701 0 l 192 851 l 186 851 l 186 0 l 138 0 l 138 956 l 189 956 l 696 107 l 701 107 l 701 956 l 750 956 z "},"Ɲ":{"ha":886,"x_min":14,"x_max":750,"o":"m 750 956 l 750 0 l 697 0 l 192 851 l 186 851 l 186 -139 q 168 -230 186 -201 q 116 -266 150 -258 q 14 -274 82 -274 l 14 -232 q 97 -225 71 -232 q 130 -203 122 -218 q 138 -153 138 -187 l 138 956 l 189 956 l 696 104 l 701 104 l 701 956 l 750 956 z "},"ǋ":{"ha":1176,"x_min":138,"x_max":1060,"o":"m 697 0 l 192 851 l 186 851 l 186 0 l 138 0 l 138 956 l 189 956 l 696 104 l 701 104 l 701 956 l 750 956 l 750 0 l 697 0 m 1003 947 l 1003 1032 l 1060 1032 l 1060 947 l 1003 947 m 883 -232 q 966 -225 940 -232 q 999 -203 992 -218 q 1007 -153 1007 -187 l 1007 708 l 1056 708 l 1056 -139 q 1038 -230 1056 -201 q 985 -266 1019 -258 q 883 -274 951 -274 l 883 -232 z "},"Ñ":{"ha":886,"x_min":138,"x_max":750,"o":"m 697 0 l 192 851 l 186 851 l 186 0 l 138 0 l 138 956 l 189 956 l 696 104 l 701 104 l 701 956 l 750 956 l 750 0 l 697 0 m 658 1189 q 643 1085 658 1113 q 579 1057 628 1057 q 515 1067 547 1057 q 436 1094 482 1076 q 315 1128 358 1128 q 281 1109 289 1128 q 272 1042 272 1090 l 235 1042 q 251 1145 235 1117 q 315 1174 267 1174 q 378 1164 347 1174 q 460 1135 410 1154 q 526 1111 499 1119 q 579 1103 554 1103 q 613 1121 606 1103 q 621 1189 621 1139 l 658 1189 z "},"O":{"ha":872,"x_min":107,"x_max":765,"o":"m 436 -11 q 211 22 276 -11 q 126 149 146 54 q 107 478 107 244 q 126 806 107 711 q 211 934 146 901 q 436 967 276 967 q 661 934 596 967 q 746 806 726 901 q 765 478 765 711 q 746 149 765 244 q 661 22 726 54 q 436 -11 596 -11 m 436 36 q 628 58 576 36 q 698 167 681 81 q 715 478 715 253 q 698 789 715 703 q 628 897 681 875 q 436 919 576 919 q 244 897 297 919 q 174 789 192 875 q 157 478 157 703 q 174 167 157 253 q 244 58 192 81 q 436 36 297 36 z "},"Ó":{"ha":872,"x_min":107,"x_max":765,"o":"m 436 -11 q 211 22 276 -11 q 126 149 146 54 q 107 478 107 244 q 126 806 107 711 q 211 934 146 901 q 436 967 276 967 q 661 934 596 967 q 746 806 726 901 q 765 478 765 711 q 746 149 765 244 q 661 22 726 54 q 436 -11 596 -11 m 436 36 q 628 58 576 36 q 698 167 681 81 q 715 478 715 253 q 698 789 715 703 q 628 897 681 875 q 436 919 576 919 q 244 897 297 919 q 174 789 192 875 q 157 478 157 703 q 174 167 157 253 q 244 58 192 81 q 436 36 297 36 m 407 1042 l 407 1049 l 522 1233 l 583 1233 l 583 1226 l 443 1042 l 407 1042 z "},"Ŏ":{"ha":872,"x_min":107,"x_max":765,"o":"m 436 -11 q 211 22 276 -11 q 126 149 146 54 q 107 478 107 244 q 126 806 107 711 q 211 934 146 901 q 436 967 276 967 q 661 934 596 967 q 746 806 726 901 q 765 478 765 711 q 746 149 765 244 q 661 22 726 54 q 436 -11 596 -11 m 436 36 q 628 58 576 36 q 698 167 681 81 q 715 478 715 253 q 698 789 715 703 q 628 897 681 875 q 436 919 576 919 q 244 897 297 919 q 174 789 192 875 q 157 478 157 703 q 174 167 157 253 q 244 58 192 81 q 436 36 297 36 m 597 1233 q 589 1123 597 1161 q 546 1061 581 1085 q 435 1038 511 1038 q 324 1061 358 1038 q 281 1123 289 1085 q 274 1233 274 1161 l 318 1233 q 324 1140 318 1171 q 354 1093 329 1110 q 435 1076 379 1076 q 516 1093 490 1076 q 547 1140 542 1110 q 553 1233 553 1171 l 597 1233 z "},"Ǒ":{"ha":872,"x_min":107,"x_max":765,"o":"m 436 -11 q 211 22 276 -11 q 126 149 146 54 q 107 478 107 244 q 126 806 107 711 q 211 934 146 901 q 436 967 276 967 q 661 934 596 967 q 746 806 726 901 q 765 478 765 711 q 746 149 765 244 q 661 22 726 54 q 436 -11 596 -11 m 436 36 q 628 58 576 36 q 698 167 681 81 q 715 478 715 253 q 698 789 715 703 q 628 897 681 875 q 436 919 576 919 q 244 897 297 919 q 174 789 192 875 q 157 478 157 703 q 174 167 157 253 q 244 58 192 81 q 436 36 297 36 m 404 1042 l 274 1226 l 274 1233 l 311 1233 l 436 1083 l 561 1233 l 599 1233 l 599 1226 l 468 1042 l 404 1042 z "},"Ô":{"ha":872,"x_min":107,"x_max":765,"o":"m 436 -11 q 211 22 276 -11 q 126 149 146 54 q 107 478 107 244 q 126 806 107 711 q 211 934 146 901 q 436 967 276 967 q 661 934 596 967 q 746 806 726 901 q 765 478 765 711 q 746 149 765 244 q 661 22 726 54 q 436 -11 596 -11 m 436 36 q 628 58 576 36 q 698 167 681 81 q 715 478 715 253 q 698 789 715 703 q 628 897 681 875 q 436 919 576 919 q 244 897 297 919 q 174 789 192 875 q 157 478 157 703 q 174 167 157 253 q 244 58 192 81 q 436 36 297 36 m 274 1042 l 274 1049 l 404 1233 l 468 1233 l 599 1049 l 599 1042 l 561 1042 l 436 1192 l 311 1042 l 274 1042 z "},"Ố":{"ha":872,"x_min":107,"x_max":765,"o":"m 436 -11 q 211 22 276 -11 q 126 149 146 54 q 107 478 107 244 q 126 806 107 711 q 211 934 146 901 q 436 967 276 967 q 661 934 596 967 q 746 806 726 901 q 765 478 765 711 q 746 149 765 244 q 661 22 726 54 q 436 -11 596 -11 m 436 36 q 628 58 576 36 q 698 167 681 81 q 715 478 715 253 q 698 789 715 703 q 628 897 681 875 q 436 919 576 919 q 244 897 297 919 q 174 789 192 875 q 157 478 157 703 q 174 167 157 253 q 244 58 192 81 q 436 36 297 36 m 269 1038 l 269 1044 l 400 1229 l 464 1229 l 594 1044 l 594 1038 l 557 1038 l 432 1188 l 307 1038 l 269 1038 m 533 1229 l 533 1236 l 649 1421 l 710 1421 l 710 1414 l 569 1229 l 533 1229 z "},"Ộ":{"ha":872,"x_min":107,"x_max":765,"o":"m 436 -11 q 211 22 276 -11 q 126 149 146 54 q 107 478 107 244 q 126 806 107 711 q 211 934 146 901 q 436 967 276 967 q 661 934 596 967 q 746 806 726 901 q 765 478 765 711 q 746 149 765 244 q 661 22 726 54 q 436 -11 596 -11 m 436 36 q 628 58 576 36 q 698 167 681 81 q 715 478 715 253 q 698 789 715 703 q 628 897 681 875 q 436 919 576 919 q 244 897 297 919 q 174 789 192 875 q 157 478 157 703 q 174 167 157 253 q 244 58 192 81 q 436 36 297 36 m 404 -176 l 404 -86 l 468 -86 l 468 -176 l 404 -176 m 274 1042 l 274 1049 l 404 1233 l 468 1233 l 599 1049 l 599 1042 l 561 1042 l 436 1192 l 311 1042 l 274 1042 z "},"Ồ":{"ha":872,"x_min":107,"x_max":765,"o":"m 436 -11 q 211 22 276 -11 q 126 149 146 54 q 107 478 107 244 q 126 806 107 711 q 211 934 146 901 q 436 967 276 967 q 661 934 596 967 q 746 806 726 901 q 765 478 765 711 q 746 149 765 244 q 661 22 726 54 q 436 -11 596 -11 m 436 36 q 628 58 576 36 q 698 167 681 81 q 715 478 715 253 q 698 789 715 703 q 628 897 681 875 q 436 919 576 919 q 244 897 297 919 q 174 789 192 875 q 157 478 157 703 q 174 167 157 253 q 244 58 192 81 q 436 36 297 36 m 268 1038 l 268 1044 l 399 1229 l 463 1229 l 593 1044 l 593 1038 l 556 1038 l 431 1188 l 306 1038 l 268 1038 m 564 1229 l 424 1414 l 424 1421 l 485 1421 l 600 1236 l 600 1229 l 564 1229 z "},"Ổ":{"ha":872,"x_min":107,"x_max":765,"o":"m 436 -11 q 211 22 276 -11 q 126 149 146 54 q 107 478 107 244 q 126 806 107 711 q 211 934 146 901 q 436 967 276 967 q 661 934 596 967 q 746 806 726 901 q 765 478 765 711 q 746 149 765 244 q 661 22 726 54 q 436 -11 596 -11 m 436 36 q 628 58 576 36 q 698 167 681 81 q 715 478 715 253 q 698 789 715 703 q 628 897 681 875 q 436 919 576 919 q 244 897 297 919 q 174 789 192 875 q 157 478 157 703 q 174 167 157 253 q 244 58 192 81 q 436 36 297 36 m 274 1038 l 274 1044 l 404 1229 l 468 1229 l 599 1044 l 599 1038 l 561 1038 l 436 1188 l 311 1038 l 274 1038 m 497 1244 q 509 1286 497 1274 q 553 1307 521 1299 l 582 1315 q 643 1340 629 1328 q 657 1381 657 1351 q 647 1419 657 1407 q 612 1434 636 1431 q 533 1438 588 1438 q 406 1431 485 1438 l 406 1467 q 543 1475 471 1475 q 637 1467 604 1475 q 684 1441 669 1460 q 699 1386 699 1422 q 687 1324 699 1343 q 629 1292 675 1304 l 597 1282 q 554 1268 565 1274 q 540 1256 543 1263 q 538 1231 538 1249 l 497 1231 l 497 1244 z "},"Ỗ":{"ha":872,"x_min":107,"x_max":765,"o":"m 436 -11 q 211 22 276 -11 q 126 149 146 54 q 107 478 107 244 q 126 806 107 711 q 211 934 146 901 q 436 967 276 967 q 661 934 596 967 q 746 806 726 901 q 765 478 765 711 q 746 149 765 244 q 661 22 726 54 q 436 -11 596 -11 m 436 36 q 628 58 576 36 q 698 167 681 81 q 715 478 715 253 q 698 789 715 703 q 628 897 681 875 q 436 919 576 919 q 244 897 297 919 q 174 789 192 875 q 157 478 157 703 q 174 167 157 253 q 244 58 192 81 q 436 36 297 36 m 271 1039 l 271 1046 l 401 1231 l 465 1231 l 596 1046 l 596 1039 l 558 1039 l 433 1189 l 308 1039 l 271 1039 m 647 1471 q 632 1367 647 1394 q 568 1339 617 1339 q 503 1349 536 1339 q 425 1376 471 1358 q 304 1410 347 1410 q 269 1391 278 1410 q 261 1324 261 1372 l 224 1324 q 240 1427 224 1399 q 304 1456 256 1456 q 367 1446 336 1456 q 449 1417 399 1436 q 515 1393 488 1401 q 568 1385 543 1385 q 602 1403 594 1385 q 610 1471 610 1421 l 647 1471 z "},"Ȍ":{"ha":872,"x_min":107,"x_max":765,"o":"m 436 -11 q 211 22 276 -11 q 126 149 146 54 q 107 478 107 244 q 126 806 107 711 q 211 934 146 901 q 436 967 276 967 q 661 934 596 967 q 746 806 726 901 q 765 478 765 711 q 746 149 765 244 q 661 22 726 54 q 436 -11 596 -11 m 436 36 q 628 58 576 36 q 698 167 681 81 q 715 478 715 253 q 698 789 715 703 q 628 897 681 875 q 436 919 576 919 q 244 897 297 919 q 174 789 192 875 q 157 478 157 703 q 174 167 157 253 q 244 58 192 81 q 436 36 297 36 m 353 1044 l 317 1044 l 176 1221 l 176 1228 l 239 1228 l 353 1051 l 353 1044 m 578 1044 l 542 1044 l 403 1221 l 403 1228 l 464 1228 l 578 1051 l 578 1044 z "},"Ö":{"ha":872,"x_min":107,"x_max":765,"o":"m 436 -11 q 211 22 276 -11 q 126 149 146 54 q 107 478 107 244 q 126 806 107 711 q 211 934 146 901 q 436 967 276 967 q 661 934 596 967 q 746 806 726 901 q 765 478 765 711 q 746 149 765 244 q 661 22 726 54 q 436 -11 596 -11 m 436 36 q 628 58 576 36 q 698 167 681 81 q 715 478 715 253 q 698 789 715 703 q 628 897 681 875 q 436 919 576 919 q 244 897 297 919 q 174 789 192 875 q 157 478 157 703 q 174 167 157 253 q 244 58 192 81 q 436 36 297 36 m 283 1069 l 283 1154 l 342 1154 l 342 1069 l 283 1069 m 529 1069 l 529 1154 l 588 1154 l 588 1069 l 529 1069 z "},"Ọ":{"ha":872,"x_min":107,"x_max":765,"o":"m 436 -11 q 211 22 276 -11 q 126 149 146 54 q 107 478 107 244 q 126 806 107 711 q 211 934 146 901 q 436 967 276 967 q 661 934 596 967 q 746 806 726 901 q 765 478 765 711 q 746 149 765 244 q 661 22 726 54 q 436 -11 596 -11 m 436 36 q 628 58 576 36 q 698 167 681 81 q 715 478 715 253 q 698 789 715 703 q 628 897 681 875 q 436 919 576 919 q 244 897 297 919 q 174 789 192 875 q 157 478 157 703 q 174 167 157 253 q 244 58 192 81 q 436 36 297 36 m 404 -176 l 404 -86 l 468 -86 l 468 -176 l 404 -176 z "},"Ò":{"ha":872,"x_min":107,"x_max":765,"o":"m 436 -11 q 211 22 276 -11 q 126 149 146 54 q 107 478 107 244 q 126 806 107 711 q 211 934 146 901 q 436 967 276 967 q 661 934 596 967 q 746 806 726 901 q 765 478 765 711 q 746 149 765 244 q 661 22 726 54 q 436 -11 596 -11 m 436 36 q 628 58 576 36 q 698 167 681 81 q 715 478 715 253 q 698 789 715 703 q 628 897 681 875 q 436 919 576 919 q 244 897 297 919 q 174 789 192 875 q 157 478 157 703 q 174 167 157 253 q 244 58 192 81 q 436 36 297 36 m 424 1042 l 283 1226 l 283 1233 l 344 1233 l 460 1049 l 460 1042 l 424 1042 z "},"Ỏ":{"ha":872,"x_min":107,"x_max":765,"o":"m 436 -11 q 211 22 276 -11 q 126 149 146 54 q 107 478 107 244 q 126 806 107 711 q 211 934 146 901 q 436 967 276 967 q 661 934 596 967 q 746 806 726 901 q 765 478 765 711 q 746 149 765 244 q 661 22 726 54 q 436 -11 596 -11 m 436 36 q 628 58 576 36 q 698 167 681 81 q 715 478 715 253 q 698 789 715 703 q 628 897 681 875 q 436 919 576 919 q 244 897 297 919 q 174 789 192 875 q 157 478 157 703 q 174 167 157 253 q 244 58 192 81 q 436 36 297 36 m 381 1032 q 392 1074 381 1061 q 436 1096 404 1086 l 465 1103 q 526 1127 513 1115 q 540 1168 540 1139 q 530 1206 540 1194 q 495 1222 519 1218 q 417 1225 471 1225 q 289 1219 383 1225 l 289 1256 q 426 1264 375 1264 q 520 1256 488 1264 q 567 1229 553 1249 q 582 1174 582 1210 q 570 1113 582 1132 q 513 1079 558 1093 l 481 1071 q 438 1057 450 1063 q 424 1044 426 1051 q 421 1018 421 1036 l 381 1018 l 381 1032 z "},"Ơ":{"ha":872,"x_min":107,"x_max":775,"o":"m 775 1050 q 757 949 775 976 q 686 917 739 921 q 738 835 721 888 q 760 702 754 783 q 765 478 765 621 q 746 149 765 244 q 661 22 726 54 q 436 -11 596 -11 q 211 22 276 -11 q 126 149 146 54 q 107 478 107 244 q 126 806 107 711 q 211 934 146 901 q 436 967 276 967 q 597 956 540 967 l 664 956 q 719 972 707 956 q 731 1040 731 989 l 731 1092 l 775 1092 l 775 1050 m 715 478 q 698 789 715 703 q 628 897 681 875 q 436 919 576 919 q 244 897 297 919 q 174 789 192 875 q 157 478 157 703 q 174 167 157 253 q 244 58 192 81 q 436 36 297 36 q 628 58 576 36 q 698 167 681 81 q 715 478 715 253 z "},"Ớ":{"ha":872,"x_min":107,"x_max":775,"o":"m 775 1050 q 757 949 775 976 q 686 917 739 921 q 738 835 721 888 q 760 702 754 783 q 765 478 765 621 q 746 149 765 244 q 661 22 726 54 q 436 -11 596 -11 q 211 22 276 -11 q 126 149 146 54 q 107 478 107 244 q 126 806 107 711 q 211 934 146 901 q 436 967 276 967 q 597 956 540 967 l 664 956 q 719 972 707 956 q 731 1040 731 989 l 731 1092 l 775 1092 l 775 1050 m 715 478 q 698 789 715 703 q 628 897 681 875 q 436 919 576 919 q 244 897 297 919 q 174 789 192 875 q 157 478 157 703 q 174 167 157 253 q 244 58 192 81 q 436 36 297 36 q 628 58 576 36 q 698 167 681 81 q 715 478 715 253 m 411 1042 l 411 1049 l 526 1233 l 588 1233 l 588 1226 l 447 1042 l 411 1042 z "},"Ợ":{"ha":872,"x_min":107,"x_max":775,"o":"m 775 1050 q 757 949 775 976 q 686 917 739 921 q 738 835 721 888 q 760 702 754 783 q 765 478 765 621 q 746 149 765 244 q 661 22 726 54 q 436 -11 596 -11 q 211 22 276 -11 q 126 149 146 54 q 107 478 107 244 q 126 806 107 711 q 211 934 146 901 q 436 967 276 967 q 597 956 540 967 l 664 956 q 719 972 707 956 q 731 1040 731 989 l 731 1092 l 775 1092 l 775 1050 m 715 478 q 698 789 715 703 q 628 897 681 875 q 436 919 576 919 q 244 897 297 919 q 174 789 192 875 q 157 478 157 703 q 174 167 157 253 q 244 58 192 81 q 436 36 297 36 q 628 58 576 36 q 698 167 681 81 q 715 478 715 253 m 404 -176 l 404 -86 l 468 -86 l 468 -176 l 404 -176 z "},"Ờ":{"ha":872,"x_min":107,"x_max":775,"o":"m 775 1050 q 757 949 775 976 q 686 917 739 921 q 738 835 721 888 q 760 702 754 783 q 765 478 765 621 q 746 149 765 244 q 661 22 726 54 q 436 -11 596 -11 q 211 22 276 -11 q 126 149 146 54 q 107 478 107 244 q 126 806 107 711 q 211 934 146 901 q 436 967 276 967 q 597 956 540 967 l 664 956 q 719 972 707 956 q 731 1040 731 989 l 731 1092 l 775 1092 l 775 1050 m 715 478 q 698 789 715 703 q 628 897 681 875 q 436 919 576 919 q 244 897 297 919 q 174 789 192 875 q 157 478 157 703 q 174 167 157 253 q 244 58 192 81 q 436 36 297 36 q 628 58 576 36 q 698 167 681 81 q 715 478 715 253 m 431 1042 l 290 1226 l 290 1233 l 351 1233 l 467 1049 l 467 1042 l 431 1042 z "},"Ở":{"ha":872,"x_min":107,"x_max":775,"o":"m 775 1050 q 757 949 775 976 q 686 917 739 921 q 738 835 721 888 q 760 702 754 783 q 765 478 765 621 q 746 149 765 244 q 661 22 726 54 q 436 -11 596 -11 q 211 22 276 -11 q 126 149 146 54 q 107 478 107 244 q 126 806 107 711 q 211 934 146 901 q 436 967 276 967 q 597 956 540 967 l 664 956 q 719 972 707 956 q 731 1040 731 989 l 731 1092 l 775 1092 l 775 1050 m 715 478 q 698 789 715 703 q 628 897 681 875 q 436 919 576 919 q 244 897 297 919 q 174 789 192 875 q 157 478 157 703 q 174 167 157 253 q 244 58 192 81 q 436 36 297 36 q 628 58 576 36 q 698 167 681 81 q 715 478 715 253 m 381 1032 q 392 1074 381 1061 q 436 1096 404 1086 l 465 1103 q 526 1127 513 1115 q 540 1168 540 1139 q 530 1206 540 1194 q 495 1222 519 1218 q 417 1225 471 1225 q 289 1219 383 1225 l 289 1256 q 426 1264 375 1264 q 520 1256 488 1264 q 567 1229 553 1249 q 582 1174 582 1210 q 570 1113 582 1132 q 513 1079 558 1093 l 481 1071 q 438 1057 450 1063 q 424 1044 426 1051 q 421 1018 421 1036 l 381 1018 l 381 1032 z "},"Ỡ":{"ha":872,"x_min":107,"x_max":775,"o":"m 775 1050 q 757 949 775 976 q 686 917 739 921 q 738 835 721 888 q 760 702 754 783 q 765 478 765 621 q 746 149 765 244 q 661 22 726 54 q 436 -11 596 -11 q 211 22 276 -11 q 126 149 146 54 q 107 478 107 244 q 126 806 107 711 q 211 934 146 901 q 436 967 276 967 q 597 956 540 967 l 664 956 q 719 972 707 956 q 731 1040 731 989 l 731 1092 l 775 1092 l 775 1050 m 715 478 q 698 789 715 703 q 628 897 681 875 q 436 919 576 919 q 244 897 297 919 q 174 789 192 875 q 157 478 157 703 q 174 167 157 253 q 244 58 192 81 q 436 36 297 36 q 628 58 576 36 q 698 167 681 81 q 715 478 715 253 m 647 1233 q 632 1129 647 1157 q 568 1101 617 1101 q 503 1111 536 1101 q 425 1139 471 1121 q 304 1172 347 1172 q 269 1153 278 1172 q 261 1086 261 1135 l 224 1086 q 240 1190 224 1161 q 304 1218 256 1218 q 367 1208 336 1218 q 449 1179 399 1199 q 515 1156 488 1164 q 568 1147 543 1147 q 602 1165 594 1147 q 610 1233 610 1183 l 647 1233 z "},"Ő":{"ha":872,"x_min":107,"x_max":765,"o":"m 436 -11 q 211 22 276 -11 q 126 149 146 54 q 107 478 107 244 q 126 806 107 711 q 211 934 146 901 q 436 967 276 967 q 661 934 596 967 q 746 806 726 901 q 765 478 765 711 q 746 149 765 244 q 661 22 726 54 q 436 -11 596 -11 m 436 36 q 628 58 576 36 q 698 167 681 81 q 715 478 715 253 q 698 789 715 703 q 628 897 681 875 q 436 919 576 919 q 244 897 297 919 q 174 789 192 875 q 157 478 157 703 q 174 167 157 253 q 244 58 192 81 q 436 36 297 36 m 306 1044 l 306 1051 l 419 1228 l 481 1228 l 481 1221 l 342 1044 l 306 1044 m 531 1044 l 531 1051 l 644 1228 l 707 1228 l 707 1221 l 567 1044 l 531 1044 z "},"Ȏ":{"ha":872,"x_min":107,"x_max":765,"o":"m 436 -11 q 211 22 276 -11 q 126 149 146 54 q 107 478 107 244 q 126 806 107 711 q 211 934 146 901 q 436 967 276 967 q 661 934 596 967 q 746 806 726 901 q 765 478 765 711 q 746 149 765 244 q 661 22 726 54 q 436 -11 596 -11 m 436 36 q 628 58 576 36 q 698 167 681 81 q 715 478 715 253 q 698 789 715 703 q 628 897 681 875 q 436 919 576 919 q 244 897 297 919 q 174 789 192 875 q 157 478 157 703 q 174 167 157 253 q 244 58 192 81 q 436 36 297 36 m 275 1046 q 283 1156 275 1118 q 326 1218 292 1194 q 438 1242 361 1242 q 549 1218 514 1242 q 591 1156 583 1194 q 599 1046 599 1118 l 554 1046 q 549 1139 554 1108 q 518 1186 543 1169 q 438 1203 493 1203 q 356 1186 382 1203 q 325 1139 331 1169 q 319 1046 319 1108 l 275 1046 z "},"Ō":{"ha":872,"x_min":107,"x_max":765,"o":"m 436 -11 q 211 22 276 -11 q 126 149 146 54 q 107 478 107 244 q 126 806 107 711 q 211 934 146 901 q 436 967 276 967 q 661 934 596 967 q 746 806 726 901 q 765 478 765 711 q 746 149 765 244 q 661 22 726 54 q 436 -11 596 -11 m 436 36 q 628 58 576 36 q 698 167 681 81 q 715 478 715 253 q 698 789 715 703 q 628 897 681 875 q 436 919 576 919 q 244 897 297 919 q 174 789 192 875 q 157 478 157 703 q 174 167 157 253 q 244 58 192 81 q 436 36 297 36 m 292 1182 l 292 1232 l 578 1232 l 578 1182 l 292 1182 z "},"Ǫ":{"ha":872,"x_min":107,"x_max":765,"o":"m 604 -272 q 524 -245 550 -272 q 499 -176 499 -218 q 523 -88 499 -133 q 590 -1 547 -43 q 436 -11 533 -11 q 211 22 276 -11 q 126 149 146 54 q 107 478 107 244 q 126 806 107 711 q 211 934 146 901 q 436 967 276 967 q 661 934 596 967 q 746 806 726 901 q 765 478 765 711 q 759 238 765 322 q 733 103 753 154 q 669 25 713 51 q 583 -61 621 -4 q 546 -167 546 -118 q 562 -210 546 -193 q 611 -228 578 -228 l 635 -226 l 635 -271 q 604 -272 622 -272 m 436 36 q 628 58 576 36 q 698 167 681 81 q 715 478 715 253 q 698 789 715 703 q 628 897 681 875 q 436 919 576 919 q 244 897 297 919 q 174 789 192 875 q 157 478 157 703 q 174 167 157 253 q 244 58 192 81 q 436 36 297 36 z "},"Ø":{"ha":872,"x_min":107,"x_max":765,"o":"m 697 907 q 753 770 740 863 q 765 478 765 678 q 746 149 765 244 q 661 22 726 54 q 436 -11 596 -11 q 299 -4 353 -11 q 211 22 246 3 l 157 -76 l 107 -76 l 175 49 q 119 185 132 93 q 107 478 107 278 q 126 806 107 711 q 211 934 146 901 q 436 967 276 967 q 572 960 519 967 q 660 935 625 953 l 714 1032 l 765 1032 l 697 907 m 157 478 q 165 217 157 301 q 200 94 174 133 l 638 893 q 566 915 610 910 q 436 919 522 919 q 244 897 297 919 q 174 789 192 875 q 157 478 157 703 m 715 478 q 707 738 715 654 q 672 861 699 822 l 233 63 q 306 41 263 46 q 436 36 350 36 q 628 58 576 36 q 698 167 681 81 q 715 478 715 253 z "},"Ǿ":{"ha":872,"x_min":107,"x_max":765,"o":"m 697 907 q 753 770 740 863 q 765 478 765 678 q 746 149 765 244 q 661 22 726 54 q 436 -11 596 -11 q 299 -4 353 -11 q 211 22 246 3 l 157 -76 l 107 -76 l 175 49 q 119 185 132 93 q 107 478 107 278 q 126 806 107 711 q 211 934 146 901 q 436 967 276 967 q 572 960 519 967 q 660 935 625 953 l 714 1032 l 765 1032 l 697 907 m 157 478 q 165 217 157 301 q 200 94 174 133 l 638 893 q 566 915 610 910 q 436 919 522 919 q 244 897 297 919 q 174 789 192 875 q 157 478 157 703 m 715 478 q 707 738 715 654 q 672 861 699 822 l 233 63 q 306 41 263 46 q 436 36 350 36 q 628 58 576 36 q 698 167 681 81 q 715 478 715 253 m 411 1042 l 411 1049 l 526 1233 l 588 1233 l 588 1226 l 447 1042 l 411 1042 z "},"Õ":{"ha":872,"x_min":107,"x_max":765,"o":"m 436 -11 q 211 22 276 -11 q 126 149 146 54 q 107 478 107 244 q 126 806 107 711 q 211 934 146 901 q 436 967 276 967 q 661 934 596 967 q 746 806 726 901 q 765 478 765 711 q 746 149 765 244 q 661 22 726 54 q 436 -11 596 -11 m 436 36 q 628 58 576 36 q 698 167 681 81 q 715 478 715 253 q 698 789 715 703 q 628 897 681 875 q 436 919 576 919 q 244 897 297 919 q 174 789 192 875 q 157 478 157 703 q 174 167 157 253 q 244 58 192 81 q 436 36 297 36 m 647 1189 q 632 1085 647 1113 q 568 1057 617 1057 q 503 1067 536 1057 q 425 1094 471 1076 q 304 1128 347 1128 q 269 1109 278 1128 q 261 1042 261 1090 l 224 1042 q 240 1145 224 1117 q 304 1174 256 1174 q 367 1164 336 1174 q 449 1135 399 1154 q 515 1111 488 1119 q 568 1103 543 1103 q 602 1121 594 1103 q 610 1189 610 1139 l 647 1189 z "},"Œ":{"ha":1278,"x_min":107,"x_max":1211,"o":"m 436 0 q 211 32 276 0 q 126 157 146 64 q 107 478 107 250 q 126 799 107 706 q 211 924 146 892 q 436 956 276 956 l 1211 956 l 1211 908 l 765 908 q 674 914 710 908 q 732 838 713 888 q 758 713 751 789 q 765 507 764 636 l 1154 507 l 1154 460 l 765 460 q 758 247 764 324 q 732 119 751 169 q 674 42 713 68 q 765 47 710 47 l 1211 47 l 1211 0 l 436 0 m 436 47 q 628 69 576 47 q 698 174 681 90 q 715 478 715 258 q 698 781 715 697 q 628 887 681 865 q 436 908 576 908 q 244 886 297 908 q 174 781 192 864 q 157 478 157 697 q 174 175 157 258 q 244 69 192 92 q 436 47 297 47 z "},"P":{"ha":782,"x_min":138,"x_max":710,"o":"m 138 956 l 474 956 q 632 917 581 956 q 697 821 683 879 q 710 668 710 763 q 696 516 710 575 q 631 419 682 457 q 474 381 579 381 l 188 381 l 188 0 l 138 0 l 138 956 m 471 428 q 596 456 556 428 q 648 533 636 483 q 660 668 660 582 q 649 804 660 756 q 598 881 639 853 q 471 908 557 908 l 188 908 l 188 428 l 471 428 z "},"Þ":{"ha":782,"x_min":138,"x_max":710,"o":"m 138 956 l 188 956 l 188 774 l 474 774 q 632 735 581 774 q 697 639 683 697 q 710 486 710 581 q 696 334 710 393 q 631 237 682 275 q 474 199 579 199 l 188 199 l 188 0 l 138 0 l 138 956 m 471 246 q 596 274 556 246 q 648 351 636 301 q 660 486 660 400 q 649 622 660 574 q 598 699 639 671 q 471 726 557 726 l 188 726 l 188 246 l 471 246 z "},"Q":{"ha":872,"x_min":107,"x_max":781,"o":"m 781 -157 l 781 -160 l 722 -160 l 614 4 q 436 -11 558 -11 q 211 22 276 -11 q 126 149 146 54 q 107 478 107 244 q 126 806 107 711 q 211 934 146 901 q 436 967 276 967 q 661 934 596 967 q 746 806 726 901 q 765 478 765 711 q 758 234 765 319 q 729 97 751 149 q 661 21 707 46 l 781 -157 m 436 36 q 521 38 481 36 q 586 44 561 39 l 414 303 l 471 303 l 633 61 q 685 126 668 81 q 709 251 703 171 q 715 478 715 332 q 698 789 715 703 q 628 897 681 875 q 436 919 576 919 q 244 897 297 919 q 174 789 192 875 q 157 478 157 703 q 174 167 157 253 q 244 58 192 81 q 436 36 297 36 z "},"R":{"ha":824,"x_min":138,"x_max":731,"o":"m 676 0 l 529 411 q 479 408 513 408 l 188 408 l 188 0 l 138 0 l 138 956 l 493 956 q 644 919 594 956 q 707 826 694 882 q 719 682 719 769 q 710 563 719 611 q 671 475 701 514 q 579 419 640 436 l 731 0 l 676 0 m 476 456 q 604 483 563 456 q 658 556 646 510 q 669 682 669 603 q 659 808 669 763 q 610 881 649 854 q 490 908 572 908 l 188 908 l 188 456 l 476 456 z "},"Ŕ":{"ha":824,"x_min":138,"x_max":731,"o":"m 676 0 l 529 411 q 479 408 513 408 l 188 408 l 188 0 l 138 0 l 138 956 l 493 956 q 644 919 594 956 q 707 826 694 882 q 719 682 719 769 q 710 563 719 611 q 671 475 701 514 q 579 419 640 436 l 731 0 l 676 0 m 476 456 q 604 483 563 456 q 658 556 646 510 q 669 682 669 603 q 659 808 669 763 q 610 881 649 854 q 490 908 572 908 l 188 908 l 188 456 l 476 456 m 388 1042 l 388 1049 l 503 1233 l 564 1233 l 564 1226 l 424 1042 l 388 1042 z "},"Ř":{"ha":824,"x_min":138,"x_max":731,"o":"m 676 0 l 529 411 q 479 408 513 408 l 188 408 l 188 0 l 138 0 l 138 956 l 493 956 q 644 919 594 956 q 707 826 694 882 q 719 682 719 769 q 710 563 719 611 q 671 475 701 514 q 579 419 640 436 l 731 0 l 676 0 m 476 456 q 604 483 563 456 q 658 556 646 510 q 669 682 669 603 q 659 808 669 763 q 610 881 649 854 q 490 908 572 908 l 188 908 l 188 456 l 476 456 m 381 1042 l 250 1226 l 250 1233 l 288 1233 l 413 1083 l 538 1233 l 575 1233 l 575 1226 l 444 1042 l 381 1042 z "},"Ŗ":{"ha":824,"x_min":138,"x_max":731,"o":"m 676 0 l 529 411 q 479 408 513 408 l 188 408 l 188 0 l 138 0 l 138 956 l 493 956 q 644 919 594 956 q 707 826 694 882 q 719 682 719 769 q 710 563 719 611 q 671 475 701 514 q 579 419 640 436 l 731 0 l 676 0 m 476 456 q 604 483 563 456 q 658 556 646 510 q 669 682 669 603 q 659 808 669 763 q 610 881 649 854 q 490 908 572 908 l 188 908 l 188 456 l 476 456 m 360 -287 q 404 -280 390 -287 q 422 -255 418 -272 q 426 -200 426 -237 l 426 -176 l 399 -176 l 399 -86 l 465 -86 l 465 -190 q 456 -268 465 -242 q 425 -306 447 -294 q 360 -317 403 -317 l 360 -287 z "},"Ȑ":{"ha":824,"x_min":138,"x_max":731,"o":"m 676 0 l 529 411 q 479 408 513 408 l 188 408 l 188 0 l 138 0 l 138 956 l 493 956 q 644 919 594 956 q 707 826 694 882 q 719 682 719 769 q 710 563 719 611 q 671 475 701 514 q 579 419 640 436 l 731 0 l 676 0 m 476 456 q 604 483 563 456 q 658 556 646 510 q 669 682 669 603 q 659 808 669 763 q 610 881 649 854 q 490 908 572 908 l 188 908 l 188 456 l 476 456 m 329 1044 l 293 1044 l 153 1221 l 153 1228 l 215 1228 l 329 1051 l 329 1044 m 554 1044 l 518 1044 l 379 1221 l 379 1228 l 440 1228 l 554 1051 l 554 1044 z "},"Ṛ":{"ha":824,"x_min":138,"x_max":731,"o":"m 676 0 l 529 411 q 479 408 513 408 l 188 408 l 188 0 l 138 0 l 138 956 l 493 956 q 644 919 594 956 q 707 826 694 882 q 719 682 719 769 q 710 563 719 611 q 671 475 701 514 q 579 419 640 436 l 731 0 l 676 0 m 476 456 q 604 483 563 456 q 658 556 646 510 q 669 682 669 603 q 659 808 669 763 q 610 881 649 854 q 490 908 572 908 l 188 908 l 188 456 l 476 456 m 381 -176 l 381 -86 l 444 -86 l 444 -176 l 381 -176 z "},"Ȓ":{"ha":824,"x_min":138,"x_max":731,"o":"m 676 0 l 529 411 q 479 408 513 408 l 188 408 l 188 0 l 138 0 l 138 956 l 493 956 q 644 919 594 956 q 707 826 694 882 q 719 682 719 769 q 710 563 719 611 q 671 475 701 514 q 579 419 640 436 l 731 0 l 676 0 m 476 456 q 604 483 563 456 q 658 556 646 510 q 669 682 669 603 q 659 808 669 763 q 610 881 649 854 q 490 908 572 908 l 188 908 l 188 456 l 476 456 m 251 1046 q 260 1156 251 1118 q 303 1218 268 1194 q 414 1242 338 1242 q 525 1218 490 1242 q 567 1156 560 1194 q 575 1046 575 1118 l 531 1046 q 525 1139 531 1108 q 494 1186 519 1169 q 414 1203 469 1203 q 333 1186 358 1203 q 301 1139 307 1169 q 296 1046 296 1108 l 251 1046 z "},"S":{"ha":756,"x_min":90,"x_max":665,"o":"m 392 -11 q 249 -6 326 -11 q 115 6 171 -1 l 115 54 q 251 42 175 47 q 376 36 326 36 q 487 43 446 36 q 561 72 528 50 q 604 137 593 92 q 615 254 615 182 q 608 385 615 350 q 571 435 600 419 q 461 460 542 450 l 243 486 q 138 523 171 494 q 98 593 106 551 q 90 715 90 635 q 119 867 90 813 q 211 944 149 922 q 381 967 274 967 q 518 962 450 967 q 622 949 586 957 l 622 903 q 507 915 574 910 q 386 919 440 919 q 262 908 310 919 q 186 874 214 897 q 150 811 160 850 q 140 713 140 772 q 149 605 140 639 q 181 556 157 571 q 258 533 206 540 l 464 508 q 560 492 525 501 q 619 464 594 483 q 654 407 643 444 q 663 354 661 385 q 665 261 665 324 q 636 91 665 150 q 549 10 607 32 q 392 -11 492 -11 z "},"Ś":{"ha":756,"x_min":90,"x_max":665,"o":"m 392 -11 q 249 -6 326 -11 q 115 6 171 -1 l 115 54 q 251 42 175 47 q 376 36 326 36 q 487 43 446 36 q 561 72 528 50 q 604 137 593 92 q 615 254 615 182 q 608 385 615 350 q 571 435 600 419 q 461 460 542 450 l 243 486 q 138 523 171 494 q 98 593 106 551 q 90 715 90 635 q 119 867 90 813 q 211 944 149 922 q 381 967 274 967 q 518 962 450 967 q 622 949 586 957 l 622 903 q 507 915 574 910 q 386 919 440 919 q 262 908 310 919 q 186 874 214 897 q 150 811 160 850 q 140 713 140 772 q 149 605 140 639 q 181 556 157 571 q 258 533 206 540 l 464 508 q 560 492 525 501 q 619 464 594 483 q 654 407 643 444 q 663 354 661 385 q 665 261 665 324 q 636 91 665 150 q 549 10 607 32 q 392 -11 492 -11 m 353 1042 l 353 1049 l 468 1233 l 529 1233 l 529 1226 l 389 1042 l 353 1042 z "},"Ꞌ":{"ha":133,"x_min":40,"x_max":94,"o":"m 40 408 l 40 956 l 94 956 l 94 708 l 72 408 l 40 408 z "},"Š":{"ha":756,"x_min":90,"x_max":665,"o":"m 392 -11 q 249 -6 326 -11 q 115 6 171 -1 l 115 54 q 251 42 175 47 q 376 36 326 36 q 487 43 446 36 q 561 72 528 50 q 604 137 593 92 q 615 254 615 182 q 608 385 615 350 q 571 435 600 419 q 461 460 542 450 l 243 486 q 138 523 171 494 q 98 593 106 551 q 90 715 90 635 q 119 867 90 813 q 211 944 149 922 q 381 967 274 967 q 518 962 450 967 q 622 949 586 957 l 622 903 q 507 915 574 910 q 386 919 440 919 q 262 908 310 919 q 186 874 214 897 q 150 811 160 850 q 140 713 140 772 q 149 605 140 639 q 181 556 157 571 q 258 533 206 540 l 464 508 q 560 492 525 501 q 619 464 594 483 q 654 407 643 444 q 663 354 661 385 q 665 261 665 324 q 636 91 665 150 q 549 10 607 32 q 392 -11 492 -11 m 356 1042 l 225 1226 l 225 1233 l 263 1233 l 388 1083 l 513 1233 l 550 1233 l 550 1226 l 419 1042 l 356 1042 z "},"Ş":{"ha":756,"x_min":90,"x_max":665,"o":"m 665 261 q 636 91 665 150 q 549 10 607 32 q 393 -11 492 -11 l 336 -264 l 281 -264 l 281 -257 l 354 -11 q 115 6 226 -8 l 115 54 q 251 42 175 47 q 376 36 326 36 q 487 43 446 36 q 561 72 528 50 q 604 137 593 92 q 615 254 615 182 q 608 385 615 350 q 571 435 600 419 q 461 460 542 450 l 243 486 q 138 523 171 494 q 98 593 106 551 q 90 715 90 635 q 119 867 90 813 q 211 944 149 922 q 381 967 274 967 q 518 962 450 967 q 622 949 586 957 l 622 903 q 507 915 574 910 q 386 919 440 919 q 262 908 310 919 q 186 874 214 897 q 150 811 160 850 q 140 713 140 772 q 149 605 140 639 q 181 556 157 571 q 258 533 206 540 l 464 508 q 560 492 525 501 q 619 464 594 483 q 654 407 643 444 q 663 354 661 385 q 665 261 665 324 z "},"Ŝ":{"ha":756,"x_min":90,"x_max":665,"o":"m 392 -11 q 249 -6 326 -11 q 115 6 171 -1 l 115 54 q 251 42 175 47 q 376 36 326 36 q 487 43 446 36 q 561 72 528 50 q 604 137 593 92 q 615 254 615 182 q 608 385 615 350 q 571 435 600 419 q 461 460 542 450 l 243 486 q 138 523 171 494 q 98 593 106 551 q 90 715 90 635 q 119 867 90 813 q 211 944 149 922 q 381 967 274 967 q 518 962 450 967 q 622 949 586 957 l 622 903 q 507 915 574 910 q 386 919 440 919 q 262 908 310 919 q 186 874 214 897 q 150 811 160 850 q 140 713 140 772 q 149 605 140 639 q 181 556 157 571 q 258 533 206 540 l 464 508 q 560 492 525 501 q 619 464 594 483 q 654 407 643 444 q 663 354 661 385 q 665 261 665 324 q 636 91 665 150 q 549 10 607 32 q 392 -11 492 -11 m 215 1042 l 215 1049 l 346 1233 l 410 1233 l 540 1049 l 540 1042 l 503 1042 l 378 1192 l 253 1042 l 215 1042 z "},"Ș":{"ha":756,"x_min":90,"x_max":665,"o":"m 392 -11 q 249 -6 326 -11 q 115 6 171 -1 l 115 54 q 251 42 175 47 q 376 36 326 36 q 487 43 446 36 q 561 72 528 50 q 604 137 593 92 q 615 254 615 182 q 608 385 615 350 q 571 435 600 419 q 461 460 542 450 l 243 486 q 138 523 171 494 q 98 593 106 551 q 90 715 90 635 q 119 867 90 813 q 211 944 149 922 q 381 967 274 967 q 518 962 450 967 q 622 949 586 957 l 622 903 q 507 915 574 910 q 386 919 440 919 q 262 908 310 919 q 186 874 214 897 q 150 811 160 850 q 140 713 140 772 q 149 605 140 639 q 181 556 157 571 q 258 533 206 540 l 464 508 q 560 492 525 501 q 619 464 594 483 q 654 407 643 444 q 663 354 661 385 q 665 261 665 324 q 636 91 665 150 q 549 10 607 32 q 392 -11 492 -11 m 325 -287 q 369 -280 356 -287 q 388 -255 383 -272 q 392 -200 392 -237 l 392 -176 l 364 -176 l 364 -86 l 431 -86 l 431 -190 q 422 -268 431 -242 q 390 -306 413 -294 q 325 -317 368 -317 l 325 -287 z "},"Ṣ":{"ha":756,"x_min":90,"x_max":665,"o":"m 392 -11 q 249 -6 326 -11 q 115 6 171 -1 l 115 54 q 251 42 175 47 q 376 36 326 36 q 487 43 446 36 q 561 72 528 50 q 604 137 593 92 q 615 254 615 182 q 608 385 615 350 q 571 435 600 419 q 461 460 542 450 l 243 486 q 138 523 171 494 q 98 593 106 551 q 90 715 90 635 q 119 867 90 813 q 211 944 149 922 q 381 967 274 967 q 518 962 450 967 q 622 949 586 957 l 622 903 q 507 915 574 910 q 386 919 440 919 q 262 908 310 919 q 186 874 214 897 q 150 811 160 850 q 140 713 140 772 q 149 605 140 639 q 181 556 157 571 q 258 533 206 540 l 464 508 q 560 492 525 501 q 619 464 594 483 q 654 407 643 444 q 663 354 661 385 q 665 261 665 324 q 636 91 665 150 q 549 10 607 32 q 392 -11 492 -11 m 346 -176 l 346 -86 l 410 -86 l 410 -176 l 346 -176 z "},"ẞ":{"ha":882,"x_min":125,"x_max":782,"o":"m 551 507 q 725 445 668 507 q 782 251 782 383 q 721 52 782 115 q 507 -11 660 -11 q 403 -6 461 -11 q 304 8 346 0 l 304 53 q 513 36 424 36 q 640 55 593 36 q 710 119 688 74 q 732 249 732 165 q 692 411 732 361 q 558 461 651 461 l 415 461 l 415 494 l 664 876 q 536 910 597 900 q 400 919 475 919 q 249 891 294 919 q 190 779 204 863 q 175 500 175 696 l 175 0 l 125 0 l 125 500 q 145 797 125 701 q 220 930 165 893 q 389 967 275 967 q 569 949 485 967 q 715 906 654 932 l 715 867 l 479 507 l 551 507 z "},"Ə":{"ha":854,"x_min":107,"x_max":747,"o":"m 410 967 q 630 935 563 967 q 722 803 697 903 q 747 478 747 704 q 728 149 747 244 q 646 22 710 54 q 426 -11 582 -11 q 208 22 271 -11 q 126 149 144 54 q 107 478 107 244 l 107 507 l 697 507 q 676 786 696 704 q 597 894 656 868 q 394 919 538 919 q 291 913 347 919 q 196 896 235 906 l 196 943 q 297 960 236 953 q 410 967 357 967 m 426 36 q 610 58 560 36 q 678 163 661 79 q 697 460 696 246 l 157 460 q 176 163 158 246 q 243 58 193 79 q 426 36 293 36 z "},"T":{"ha":694,"x_min":44,"x_max":650,"o":"m 322 0 l 322 908 l 44 908 l 44 956 l 650 956 l 650 908 l 372 908 l 372 0 l 322 0 z "},"Ŧ":{"ha":694,"x_min":44,"x_max":650,"o":"m 650 908 l 372 908 l 372 518 l 607 518 l 607 474 l 372 474 l 372 0 l 322 0 l 322 474 l 88 474 l 88 518 l 322 518 l 322 908 l 44 908 l 44 956 l 650 956 l 650 908 z "},"Ť":{"ha":694,"x_min":44,"x_max":650,"o":"m 322 0 l 322 908 l 44 908 l 44 956 l 650 956 l 650 908 l 372 908 l 372 0 l 322 0 m 315 1042 l 185 1226 l 185 1233 l 222 1233 l 347 1083 l 472 1233 l 510 1233 l 510 1226 l 379 1042 l 315 1042 z "},"Ţ":{"ha":694,"x_min":44,"x_max":650,"o":"m 44 956 l 650 956 l 650 908 l 372 908 l 372 0 l 365 0 l 306 -264 l 250 -264 l 250 -257 l 328 0 l 322 0 l 322 908 l 44 908 l 44 956 z "},"Ț":{"ha":694,"x_min":44,"x_max":650,"o":"m 322 0 l 322 908 l 44 908 l 44 956 l 650 956 l 650 908 l 372 908 l 372 0 l 322 0 m 294 -287 q 339 -280 325 -287 q 357 -255 353 -272 q 361 -200 361 -237 l 361 -176 l 333 -176 l 333 -86 l 400 -86 l 400 -190 q 391 -268 400 -242 q 360 -306 382 -294 q 294 -317 338 -317 l 294 -287 z "},"Ṭ":{"ha":694,"x_min":44,"x_max":650,"o":"m 322 0 l 322 908 l 44 908 l 44 956 l 650 956 l 650 908 l 372 908 l 372 0 l 322 0 m 315 -176 l 315 -86 l 379 -86 l 379 -176 l 315 -176 z "},"U":{"ha":863,"x_min":125,"x_max":738,"o":"m 738 956 l 738 408 q 719 142 738 225 q 637 24 700 58 q 432 -11 574 -11 q 226 24 290 -11 q 144 142 163 58 q 125 408 125 226 l 125 956 l 175 956 l 175 367 q 190 155 175 219 q 258 63 206 90 q 432 36 311 36 q 606 63 553 36 q 673 155 658 90 q 688 367 688 219 l 688 956 l 738 956 z "},"Ú":{"ha":863,"x_min":125,"x_max":738,"o":"m 738 956 l 738 408 q 719 142 738 225 q 637 24 700 58 q 432 -11 574 -11 q 226 24 290 -11 q 144 142 163 58 q 125 408 125 226 l 125 956 l 175 956 l 175 367 q 190 155 175 219 q 258 63 206 90 q 432 36 311 36 q 606 63 553 36 q 673 155 658 90 q 688 367 688 219 l 688 956 l 738 956 m 397 1042 l 397 1049 l 513 1233 l 574 1233 l 574 1226 l 433 1042 l 397 1042 z "},"Ŭ":{"ha":863,"x_min":125,"x_max":738,"o":"m 738 956 l 738 408 q 719 142 738 225 q 637 24 700 58 q 432 -11 574 -11 q 226 24 290 -11 q 144 142 163 58 q 125 408 125 226 l 125 956 l 175 956 l 175 367 q 190 155 175 219 q 258 63 206 90 q 432 36 311 36 q 606 63 553 36 q 673 155 658 90 q 688 367 688 219 l 688 956 l 738 956 m 593 1233 q 585 1123 593 1161 q 542 1061 576 1085 q 431 1038 507 1038 q 319 1061 354 1038 q 277 1123 285 1085 q 269 1233 269 1161 l 314 1233 q 319 1140 314 1171 q 350 1093 325 1110 q 431 1076 375 1076 q 512 1093 486 1076 q 543 1140 538 1110 q 549 1233 549 1171 l 593 1233 z "},"Ǔ":{"ha":863,"x_min":125,"x_max":738,"o":"m 738 956 l 738 408 q 719 142 738 225 q 637 24 700 58 q 432 -11 574 -11 q 226 24 290 -11 q 144 142 163 58 q 125 408 125 226 l 125 956 l 175 956 l 175 367 q 190 155 175 219 q 258 63 206 90 q 432 36 311 36 q 606 63 553 36 q 673 155 658 90 q 688 367 688 219 l 688 956 l 738 956 m 400 1042 l 269 1226 l 269 1233 l 307 1233 l 432 1083 l 557 1233 l 594 1233 l 594 1226 l 464 1042 l 400 1042 z "},"Û":{"ha":863,"x_min":125,"x_max":738,"o":"m 738 956 l 738 408 q 719 142 738 225 q 637 24 700 58 q 432 -11 574 -11 q 226 24 290 -11 q 144 142 163 58 q 125 408 125 226 l 125 956 l 175 956 l 175 367 q 190 155 175 219 q 258 63 206 90 q 432 36 311 36 q 606 63 553 36 q 673 155 658 90 q 688 367 688 219 l 688 956 l 738 956 m 268 1042 l 268 1049 l 399 1233 l 463 1233 l 593 1049 l 593 1042 l 556 1042 l 431 1192 l 306 1042 l 268 1042 z "},"Ȕ":{"ha":863,"x_min":125,"x_max":738,"o":"m 738 956 l 738 408 q 719 142 738 225 q 637 24 700 58 q 432 -11 574 -11 q 226 24 290 -11 q 144 142 163 58 q 125 408 125 226 l 125 956 l 175 956 l 175 367 q 190 155 175 219 q 258 63 206 90 q 432 36 311 36 q 606 63 553 36 q 673 155 658 90 q 688 367 688 219 l 688 956 l 738 956 m 349 1044 l 313 1044 l 172 1221 l 172 1228 l 235 1228 l 349 1051 l 349 1044 m 574 1044 l 538 1044 l 399 1221 l 399 1228 l 460 1228 l 574 1051 l 574 1044 z "},"Ü":{"ha":863,"x_min":125,"x_max":738,"o":"m 738 956 l 738 408 q 719 142 738 225 q 637 24 700 58 q 432 -11 574 -11 q 226 24 290 -11 q 144 142 163 58 q 125 408 125 226 l 125 956 l 175 956 l 175 367 q 190 155 175 219 q 258 63 206 90 q 432 36 311 36 q 606 63 553 36 q 673 155 658 90 q 688 367 688 219 l 688 956 l 738 956 m 279 1069 l 279 1154 l 338 1154 l 338 1069 l 279 1069 m 525 1069 l 525 1154 l 583 1154 l 583 1069 l 525 1069 z "},"Ǘ":{"ha":863,"x_min":125,"x_max":738,"o":"m 738 956 l 738 408 q 719 142 738 225 q 637 24 700 58 q 432 -11 574 -11 q 226 24 290 -11 q 144 142 163 58 q 125 408 125 226 l 125 956 l 175 956 l 175 367 q 190 155 175 219 q 258 63 206 90 q 432 36 311 36 q 606 63 553 36 q 673 155 658 90 q 688 367 688 219 l 688 956 l 738 956 m 279 1132 l 279 1217 l 338 1217 l 338 1132 l 279 1132 m 525 1132 l 525 1217 l 583 1217 l 583 1132 l 525 1132 m 410 1219 l 410 1226 l 525 1411 l 586 1411 l 586 1404 l 446 1219 l 410 1219 z "},"Ǚ":{"ha":863,"x_min":125,"x_max":738,"o":"m 738 956 l 738 408 q 719 142 738 225 q 637 24 700 58 q 432 -11 574 -11 q 226 24 290 -11 q 144 142 163 58 q 125 408 125 226 l 125 956 l 175 956 l 175 367 q 190 155 175 219 q 258 63 206 90 q 432 36 311 36 q 606 63 553 36 q 673 155 658 90 q 688 367 688 219 l 688 956 l 738 956 m 279 1132 l 279 1217 l 338 1217 l 338 1132 l 279 1132 m 525 1132 l 525 1217 l 583 1217 l 583 1132 l 525 1132 m 403 1219 l 272 1404 l 272 1411 l 310 1411 l 435 1261 l 560 1411 l 597 1411 l 597 1404 l 467 1219 l 403 1219 z "},"Ǜ":{"ha":863,"x_min":125,"x_max":738,"o":"m 738 956 l 738 408 q 719 142 738 225 q 637 24 700 58 q 432 -11 574 -11 q 226 24 290 -11 q 144 142 163 58 q 125 408 125 226 l 125 956 l 175 956 l 175 367 q 190 155 175 219 q 258 63 206 90 q 432 36 311 36 q 606 63 553 36 q 673 155 658 90 q 688 367 688 219 l 688 956 l 738 956 m 279 1132 l 279 1217 l 338 1217 l 338 1132 l 279 1132 m 525 1132 l 525 1217 l 583 1217 l 583 1132 l 525 1132 m 429 1219 l 289 1404 l 289 1411 l 350 1411 l 465 1226 l 465 1219 l 429 1219 z "},"Ǖ":{"ha":863,"x_min":125,"x_max":738,"o":"m 738 956 l 738 408 q 719 142 738 225 q 637 24 700 58 q 432 -11 574 -11 q 226 24 290 -11 q 144 142 163 58 q 125 408 125 226 l 125 956 l 175 956 l 175 367 q 190 155 175 219 q 258 63 206 90 q 432 36 311 36 q 606 63 553 36 q 673 155 658 90 q 688 367 688 219 l 688 956 l 738 956 m 279 1132 l 279 1217 l 338 1217 l 338 1132 l 279 1132 m 525 1132 l 525 1217 l 583 1217 l 583 1132 l 525 1132 m 290 1360 l 290 1410 l 576 1410 l 576 1360 l 290 1360 z "},"Ụ":{"ha":863,"x_min":125,"x_max":738,"o":"m 738 956 l 738 408 q 719 142 738 225 q 637 24 700 58 q 432 -11 574 -11 q 226 24 290 -11 q 144 142 163 58 q 125 408 125 226 l 125 956 l 175 956 l 175 367 q 190 155 175 219 q 258 63 206 90 q 432 36 311 36 q 606 63 553 36 q 673 155 658 90 q 688 367 688 219 l 688 956 l 738 956 m 400 -176 l 400 -86 l 464 -86 l 464 -176 l 400 -176 z "},"Ù":{"ha":863,"x_min":125,"x_max":738,"o":"m 738 956 l 738 408 q 719 142 738 225 q 637 24 700 58 q 432 -11 574 -11 q 226 24 290 -11 q 144 142 163 58 q 125 408 125 226 l 125 956 l 175 956 l 175 367 q 190 155 175 219 q 258 63 206 90 q 432 36 311 36 q 606 63 553 36 q 673 155 658 90 q 688 367 688 219 l 688 956 l 738 956 m 446 1042 l 306 1226 l 306 1233 l 367 1233 l 482 1049 l 482 1042 l 446 1042 z "},"Ủ":{"ha":863,"x_min":125,"x_max":738,"o":"m 738 956 l 738 408 q 719 142 738 225 q 637 24 700 58 q 432 -11 574 -11 q 226 24 290 -11 q 144 142 163 58 q 125 408 125 226 l 125 956 l 175 956 l 175 367 q 190 155 175 219 q 258 63 206 90 q 432 36 311 36 q 606 63 553 36 q 673 155 658 90 q 688 367 688 219 l 688 956 l 738 956 m 376 1032 q 388 1074 376 1061 q 432 1096 400 1086 l 461 1103 q 522 1127 508 1115 q 536 1168 536 1139 q 526 1206 536 1194 q 491 1222 515 1218 q 413 1225 467 1225 q 285 1219 379 1225 l 285 1256 q 422 1264 371 1264 q 516 1256 483 1264 q 563 1229 549 1249 q 578 1174 578 1210 q 566 1113 578 1132 q 508 1079 554 1093 l 476 1071 q 434 1057 446 1063 q 419 1044 422 1051 q 417 1018 417 1036 l 376 1018 l 376 1032 z "},"Ư":{"ha":863,"x_min":125,"x_max":879,"o":"m 879 1092 l 879 1050 q 870 967 879 996 q 838 928 861 939 q 768 917 814 917 l 738 917 l 738 408 q 719 142 738 225 q 637 24 700 58 q 432 -11 574 -11 q 226 24 290 -11 q 144 142 163 58 q 125 408 125 226 l 125 956 l 175 956 l 175 367 q 190 155 175 219 q 258 63 206 90 q 432 36 311 36 q 606 63 553 36 q 673 155 658 90 q 688 367 688 219 l 688 956 l 768 956 q 823 972 811 956 q 835 1040 835 989 l 835 1092 l 879 1092 z "},"Ứ":{"ha":863,"x_min":125,"x_max":879,"o":"m 879 1092 l 879 1050 q 870 967 879 996 q 838 928 861 939 q 768 917 814 917 l 738 917 l 738 408 q 719 142 738 225 q 637 24 700 58 q 432 -11 574 -11 q 226 24 290 -11 q 144 142 163 58 q 125 408 125 226 l 125 956 l 175 956 l 175 367 q 190 155 175 219 q 258 63 206 90 q 432 36 311 36 q 606 63 553 36 q 673 155 658 90 q 688 367 688 219 l 688 956 l 768 956 q 823 972 811 956 q 835 1040 835 989 l 835 1092 l 879 1092 m 407 1042 l 407 1049 l 522 1233 l 583 1233 l 583 1226 l 443 1042 l 407 1042 z "},"Ự":{"ha":863,"x_min":125,"x_max":879,"o":"m 879 1092 l 879 1050 q 870 967 879 996 q 838 928 861 939 q 768 917 814 917 l 738 917 l 738 408 q 719 142 738 225 q 637 24 700 58 q 432 -11 574 -11 q 226 24 290 -11 q 144 142 163 58 q 125 408 125 226 l 125 956 l 175 956 l 175 367 q 190 155 175 219 q 258 63 206 90 q 432 36 311 36 q 606 63 553 36 q 673 155 658 90 q 688 367 688 219 l 688 956 l 768 956 q 823 972 811 956 q 835 1040 835 989 l 835 1092 l 879 1092 m 400 -176 l 400 -86 l 464 -86 l 464 -176 l 400 -176 z "},"Ừ":{"ha":863,"x_min":125,"x_max":879,"o":"m 879 1092 l 879 1050 q 870 967 879 996 q 838 928 861 939 q 768 917 814 917 l 738 917 l 738 408 q 719 142 738 225 q 637 24 700 58 q 432 -11 574 -11 q 226 24 290 -11 q 144 142 163 58 q 125 408 125 226 l 125 956 l 175 956 l 175 367 q 190 155 175 219 q 258 63 206 90 q 432 36 311 36 q 606 63 553 36 q 673 155 658 90 q 688 367 688 219 l 688 956 l 768 956 q 823 972 811 956 q 835 1040 835 989 l 835 1092 l 879 1092 m 426 1042 l 286 1226 l 286 1233 l 347 1233 l 463 1049 l 463 1042 l 426 1042 z "},"Ử":{"ha":863,"x_min":125,"x_max":879,"o":"m 879 1092 l 879 1050 q 870 967 879 996 q 838 928 861 939 q 768 917 814 917 l 738 917 l 738 408 q 719 142 738 225 q 637 24 700 58 q 432 -11 574 -11 q 226 24 290 -11 q 144 142 163 58 q 125 408 125 226 l 125 956 l 175 956 l 175 367 q 190 155 175 219 q 258 63 206 90 q 432 36 311 36 q 606 63 553 36 q 673 155 658 90 q 688 367 688 219 l 688 956 l 768 956 q 823 972 811 956 q 835 1040 835 989 l 835 1092 l 879 1092 m 376 1032 q 388 1074 376 1061 q 432 1096 400 1086 l 461 1103 q 522 1127 508 1115 q 536 1168 536 1139 q 526 1206 536 1194 q 491 1222 515 1218 q 413 1225 467 1225 q 285 1219 379 1225 l 285 1256 q 422 1264 371 1264 q 516 1256 483 1264 q 563 1229 549 1249 q 578 1174 578 1210 q 566 1113 578 1132 q 508 1079 554 1093 l 476 1071 q 434 1057 446 1063 q 419 1044 422 1051 q 417 1018 417 1036 l 376 1018 l 376 1032 z "},"Ữ":{"ha":863,"x_min":125,"x_max":879,"o":"m 879 1092 l 879 1050 q 870 967 879 996 q 838 928 861 939 q 768 917 814 917 l 738 917 l 738 408 q 719 142 738 225 q 637 24 700 58 q 432 -11 574 -11 q 226 24 290 -11 q 144 142 163 58 q 125 408 125 226 l 125 956 l 175 956 l 175 367 q 190 155 175 219 q 258 63 206 90 q 432 36 311 36 q 606 63 553 36 q 673 155 658 90 q 688 367 688 219 l 688 956 l 768 956 q 823 972 811 956 q 835 1040 835 989 l 835 1092 l 879 1092 m 643 1233 q 628 1129 643 1157 q 564 1101 613 1101 q 499 1111 532 1101 q 421 1139 467 1121 q 300 1172 343 1172 q 265 1153 274 1172 q 257 1086 257 1135 l 219 1086 q 235 1190 219 1161 q 300 1218 251 1218 q 363 1208 332 1218 q 444 1179 394 1199 q 511 1156 483 1164 q 564 1147 539 1147 q 598 1165 590 1147 q 606 1233 606 1183 l 643 1233 z "},"Ű":{"ha":863,"x_min":125,"x_max":738,"o":"m 738 956 l 738 408 q 719 142 738 225 q 637 24 700 58 q 432 -11 574 -11 q 226 24 290 -11 q 144 142 163 58 q 125 408 125 226 l 125 956 l 175 956 l 175 367 q 190 155 175 219 q 258 63 206 90 q 432 36 311 36 q 606 63 553 36 q 673 155 658 90 q 688 367 688 219 l 688 956 l 738 956 m 301 1044 l 301 1051 l 415 1228 l 476 1228 l 476 1221 l 338 1044 l 301 1044 m 526 1044 l 526 1051 l 640 1228 l 703 1228 l 703 1221 l 563 1044 l 526 1044 z "},"Ȗ":{"ha":863,"x_min":125,"x_max":738,"o":"m 738 956 l 738 408 q 719 142 738 225 q 637 24 700 58 q 432 -11 574 -11 q 226 24 290 -11 q 144 142 163 58 q 125 408 125 226 l 125 956 l 175 956 l 175 367 q 190 155 175 219 q 258 63 206 90 q 432 36 311 36 q 606 63 553 36 q 673 155 658 90 q 688 367 688 219 l 688 956 l 738 956 m 271 1046 q 279 1156 271 1118 q 322 1218 288 1194 q 433 1242 357 1242 q 544 1218 510 1242 q 587 1156 579 1194 q 594 1046 594 1118 l 550 1046 q 544 1139 550 1108 q 514 1186 539 1169 q 433 1203 489 1203 q 352 1186 378 1203 q 321 1139 326 1169 q 315 1046 315 1108 l 271 1046 z "},"Ū":{"ha":863,"x_min":125,"x_max":738,"o":"m 738 956 l 738 408 q 719 142 738 225 q 637 24 700 58 q 432 -11 574 -11 q 226 24 290 -11 q 144 142 163 58 q 125 408 125 226 l 125 956 l 175 956 l 175 367 q 190 155 175 219 q 258 63 206 90 q 432 36 311 36 q 606 63 553 36 q 673 155 658 90 q 688 367 688 219 l 688 956 l 738 956 m 288 1182 l 288 1232 l 574 1232 l 574 1182 l 288 1182 z "},"Ų":{"ha":863,"x_min":125,"x_max":738,"o":"m 738 956 l 738 408 q 731 215 738 286 q 704 98 725 144 q 642 26 683 51 q 560 -56 597 0 q 522 -164 522 -111 q 588 -228 522 -228 l 611 -226 l 611 -271 q 581 -272 599 -272 q 501 -245 526 -272 q 475 -172 475 -218 q 499 -87 475 -133 q 564 -1 524 -42 q 432 -11 514 -11 q 226 24 290 -11 q 144 142 163 58 q 125 408 125 226 l 125 956 l 175 956 l 175 367 q 190 155 175 219 q 258 63 206 90 q 432 36 311 36 q 606 63 553 36 q 673 155 658 90 q 688 367 688 219 l 688 956 l 738 956 z "},"Ů":{"ha":863,"x_min":125,"x_max":738,"o":"m 738 956 l 738 408 q 719 142 738 225 q 637 24 700 58 q 432 -11 574 -11 q 226 24 290 -11 q 144 142 163 58 q 125 408 125 226 l 125 956 l 175 956 l 175 367 q 190 155 175 219 q 258 63 206 90 q 432 36 311 36 q 606 63 553 36 q 673 155 658 90 q 688 367 688 219 l 688 956 l 738 956 m 431 1014 q 335 1025 365 1014 q 297 1061 306 1036 q 289 1139 289 1086 q 297 1217 289 1192 q 335 1253 306 1242 q 431 1265 365 1265 q 526 1253 496 1265 q 564 1217 556 1242 q 572 1139 572 1192 q 564 1061 572 1086 q 526 1025 556 1036 q 431 1014 496 1014 m 431 1053 q 497 1060 476 1053 q 522 1083 517 1067 q 526 1139 526 1100 q 522 1194 526 1178 q 497 1219 517 1211 q 431 1226 476 1226 q 365 1219 385 1226 q 340 1194 344 1211 q 335 1139 335 1178 q 340 1083 335 1100 q 365 1060 344 1067 q 431 1053 385 1053 z "},"Ũ":{"ha":863,"x_min":125,"x_max":738,"o":"m 738 956 l 738 408 q 719 142 738 225 q 637 24 700 58 q 432 -11 574 -11 q 226 24 290 -11 q 144 142 163 58 q 125 408 125 226 l 125 956 l 175 956 l 175 367 q 190 155 175 219 q 258 63 206 90 q 432 36 311 36 q 606 63 553 36 q 673 155 658 90 q 688 367 688 219 l 688 956 l 738 956 m 643 1233 q 628 1129 643 1157 q 564 1101 613 1101 q 499 1111 532 1101 q 421 1139 467 1121 q 300 1172 343 1172 q 265 1153 274 1172 q 257 1086 257 1135 l 219 1086 q 235 1190 219 1161 q 300 1218 251 1218 q 363 1208 332 1218 q 444 1179 394 1199 q 511 1156 483 1164 q 564 1147 539 1147 q 598 1165 590 1147 q 606 1233 606 1183 l 643 1233 z "},"V":{"ha":782,"x_min":40,"x_max":743,"o":"m 365 0 l 40 956 l 93 956 l 388 83 l 394 83 l 692 956 l 743 956 l 417 0 l 365 0 z "},"W":{"ha":1164,"x_min":49,"x_max":1115,"o":"m 822 0 l 585 858 l 579 858 l 342 0 l 290 0 l 49 956 l 101 956 l 314 97 l 321 97 l 556 956 l 610 956 l 844 97 l 853 97 l 1064 956 l 1115 956 l 874 0 l 822 0 z "},"Ẃ":{"ha":1164,"x_min":49,"x_max":1115,"o":"m 822 0 l 585 858 l 579 858 l 342 0 l 290 0 l 49 956 l 101 956 l 314 97 l 321 97 l 556 956 l 610 956 l 844 97 l 853 97 l 1064 956 l 1115 956 l 874 0 l 822 0 m 557 1042 l 557 1049 l 672 1233 l 733 1233 l 733 1226 l 593 1042 l 557 1042 z "},"Ŵ":{"ha":1164,"x_min":49,"x_max":1115,"o":"m 822 0 l 585 858 l 579 858 l 342 0 l 290 0 l 49 956 l 101 956 l 314 97 l 321 97 l 556 956 l 610 956 l 844 97 l 853 97 l 1064 956 l 1115 956 l 874 0 l 822 0 m 419 1042 l 419 1049 l 550 1233 l 614 1233 l 744 1049 l 744 1042 l 707 1042 l 582 1192 l 457 1042 l 419 1042 z "},"Ẅ":{"ha":1164,"x_min":49,"x_max":1115,"o":"m 822 0 l 585 858 l 579 858 l 342 0 l 290 0 l 49 956 l 101 956 l 314 97 l 321 97 l 556 956 l 610 956 l 844 97 l 853 97 l 1064 956 l 1115 956 l 874 0 l 822 0 m 429 1132 l 429 1217 l 488 1217 l 488 1132 l 429 1132 m 675 1132 l 675 1217 l 733 1217 l 733 1132 l 675 1132 z "},"Ẁ":{"ha":1164,"x_min":49,"x_max":1115,"o":"m 822 0 l 585 858 l 579 858 l 342 0 l 290 0 l 49 956 l 101 956 l 314 97 l 321 97 l 556 956 l 610 956 l 844 97 l 853 97 l 1064 956 l 1115 956 l 874 0 l 822 0 m 576 1042 l 436 1226 l 436 1233 l 497 1233 l 613 1049 l 613 1042 l 576 1042 z "},"X":{"ha":804,"x_min":44,"x_max":761,"o":"m 701 0 l 407 432 l 397 432 l 103 0 l 44 0 l 371 481 l 49 956 l 108 956 l 399 528 l 407 528 l 699 956 l 757 956 l 433 482 l 761 0 l 701 0 z "},"Y":{"ha":711,"x_min":18,"x_max":693,"o":"m 331 0 l 331 390 l 18 956 l 75 956 l 351 450 l 361 450 l 639 956 l 693 956 l 381 390 l 381 0 l 331 0 z "},"Ý":{"ha":711,"x_min":18,"x_max":693,"o":"m 331 0 l 331 390 l 18 956 l 75 956 l 351 450 l 361 450 l 639 956 l 693 956 l 381 390 l 381 0 l 331 0 m 335 1042 l 335 1049 l 450 1233 l 511 1233 l 511 1226 l 371 1042 l 335 1042 z "},"Ŷ":{"ha":711,"x_min":18,"x_max":693,"o":"m 331 0 l 331 390 l 18 956 l 75 956 l 351 450 l 361 450 l 639 956 l 693 956 l 381 390 l 381 0 l 331 0 m 194 1042 l 194 1049 l 325 1233 l 389 1233 l 519 1049 l 519 1042 l 482 1042 l 357 1192 l 232 1042 l 194 1042 z "},"Ÿ":{"ha":711,"x_min":18,"x_max":693,"o":"m 331 0 l 331 390 l 18 956 l 75 956 l 351 450 l 361 450 l 639 956 l 693 956 l 381 390 l 381 0 l 331 0 m 206 1069 l 206 1154 l 264 1154 l 264 1069 l 206 1069 m 451 1069 l 451 1154 l 510 1154 l 510 1069 l 451 1069 z "},"Ỵ":{"ha":711,"x_min":18,"x_max":693,"o":"m 331 0 l 331 390 l 18 956 l 75 956 l 351 450 l 361 450 l 639 956 l 693 956 l 381 390 l 381 0 l 331 0 m 325 -176 l 325 -86 l 389 -86 l 389 -176 l 325 -176 z "},"Ỳ":{"ha":711,"x_min":18,"x_max":693,"o":"m 331 0 l 331 390 l 18 956 l 75 956 l 351 450 l 361 450 l 639 956 l 693 956 l 381 390 l 381 0 l 331 0 m 351 1042 l 211 1226 l 211 1233 l 272 1233 l 388 1049 l 388 1042 l 351 1042 z "},"Ỷ":{"ha":711,"x_min":18,"x_max":693,"o":"m 331 0 l 331 390 l 18 956 l 75 956 l 351 450 l 361 450 l 639 956 l 693 956 l 381 390 l 381 0 l 331 0 m 301 1032 q 313 1074 301 1061 q 357 1096 325 1086 l 386 1103 q 447 1127 433 1115 q 461 1168 461 1139 q 451 1206 461 1194 q 416 1222 440 1218 q 338 1225 392 1225 q 210 1219 304 1225 l 210 1256 q 347 1264 296 1264 q 441 1256 408 1264 q 488 1229 474 1249 q 503 1174 503 1210 q 491 1113 503 1132 q 433 1079 479 1093 l 401 1071 q 359 1057 371 1063 q 344 1044 347 1051 q 342 1018 342 1036 l 301 1018 l 301 1032 z "},"Ȳ":{"ha":711,"x_min":18,"x_max":693,"o":"m 331 0 l 331 390 l 18 956 l 75 956 l 351 450 l 361 450 l 639 956 l 693 956 l 381 390 l 381 0 l 331 0 m 213 1182 l 213 1232 l 499 1232 l 499 1182 l 213 1182 z "},"Ỹ":{"ha":711,"x_min":18,"x_max":693,"o":"m 331 0 l 331 390 l 18 956 l 75 956 l 351 450 l 361 450 l 639 956 l 693 956 l 381 390 l 381 0 l 331 0 m 568 1233 q 553 1129 568 1157 q 489 1101 538 1101 q 424 1111 457 1101 q 346 1139 392 1121 q 225 1172 268 1172 q 190 1153 199 1172 q 182 1086 182 1135 l 144 1086 q 160 1190 144 1161 q 225 1218 176 1218 q 288 1208 257 1218 q 369 1179 319 1199 q 436 1156 408 1164 q 489 1147 464 1147 q 523 1165 515 1147 q 531 1233 531 1183 l 568 1233 z "},"Z":{"ha":713,"x_min":65,"x_max":651,"o":"m 65 0 l 65 44 l 582 908 l 79 908 l 79 956 l 642 956 l 642 911 l 126 47 l 651 47 l 651 0 l 65 0 z "},"Ź":{"ha":713,"x_min":65,"x_max":651,"o":"m 65 0 l 65 44 l 582 908 l 79 908 l 79 956 l 642 956 l 642 911 l 126 47 l 651 47 l 651 0 l 65 0 m 332 1042 l 332 1049 l 447 1233 l 508 1233 l 508 1226 l 368 1042 l 332 1042 z "},"Ž":{"ha":713,"x_min":65,"x_max":651,"o":"m 65 0 l 65 44 l 582 908 l 79 908 l 79 956 l 642 956 l 642 911 l 126 47 l 651 47 l 651 0 l 65 0 m 332 1040 l 201 1225 l 201 1232 l 239 1232 l 364 1082 l 489 1232 l 526 1232 l 526 1225 l 396 1040 l 332 1040 z "},"Ż":{"ha":713,"x_min":65,"x_max":651,"o":"m 65 0 l 65 44 l 582 908 l 79 908 l 79 956 l 642 956 l 642 911 l 126 47 l 651 47 l 651 0 l 65 0 m 326 1132 l 326 1217 l 386 1217 l 386 1132 l 326 1132 z "},"Ẓ":{"ha":713,"x_min":65,"x_max":651,"o":"m 65 0 l 65 44 l 582 908 l 79 908 l 79 956 l 642 956 l 642 911 l 126 47 l 651 47 l 651 0 l 65 0 m 325 -176 l 325 -86 l 389 -86 l 389 -176 l 325 -176 z "},"a":{"ha":699,"x_min":75,"x_max":581,"o":"m 303 -11 q 171 5 219 -11 q 99 65 122 21 q 75 192 75 108 q 92 314 75 271 q 149 375 108 357 q 267 393 190 393 q 532 386 310 393 l 532 450 q 516 601 532 556 q 458 660 500 646 q 318 675 415 675 q 213 669 274 675 q 118 657 153 664 l 118 703 q 335 719 201 719 q 490 698 439 719 q 561 622 542 676 q 581 458 581 568 l 581 0 l 542 0 l 538 111 l 532 111 q 448 13 508 38 q 303 -11 388 -11 m 301 33 q 432 49 382 33 q 503 117 482 64 q 526 197 519 157 q 532 292 532 238 l 532 349 l 278 349 q 181 338 213 349 q 136 294 149 326 q 124 192 124 261 q 138 92 124 125 q 190 46 153 58 q 301 33 226 33 z "},"á":{"ha":699,"x_min":75,"x_max":581,"o":"m 303 -11 q 171 5 219 -11 q 99 65 122 21 q 75 192 75 108 q 92 314 75 271 q 149 375 108 357 q 267 393 190 393 q 532 386 310 393 l 532 450 q 516 601 532 556 q 458 660 500 646 q 318 675 415 675 q 213 669 274 675 q 118 657 153 664 l 118 703 q 335 719 201 719 q 490 698 439 719 q 561 622 542 676 q 581 458 581 568 l 581 0 l 542 0 l 538 111 l 532 111 q 448 13 508 38 q 303 -11 388 -11 m 301 33 q 432 49 382 33 q 503 117 482 64 q 526 197 519 157 q 532 292 532 238 l 532 349 l 278 349 q 181 338 213 349 q 136 294 149 326 q 124 192 124 261 q 138 92 124 125 q 190 46 153 58 q 301 33 226 33 m 310 840 l 310 847 l 425 1032 l 486 1032 l 486 1025 l 346 840 l 310 840 z "},"ă":{"ha":699,"x_min":75,"x_max":581,"o":"m 303 -11 q 171 5 219 -11 q 99 65 122 21 q 75 192 75 108 q 92 314 75 271 q 149 375 108 357 q 267 393 190 393 q 532 386 310 393 l 532 450 q 516 601 532 556 q 458 660 500 646 q 318 675 415 675 q 213 669 274 675 q 118 657 153 664 l 118 703 q 335 719 201 719 q 490 698 439 719 q 561 622 542 676 q 581 458 581 568 l 581 0 l 542 0 l 538 111 l 532 111 q 448 13 508 38 q 303 -11 388 -11 m 301 33 q 432 49 382 33 q 503 117 482 64 q 526 197 519 157 q 532 292 532 238 l 532 349 l 278 349 q 181 338 213 349 q 136 294 149 326 q 124 192 124 261 q 138 92 124 125 q 190 46 153 58 q 301 33 226 33 m 511 1032 q 503 922 511 960 q 460 860 494 883 q 349 836 425 836 q 238 860 272 836 q 195 922 203 883 q 188 1032 188 960 l 232 1032 q 238 939 232 969 q 268 892 243 908 q 349 875 293 875 q 430 892 404 875 q 461 939 456 908 q 467 1032 467 969 l 511 1032 z "},"ắ":{"ha":699,"x_min":75,"x_max":581,"o":"m 303 -11 q 171 5 219 -11 q 99 65 122 21 q 75 192 75 108 q 92 314 75 271 q 149 375 108 357 q 267 393 190 393 q 532 386 310 393 l 532 450 q 516 601 532 556 q 458 660 500 646 q 318 675 415 675 q 213 669 274 675 q 118 657 153 664 l 118 703 q 335 719 201 719 q 490 698 439 719 q 561 622 542 676 q 581 458 581 568 l 581 0 l 542 0 l 538 111 l 532 111 q 448 13 508 38 q 303 -11 388 -11 m 301 33 q 432 49 382 33 q 503 117 482 64 q 526 197 519 157 q 532 292 532 238 l 532 349 l 278 349 q 181 338 213 349 q 136 294 149 326 q 124 192 124 261 q 138 92 124 125 q 190 46 153 58 q 301 33 226 33 m 507 1032 q 499 922 507 960 q 456 860 490 883 q 344 836 421 836 q 233 860 268 836 q 191 922 199 883 q 183 1032 183 960 l 228 1032 q 233 939 228 969 q 264 892 239 908 q 344 875 289 875 q 426 892 400 875 q 457 939 451 908 q 463 1032 463 969 l 507 1032 m 325 1081 l 325 1088 l 440 1272 l 501 1272 l 501 1265 l 361 1081 l 325 1081 z "},"ặ":{"ha":699,"x_min":75,"x_max":581,"o":"m 303 -11 q 171 5 219 -11 q 99 65 122 21 q 75 192 75 108 q 92 314 75 271 q 149 375 108 357 q 267 393 190 393 q 532 386 310 393 l 532 450 q 516 601 532 556 q 458 660 500 646 q 318 675 415 675 q 213 669 274 675 q 118 657 153 664 l 118 703 q 335 719 201 719 q 490 698 439 719 q 561 622 542 676 q 581 458 581 568 l 581 0 l 542 0 l 538 111 l 532 111 q 448 13 508 38 q 303 -11 388 -11 m 301 33 q 432 49 382 33 q 503 117 482 64 q 526 197 519 157 q 532 292 532 238 l 532 349 l 278 349 q 181 338 213 349 q 136 294 149 326 q 124 192 124 261 q 138 92 124 125 q 190 46 153 58 q 301 33 226 33 m 318 -176 l 318 -86 l 382 -86 l 382 -176 l 318 -176 m 511 1032 q 503 922 511 960 q 460 860 494 883 q 349 836 425 836 q 238 860 272 836 q 195 922 203 883 q 188 1032 188 960 l 232 1032 q 238 939 232 969 q 268 892 243 908 q 349 875 293 875 q 430 892 404 875 q 461 939 456 908 q 467 1032 467 969 l 511 1032 z "},"ằ":{"ha":699,"x_min":75,"x_max":581,"o":"m 303 -11 q 171 5 219 -11 q 99 65 122 21 q 75 192 75 108 q 92 314 75 271 q 149 375 108 357 q 267 393 190 393 q 532 386 310 393 l 532 450 q 516 601 532 556 q 458 660 500 646 q 318 675 415 675 q 213 669 274 675 q 118 657 153 664 l 118 703 q 335 719 201 719 q 490 698 439 719 q 561 622 542 676 q 581 458 581 568 l 581 0 l 542 0 l 538 111 l 532 111 q 448 13 508 38 q 303 -11 388 -11 m 301 33 q 432 49 382 33 q 503 117 482 64 q 526 197 519 157 q 532 292 532 238 l 532 349 l 278 349 q 181 338 213 349 q 136 294 149 326 q 124 192 124 261 q 138 92 124 125 q 190 46 153 58 q 301 33 226 33 m 511 1032 q 503 922 511 960 q 460 860 494 883 q 349 836 425 836 q 238 860 272 836 q 195 922 203 883 q 188 1032 188 960 l 232 1032 q 238 939 232 969 q 268 892 243 908 q 349 875 293 875 q 430 892 404 875 q 461 939 456 908 q 467 1032 467 969 l 511 1032 m 347 1081 l 207 1265 l 207 1272 l 268 1272 l 383 1088 l 383 1081 l 347 1081 z "},"ẳ":{"ha":699,"x_min":75,"x_max":581,"o":"m 303 -11 q 171 5 219 -11 q 99 65 122 21 q 75 192 75 108 q 92 314 75 271 q 149 375 108 357 q 267 393 190 393 q 532 386 310 393 l 532 450 q 516 601 532 556 q 458 660 500 646 q 318 675 415 675 q 213 669 274 675 q 118 657 153 664 l 118 703 q 335 719 201 719 q 490 698 439 719 q 561 622 542 676 q 581 458 581 568 l 581 0 l 542 0 l 538 111 l 532 111 q 448 13 508 38 q 303 -11 388 -11 m 301 33 q 432 49 382 33 q 503 117 482 64 q 526 197 519 157 q 532 292 532 238 l 532 349 l 278 349 q 181 338 213 349 q 136 294 149 326 q 124 192 124 261 q 138 92 124 125 q 190 46 153 58 q 301 33 226 33 m 511 1032 q 503 922 511 960 q 460 860 494 883 q 349 836 425 836 q 238 860 272 836 q 195 922 203 883 q 188 1032 188 960 l 232 1032 q 238 939 232 969 q 268 892 243 908 q 349 875 293 875 q 430 892 404 875 q 461 939 456 908 q 467 1032 467 969 l 511 1032 m 297 1046 q 309 1088 297 1075 q 353 1108 321 1100 l 382 1117 q 443 1141 429 1129 q 457 1182 457 1153 q 447 1220 457 1208 q 412 1235 436 1232 q 333 1239 388 1239 q 206 1232 285 1239 l 206 1268 q 343 1276 271 1276 q 437 1269 404 1276 q 484 1242 469 1261 q 499 1188 499 1224 q 487 1125 499 1144 q 429 1093 475 1106 l 397 1083 q 354 1069 365 1075 q 340 1057 343 1064 q 338 1032 338 1050 l 297 1032 l 297 1046 z "},"ẵ":{"ha":699,"x_min":75,"x_max":581,"o":"m 303 -11 q 171 5 219 -11 q 99 65 122 21 q 75 192 75 108 q 92 314 75 271 q 149 375 108 357 q 267 393 190 393 q 532 386 310 393 l 532 450 q 516 601 532 556 q 458 660 500 646 q 318 675 415 675 q 213 669 274 675 q 118 657 153 664 l 118 703 q 335 719 201 719 q 490 698 439 719 q 561 622 542 676 q 581 458 581 568 l 581 0 l 542 0 l 538 111 l 532 111 q 448 13 508 38 q 303 -11 388 -11 m 301 33 q 432 49 382 33 q 503 117 482 64 q 526 197 519 157 q 532 292 532 238 l 532 349 l 278 349 q 181 338 213 349 q 136 294 149 326 q 124 192 124 261 q 138 92 124 125 q 190 46 153 58 q 301 33 226 33 m 508 1032 q 500 922 508 960 q 457 860 492 883 q 346 836 422 836 q 235 860 269 836 q 192 922 200 883 q 185 1032 185 960 l 229 1032 q 235 939 229 969 q 265 892 240 908 q 346 875 290 875 q 427 892 401 875 q 458 939 453 908 q 464 1032 464 969 l 508 1032 m 561 1272 q 546 1168 561 1196 q 482 1140 531 1140 q 417 1150 450 1140 q 339 1178 385 1160 q 218 1211 261 1211 q 183 1192 192 1211 q 175 1125 175 1174 l 138 1125 q 153 1228 138 1200 q 218 1257 169 1257 q 281 1247 250 1257 q 363 1218 313 1238 q 429 1194 401 1203 q 482 1186 457 1186 q 516 1204 508 1186 q 524 1272 524 1222 l 561 1272 z "},"ǎ":{"ha":699,"x_min":75,"x_max":581,"o":"m 303 -11 q 171 5 219 -11 q 99 65 122 21 q 75 192 75 108 q 92 314 75 271 q 149 375 108 357 q 267 393 190 393 q 532 386 310 393 l 532 450 q 516 601 532 556 q 458 660 500 646 q 318 675 415 675 q 213 669 274 675 q 118 657 153 664 l 118 703 q 335 719 201 719 q 490 698 439 719 q 561 622 542 676 q 581 458 581 568 l 581 0 l 542 0 l 538 111 l 532 111 q 448 13 508 38 q 303 -11 388 -11 m 301 33 q 432 49 382 33 q 503 117 482 64 q 526 197 519 157 q 532 292 532 238 l 532 349 l 278 349 q 181 338 213 349 q 136 294 149 326 q 124 192 124 261 q 138 92 124 125 q 190 46 153 58 q 301 33 226 33 m 318 840 l 188 1025 l 188 1032 l 225 1032 l 350 882 l 475 1032 l 513 1032 l 513 1025 l 382 840 l 318 840 z "},"â":{"ha":699,"x_min":75,"x_max":581,"o":"m 303 -11 q 171 5 219 -11 q 99 65 122 21 q 75 192 75 108 q 92 314 75 271 q 149 375 108 357 q 267 393 190 393 q 532 386 310 393 l 532 450 q 516 601 532 556 q 458 660 500 646 q 318 675 415 675 q 213 669 274 675 q 118 657 153 664 l 118 703 q 335 719 201 719 q 490 698 439 719 q 561 622 542 676 q 581 458 581 568 l 581 0 l 542 0 l 538 111 l 532 111 q 448 13 508 38 q 303 -11 388 -11 m 301 33 q 432 49 382 33 q 503 117 482 64 q 526 197 519 157 q 532 292 532 238 l 532 349 l 278 349 q 181 338 213 349 q 136 294 149 326 q 124 192 124 261 q 138 92 124 125 q 190 46 153 58 q 301 33 226 33 m 190 840 l 190 847 l 321 1032 l 385 1032 l 515 847 l 515 840 l 478 840 l 353 990 l 228 840 l 190 840 z "},"ấ":{"ha":699,"x_min":75,"x_max":624,"o":"m 303 -11 q 171 5 219 -11 q 99 65 122 21 q 75 192 75 108 q 92 314 75 271 q 149 375 108 357 q 267 393 190 393 q 532 386 310 393 l 532 450 q 516 601 532 556 q 458 660 500 646 q 318 675 415 675 q 213 669 274 675 q 118 657 153 664 l 118 703 q 335 719 201 719 q 490 698 439 719 q 561 622 542 676 q 581 458 581 568 l 581 0 l 542 0 l 538 111 l 532 111 q 448 13 508 38 q 303 -11 388 -11 m 301 33 q 432 49 382 33 q 503 117 482 64 q 526 197 519 157 q 532 292 532 238 l 532 349 l 278 349 q 181 338 213 349 q 136 294 149 326 q 124 192 124 261 q 138 92 124 125 q 190 46 153 58 q 301 33 226 33 m 183 840 l 183 847 l 314 1032 l 378 1032 l 508 847 l 508 840 l 471 840 l 346 990 l 221 840 l 183 840 m 447 1032 l 447 1039 l 563 1224 l 624 1224 l 624 1217 l 483 1032 l 447 1032 z "},"ậ":{"ha":699,"x_min":75,"x_max":581,"o":"m 303 -11 q 171 5 219 -11 q 99 65 122 21 q 75 192 75 108 q 92 314 75 271 q 149 375 108 357 q 267 393 190 393 q 532 386 310 393 l 532 450 q 516 601 532 556 q 458 660 500 646 q 318 675 415 675 q 213 669 274 675 q 118 657 153 664 l 118 703 q 335 719 201 719 q 490 698 439 719 q 561 622 542 676 q 581 458 581 568 l 581 0 l 542 0 l 538 111 l 532 111 q 448 13 508 38 q 303 -11 388 -11 m 301 33 q 432 49 382 33 q 503 117 482 64 q 526 197 519 157 q 532 292 532 238 l 532 349 l 278 349 q 181 338 213 349 q 136 294 149 326 q 124 192 124 261 q 138 92 124 125 q 190 46 153 58 q 301 33 226 33 m 318 -176 l 318 -86 l 382 -86 l 382 -176 l 318 -176 m 188 840 l 188 847 l 318 1032 l 382 1032 l 513 847 l 513 840 l 475 840 l 350 990 l 225 840 l 188 840 z "},"ầ":{"ha":699,"x_min":75,"x_max":581,"o":"m 303 -11 q 171 5 219 -11 q 99 65 122 21 q 75 192 75 108 q 92 314 75 271 q 149 375 108 357 q 267 393 190 393 q 532 386 310 393 l 532 450 q 516 601 532 556 q 458 660 500 646 q 318 675 415 675 q 213 669 274 675 q 118 657 153 664 l 118 703 q 335 719 201 719 q 490 698 439 719 q 561 622 542 676 q 581 458 581 568 l 581 0 l 542 0 l 538 111 l 532 111 q 448 13 508 38 q 303 -11 388 -11 m 301 33 q 432 49 382 33 q 503 117 482 64 q 526 197 519 157 q 532 292 532 238 l 532 349 l 278 349 q 181 338 213 349 q 136 294 149 326 q 124 192 124 261 q 138 92 124 125 q 190 46 153 58 q 301 33 226 33 m 182 840 l 182 847 l 313 1032 l 376 1032 l 507 847 l 507 840 l 469 840 l 344 990 l 219 840 l 182 840 m 478 1032 l 338 1217 l 338 1224 l 399 1224 l 514 1039 l 514 1032 l 478 1032 z "},"ẩ":{"ha":699,"x_min":75,"x_max":613,"o":"m 303 -11 q 171 5 219 -11 q 99 65 122 21 q 75 192 75 108 q 92 314 75 271 q 149 375 108 357 q 267 393 190 393 q 532 386 310 393 l 532 450 q 516 601 532 556 q 458 660 500 646 q 318 675 415 675 q 213 669 274 675 q 118 657 153 664 l 118 703 q 335 719 201 719 q 490 698 439 719 q 561 622 542 676 q 581 458 581 568 l 581 0 l 542 0 l 538 111 l 532 111 q 448 13 508 38 q 303 -11 388 -11 m 301 33 q 432 49 382 33 q 503 117 482 64 q 526 197 519 157 q 532 292 532 238 l 532 349 l 278 349 q 181 338 213 349 q 136 294 149 326 q 124 192 124 261 q 138 92 124 125 q 190 46 153 58 q 301 33 226 33 m 188 840 l 188 847 l 318 1032 l 382 1032 l 513 847 l 513 840 l 475 840 l 350 990 l 225 840 l 188 840 m 411 1046 q 423 1088 411 1075 q 467 1108 435 1100 l 496 1117 q 557 1141 543 1129 q 571 1182 571 1153 q 560 1220 571 1208 q 526 1235 550 1232 q 447 1239 501 1239 q 319 1232 399 1239 l 319 1268 q 457 1276 385 1276 q 551 1269 518 1276 q 598 1242 583 1261 q 613 1188 613 1224 q 601 1125 613 1144 q 543 1093 589 1106 l 511 1083 q 468 1069 479 1075 q 454 1057 457 1064 q 451 1032 451 1050 l 411 1032 l 411 1046 z "},"ẫ":{"ha":699,"x_min":75,"x_max":581,"o":"m 303 -11 q 171 5 219 -11 q 99 65 122 21 q 75 192 75 108 q 92 314 75 271 q 149 375 108 357 q 267 393 190 393 q 532 386 310 393 l 532 450 q 516 601 532 556 q 458 660 500 646 q 318 675 415 675 q 213 669 274 675 q 118 657 153 664 l 118 703 q 335 719 201 719 q 490 698 439 719 q 561 622 542 676 q 581 458 581 568 l 581 0 l 542 0 l 538 111 l 532 111 q 448 13 508 38 q 303 -11 388 -11 m 301 33 q 432 49 382 33 q 503 117 482 64 q 526 197 519 157 q 532 292 532 238 l 532 349 l 278 349 q 181 338 213 349 q 136 294 149 326 q 124 192 124 261 q 138 92 124 125 q 190 46 153 58 q 301 33 226 33 m 185 840 l 185 847 l 315 1032 l 379 1032 l 510 847 l 510 840 l 472 840 l 347 990 l 222 840 l 185 840 m 561 1272 q 546 1168 561 1196 q 482 1140 531 1140 q 417 1150 450 1140 q 339 1178 385 1160 q 218 1211 261 1211 q 183 1192 192 1211 q 175 1125 175 1174 l 138 1125 q 153 1228 138 1200 q 218 1257 169 1257 q 281 1247 250 1257 q 363 1218 313 1238 q 429 1194 401 1203 q 482 1186 457 1186 q 516 1204 508 1186 q 524 1272 524 1222 l 561 1272 z "},"ȁ":{"ha":699,"x_min":75,"x_max":581,"o":"m 303 -11 q 171 5 219 -11 q 99 65 122 21 q 75 192 75 108 q 92 314 75 271 q 149 375 108 357 q 267 393 190 393 q 532 386 310 393 l 532 450 q 516 601 532 556 q 458 660 500 646 q 318 675 415 675 q 213 669 274 675 q 118 657 153 664 l 118 703 q 335 719 201 719 q 490 698 439 719 q 561 622 542 676 q 581 458 581 568 l 581 0 l 542 0 l 538 111 l 532 111 q 448 13 508 38 q 303 -11 388 -11 m 301 33 q 432 49 382 33 q 503 117 482 64 q 526 197 519 157 q 532 292 532 238 l 532 349 l 278 349 q 181 338 213 349 q 136 294 149 326 q 124 192 124 261 q 138 92 124 125 q 190 46 153 58 q 301 33 226 33 m 267 843 l 231 843 l 90 1019 l 90 1026 l 153 1026 l 267 850 l 267 843 m 492 843 l 456 843 l 317 1019 l 317 1026 l 378 1026 l 492 850 l 492 843 z "},"ä":{"ha":699,"x_min":75,"x_max":581,"o":"m 303 -11 q 171 5 219 -11 q 99 65 122 21 q 75 192 75 108 q 92 314 75 271 q 149 375 108 357 q 267 393 190 393 q 532 386 310 393 l 532 450 q 516 601 532 556 q 458 660 500 646 q 318 675 415 675 q 213 669 274 675 q 118 657 153 664 l 118 703 q 335 719 201 719 q 490 698 439 719 q 561 622 542 676 q 581 458 581 568 l 581 0 l 542 0 l 538 111 l 532 111 q 448 13 508 38 q 303 -11 388 -11 m 301 33 q 432 49 382 33 q 503 117 482 64 q 526 197 519 157 q 532 292 532 238 l 532 349 l 278 349 q 181 338 213 349 q 136 294 149 326 q 124 192 124 261 q 138 92 124 125 q 190 46 153 58 q 301 33 226 33 m 201 931 l 201 1015 l 260 1015 l 260 931 l 201 931 m 447 931 l 447 1015 l 506 1015 l 506 931 l 447 931 z "},"ạ":{"ha":699,"x_min":75,"x_max":581,"o":"m 303 -11 q 171 5 219 -11 q 99 65 122 21 q 75 192 75 108 q 92 314 75 271 q 149 375 108 357 q 267 393 190 393 q 532 386 310 393 l 532 450 q 516 601 532 556 q 458 660 500 646 q 318 675 415 675 q 213 669 274 675 q 118 657 153 664 l 118 703 q 335 719 201 719 q 490 698 439 719 q 561 622 542 676 q 581 458 581 568 l 581 0 l 542 0 l 538 111 l 532 111 q 448 13 508 38 q 303 -11 388 -11 m 301 33 q 432 49 382 33 q 503 117 482 64 q 526 197 519 157 q 532 292 532 238 l 532 349 l 278 349 q 181 338 213 349 q 136 294 149 326 q 124 192 124 261 q 138 92 124 125 q 190 46 153 58 q 301 33 226 33 m 318 -176 l 318 -86 l 382 -86 l 382 -176 l 318 -176 z "},"à":{"ha":699,"x_min":75,"x_max":581,"o":"m 303 -11 q 171 5 219 -11 q 99 65 122 21 q 75 192 75 108 q 92 314 75 271 q 149 375 108 357 q 267 393 190 393 q 532 386 310 393 l 532 450 q 516 601 532 556 q 458 660 500 646 q 318 675 415 675 q 213 669 274 675 q 118 657 153 664 l 118 703 q 335 719 201 719 q 490 698 439 719 q 561 622 542 676 q 581 458 581 568 l 581 0 l 542 0 l 538 111 l 532 111 q 448 13 508 38 q 303 -11 388 -11 m 301 33 q 432 49 382 33 q 503 117 482 64 q 526 197 519 157 q 532 292 532 238 l 532 349 l 278 349 q 181 338 213 349 q 136 294 149 326 q 124 192 124 261 q 138 92 124 125 q 190 46 153 58 q 301 33 226 33 m 363 840 l 222 1025 l 222 1032 l 283 1032 l 399 847 l 399 840 l 363 840 z "},"ả":{"ha":699,"x_min":75,"x_max":581,"o":"m 303 -11 q 171 5 219 -11 q 99 65 122 21 q 75 192 75 108 q 92 314 75 271 q 149 375 108 357 q 267 393 190 393 q 532 386 310 393 l 532 450 q 516 601 532 556 q 458 660 500 646 q 318 675 415 675 q 213 669 274 675 q 118 657 153 664 l 118 703 q 335 719 201 719 q 490 698 439 719 q 561 622 542 676 q 581 458 581 568 l 581 0 l 542 0 l 538 111 l 532 111 q 448 13 508 38 q 303 -11 388 -11 m 301 33 q 432 49 382 33 q 503 117 482 64 q 526 197 519 157 q 532 292 532 238 l 532 349 l 278 349 q 181 338 213 349 q 136 294 149 326 q 124 192 124 261 q 138 92 124 125 q 190 46 153 58 q 301 33 226 33 m 294 858 q 306 900 294 888 q 350 921 318 913 l 379 929 q 440 953 426 942 q 454 994 454 965 q 444 1033 454 1021 q 409 1048 433 1044 q 331 1051 385 1051 q 203 1044 282 1051 l 203 1081 q 340 1089 268 1089 q 434 1081 401 1089 q 481 1055 467 1074 q 496 1000 496 1036 q 484 938 496 957 q 426 906 472 918 l 394 896 q 351 882 363 888 q 338 869 340 876 q 335 844 335 863 l 294 844 l 294 858 z "},"ȃ":{"ha":699,"x_min":75,"x_max":581,"o":"m 303 -11 q 171 5 219 -11 q 99 65 122 21 q 75 192 75 108 q 92 314 75 271 q 149 375 108 357 q 267 393 190 393 q 532 386 310 393 l 532 450 q 516 601 532 556 q 458 660 500 646 q 318 675 415 675 q 213 669 274 675 q 118 657 153 664 l 118 703 q 335 719 201 719 q 490 698 439 719 q 561 622 542 676 q 581 458 581 568 l 581 0 l 542 0 l 538 111 l 532 111 q 448 13 508 38 q 303 -11 388 -11 m 301 33 q 432 49 382 33 q 503 117 482 64 q 526 197 519 157 q 532 292 532 238 l 532 349 l 278 349 q 181 338 213 349 q 136 294 149 326 q 124 192 124 261 q 138 92 124 125 q 190 46 153 58 q 301 33 226 33 m 189 844 q 197 955 189 917 q 240 1017 206 993 q 351 1040 275 1040 q 463 1017 428 1040 q 505 955 497 993 q 513 844 513 917 l 468 844 q 463 938 468 907 q 432 985 457 968 q 351 1001 407 1001 q 270 985 296 1001 q 239 938 244 968 q 233 844 233 907 l 189 844 z "},"ā":{"ha":699,"x_min":75,"x_max":581,"o":"m 303 -11 q 171 5 219 -11 q 99 65 122 21 q 75 192 75 108 q 92 314 75 271 q 149 375 108 357 q 267 393 190 393 q 532 386 310 393 l 532 450 q 516 601 532 556 q 458 660 500 646 q 318 675 415 675 q 213 669 274 675 q 118 657 153 664 l 118 703 q 335 719 201 719 q 490 698 439 719 q 561 622 542 676 q 581 458 581 568 l 581 0 l 542 0 l 538 111 l 532 111 q 448 13 508 38 q 303 -11 388 -11 m 301 33 q 432 49 382 33 q 503 117 482 64 q 526 197 519 157 q 532 292 532 238 l 532 349 l 278 349 q 181 338 213 349 q 136 294 149 326 q 124 192 124 261 q 138 92 124 125 q 190 46 153 58 q 301 33 226 33 m 206 981 l 206 1031 l 492 1031 l 492 981 l 206 981 z "},"ą":{"ha":699,"x_min":75,"x_max":586,"o":"m 586 -226 l 586 -271 q 556 -272 574 -272 q 476 -245 501 -272 q 450 -175 450 -218 q 476 -82 450 -131 q 542 6 501 -33 l 538 111 l 532 111 q 448 13 508 38 q 303 -11 388 -11 q 171 5 219 -11 q 99 65 122 21 q 75 192 75 108 q 92 314 75 271 q 149 375 108 357 q 267 393 190 393 q 532 386 310 393 l 532 450 q 516 601 532 556 q 458 660 500 646 q 318 675 415 675 q 213 669 274 675 q 118 657 153 664 l 118 703 q 335 719 201 719 q 490 698 439 719 q 561 622 542 676 q 581 458 581 568 l 581 0 q 524 -74 551 -25 q 497 -165 497 -124 q 563 -228 497 -228 l 586 -226 m 532 349 l 278 349 q 181 338 213 349 q 136 294 149 326 q 124 192 124 261 q 138 92 124 125 q 190 46 153 58 q 301 33 226 33 q 432 49 382 33 q 503 117 482 64 q 526 197 519 157 q 532 292 532 238 l 532 349 z "},"å":{"ha":699,"x_min":75,"x_max":581,"o":"m 303 -11 q 171 5 219 -11 q 99 65 122 21 q 75 192 75 108 q 92 314 75 271 q 149 375 108 357 q 267 393 190 393 q 532 386 310 393 l 532 450 q 516 601 532 556 q 458 660 500 646 q 318 675 415 675 q 213 669 274 675 q 118 657 153 664 l 118 703 q 335 719 201 719 q 490 698 439 719 q 561 622 542 676 q 581 458 581 568 l 581 0 l 542 0 l 538 111 l 532 111 q 448 13 508 38 q 303 -11 388 -11 m 301 33 q 432 49 382 33 q 503 117 482 64 q 526 197 519 157 q 532 292 532 238 l 532 349 l 278 349 q 181 338 213 349 q 136 294 149 326 q 124 192 124 261 q 138 92 124 125 q 190 46 153 58 q 301 33 226 33 m 349 854 q 253 865 283 854 q 215 901 224 876 q 207 979 207 926 q 215 1057 207 1032 q 253 1094 224 1082 q 349 1106 283 1106 q 444 1094 414 1106 q 482 1057 474 1082 q 490 979 490 1032 q 482 901 490 926 q 444 865 474 876 q 349 854 414 854 m 349 893 q 415 900 394 893 q 440 924 435 907 q 444 979 444 940 q 440 1035 444 1018 q 415 1059 435 1051 q 349 1067 394 1067 q 283 1059 303 1067 q 258 1035 263 1051 q 253 979 253 1018 q 258 924 253 940 q 283 900 263 907 q 349 893 303 893 z "},"ǻ":{"ha":699,"x_min":75,"x_max":581,"o":"m 303 -11 q 171 5 219 -11 q 99 65 122 21 q 75 192 75 108 q 92 314 75 271 q 149 375 108 357 q 267 393 190 393 q 532 386 310 393 l 532 450 q 516 601 532 556 q 458 660 500 646 q 318 675 415 675 q 213 669 274 675 q 118 657 153 664 l 118 703 q 335 719 201 719 q 490 698 439 719 q 561 622 542 676 q 581 458 581 568 l 581 0 l 542 0 l 538 111 l 532 111 q 448 13 508 38 q 303 -11 388 -11 m 301 33 q 432 49 382 33 q 503 117 482 64 q 526 197 519 157 q 532 292 532 238 l 532 349 l 278 349 q 181 338 213 349 q 136 294 149 326 q 124 192 124 261 q 138 92 124 125 q 190 46 153 58 q 301 33 226 33 m 349 854 q 253 865 283 854 q 215 901 224 876 q 207 979 207 926 q 215 1057 207 1032 q 253 1094 224 1082 q 349 1106 283 1106 q 444 1094 414 1106 q 482 1057 474 1082 q 490 979 490 1032 q 482 901 490 926 q 444 865 474 876 q 349 854 414 854 m 349 893 q 415 900 394 893 q 440 924 435 907 q 444 979 444 940 q 440 1035 444 1018 q 415 1059 435 1051 q 349 1067 394 1067 q 283 1059 303 1067 q 258 1035 263 1051 q 253 979 253 1018 q 258 924 253 940 q 283 900 263 907 q 349 893 303 893 m 329 1154 l 329 1161 l 444 1346 l 506 1346 l 506 1339 l 365 1154 l 329 1154 z "},"ã":{"ha":699,"x_min":75,"x_max":581,"o":"m 303 -11 q 171 5 219 -11 q 99 65 122 21 q 75 192 75 108 q 92 314 75 271 q 149 375 108 357 q 267 393 190 393 q 532 386 310 393 l 532 450 q 516 601 532 556 q 458 660 500 646 q 318 675 415 675 q 213 669 274 675 q 118 657 153 664 l 118 703 q 335 719 201 719 q 490 698 439 719 q 561 622 542 676 q 581 458 581 568 l 581 0 l 542 0 l 538 111 l 532 111 q 448 13 508 38 q 303 -11 388 -11 m 301 33 q 432 49 382 33 q 503 117 482 64 q 526 197 519 157 q 532 292 532 238 l 532 349 l 278 349 q 181 338 213 349 q 136 294 149 326 q 124 192 124 261 q 138 92 124 125 q 190 46 153 58 q 301 33 226 33 m 560 1032 q 544 928 560 956 q 481 900 529 900 q 416 910 449 900 q 338 938 383 919 q 217 971 260 971 q 182 952 190 971 q 174 885 174 933 l 136 885 q 152 988 136 960 q 217 1017 168 1017 q 280 1007 249 1017 q 361 978 311 997 q 428 954 400 963 q 481 946 456 946 q 515 964 507 946 q 522 1032 522 982 l 560 1032 z "},"æ":{"ha":1132,"x_min":75,"x_max":1042,"o":"m 1042 343 l 581 343 q 595 146 581 208 q 656 58 610 83 q 807 33 703 33 q 916 39 857 33 q 1018 53 975 44 l 1018 7 q 922 -6 982 -1 q 801 -11 861 -11 q 628 18 683 -11 q 551 125 574 47 q 460 15 522 40 q 303 -11 397 -11 q 171 5 219 -11 q 99 65 122 21 q 75 192 75 108 q 92 310 75 268 q 149 369 108 351 q 267 388 190 388 l 532 388 l 532 450 q 516 601 532 556 q 458 660 500 646 q 318 675 415 675 q 213 669 274 675 q 118 657 153 664 l 118 703 q 335 719 201 719 q 488 699 436 719 q 560 622 539 678 q 640 697 585 675 q 803 719 696 719 q 965 689 915 719 q 1028 588 1014 658 q 1042 361 1042 517 l 1042 343 m 799 675 q 652 655 696 675 q 594 578 608 635 q 581 388 581 521 l 993 388 l 993 411 q 976 585 993 531 q 921 658 960 640 q 799 675 882 675 m 532 343 l 278 343 q 181 333 213 343 q 136 290 149 322 q 124 192 124 258 q 138 92 124 125 q 190 46 153 58 q 301 33 226 33 q 432 49 382 33 q 504 121 482 65 q 526 198 519 158 q 532 292 532 238 l 532 343 z "},"ǽ":{"ha":1132,"x_min":75,"x_max":1042,"o":"m 1042 343 l 581 343 q 595 146 581 208 q 656 58 610 83 q 807 33 703 33 q 916 39 857 33 q 1018 53 975 44 l 1018 7 q 922 -6 982 -1 q 801 -11 861 -11 q 628 18 683 -11 q 551 125 574 47 q 460 15 522 40 q 303 -11 397 -11 q 171 5 219 -11 q 99 65 122 21 q 75 192 75 108 q 92 310 75 268 q 149 369 108 351 q 267 388 190 388 l 532 388 l 532 450 q 516 601 532 556 q 458 660 500 646 q 318 675 415 675 q 213 669 274 675 q 118 657 153 664 l 118 703 q 335 719 201 719 q 488 699 436 719 q 560 622 539 678 q 640 697 585 675 q 803 719 696 719 q 965 689 915 719 q 1028 588 1014 658 q 1042 361 1042 517 l 1042 343 m 799 675 q 652 655 696 675 q 594 578 608 635 q 581 388 581 521 l 993 388 l 993 411 q 976 585 993 531 q 921 658 960 640 q 799 675 882 675 m 532 343 l 278 343 q 181 333 213 343 q 136 290 149 322 q 124 192 124 258 q 138 92 124 125 q 190 46 153 58 q 301 33 226 33 q 432 49 382 33 q 504 121 482 65 q 526 198 519 158 q 532 292 532 238 l 532 343 m 543 840 l 543 847 l 658 1032 l 719 1032 l 719 1025 l 579 840 l 543 840 z "},"b":{"ha":732,"x_min":121,"x_max":642,"o":"m 393 -11 q 249 13 306 -11 q 169 111 192 38 l 164 111 l 160 0 l 121 0 l 121 1032 l 169 1032 l 169 610 l 175 610 q 249 694 196 669 q 393 719 301 719 q 552 690 500 719 q 623 585 604 660 q 642 354 642 510 q 623 124 642 199 q 552 19 604 49 q 393 -11 500 -11 m 381 33 q 521 56 478 33 q 578 142 564 78 q 593 354 593 207 q 578 566 593 501 q 521 653 564 631 q 381 675 478 675 q 253 649 300 675 q 189 568 206 622 q 173 478 176 525 q 169 354 169 431 q 172 230 169 275 q 188 143 175 185 q 251 60 204 86 q 381 33 299 33 z "},"c":{"ha":565,"x_min":90,"x_max":503,"o":"m 503 6 q 428 -6 474 -1 q 342 -11 383 -11 q 175 24 228 -11 q 106 132 122 58 q 90 353 90 206 q 110 581 90 504 q 182 689 131 658 q 335 719 233 719 q 420 715 375 719 q 497 704 465 711 l 497 658 q 343 675 421 675 q 211 649 253 675 q 154 558 169 624 q 139 356 139 492 q 154 148 139 214 q 212 58 169 82 q 347 33 254 33 q 430 39 386 33 q 503 51 474 44 l 503 6 z "},"ć":{"ha":565,"x_min":90,"x_max":503,"o":"m 503 6 q 428 -6 474 -1 q 342 -11 383 -11 q 175 24 228 -11 q 106 132 122 58 q 90 353 90 206 q 110 581 90 504 q 182 689 131 658 q 335 719 233 719 q 420 715 375 719 q 497 704 465 711 l 497 658 q 343 675 421 675 q 211 649 253 675 q 154 558 169 624 q 139 356 139 492 q 154 148 139 214 q 212 58 169 82 q 347 33 254 33 q 430 39 386 33 q 503 51 474 44 l 503 6 m 258 840 l 258 847 l 374 1032 l 435 1032 l 435 1025 l 294 840 l 258 840 z "},"č":{"ha":565,"x_min":90,"x_max":503,"o":"m 503 6 q 428 -6 474 -1 q 342 -11 383 -11 q 175 24 228 -11 q 106 132 122 58 q 90 353 90 206 q 110 581 90 504 q 182 689 131 658 q 335 719 233 719 q 420 715 375 719 q 497 704 465 711 l 497 658 q 343 675 421 675 q 211 649 253 675 q 154 558 169 624 q 139 356 139 492 q 154 148 139 214 q 212 58 169 82 q 347 33 254 33 q 430 39 386 33 q 503 51 474 44 l 503 6 m 250 840 l 119 1025 l 119 1032 l 157 1032 l 282 882 l 407 1032 l 444 1032 l 444 1025 l 314 840 l 250 840 z "},"ç":{"ha":565,"x_min":90,"x_max":503,"o":"m 347 33 q 430 39 386 33 q 503 51 474 44 l 503 6 q 428 -6 474 -1 q 342 -11 383 -11 q 299 -10 311 -11 l 240 -264 l 185 -264 l 185 -257 l 260 -6 q 149 45 185 6 q 101 154 113 85 q 90 353 90 224 q 110 581 90 504 q 182 689 131 658 q 335 719 233 719 q 420 715 375 719 q 497 704 465 711 l 497 658 q 343 675 421 675 q 211 649 253 675 q 154 558 169 624 q 139 356 139 492 q 154 148 139 214 q 212 58 169 82 q 347 33 254 33 z "},"ĉ":{"ha":565,"x_min":90,"x_max":503,"o":"m 503 6 q 428 -6 474 -1 q 342 -11 383 -11 q 175 24 228 -11 q 106 132 122 58 q 90 353 90 206 q 110 581 90 504 q 182 689 131 658 q 335 719 233 719 q 420 715 375 719 q 497 704 465 711 l 497 658 q 343 675 421 675 q 211 649 253 675 q 154 558 169 624 q 139 356 139 492 q 154 148 139 214 q 212 58 169 82 q 347 33 254 33 q 430 39 386 33 q 503 51 474 44 l 503 6 m 119 840 l 119 847 l 250 1032 l 314 1032 l 444 847 l 444 840 l 407 840 l 282 990 l 157 840 l 119 840 z "},"ċ":{"ha":565,"x_min":90,"x_max":503,"o":"m 503 6 q 428 -6 474 -1 q 342 -11 383 -11 q 175 24 228 -11 q 106 132 122 58 q 90 353 90 206 q 110 581 90 504 q 182 689 131 658 q 335 719 233 719 q 420 715 375 719 q 497 704 465 711 l 497 658 q 343 675 421 675 q 211 649 253 675 q 154 558 169 624 q 139 356 139 492 q 154 148 139 214 q 212 58 169 82 q 347 33 254 33 q 430 39 386 33 q 503 51 474 44 l 503 6 m 251 931 l 251 1015 l 311 1015 l 311 931 l 251 931 z "},"d":{"ha":732,"x_min":90,"x_max":611,"o":"m 339 -11 q 181 19 232 -11 q 110 124 129 49 q 90 354 90 199 q 109 585 90 510 q 180 690 128 660 q 339 719 232 719 q 483 694 431 719 q 557 610 536 669 l 563 610 l 563 1032 l 611 1032 l 611 0 l 574 0 l 568 111 l 563 111 q 483 13 540 38 q 339 -11 426 -11 m 351 33 q 481 59 433 33 q 543 139 528 85 q 560 233 557 185 q 563 374 563 281 q 559 478 563 435 q 546 556 556 522 q 479 647 528 619 q 344 675 431 675 q 210 653 251 675 q 153 566 168 631 q 139 354 139 501 q 153 142 139 207 q 211 56 168 78 q 351 33 254 33 z "},"ð":{"ha":713,"x_min":90,"x_max":622,"o":"m 357 -11 q 175 17 229 -11 q 106 117 121 46 q 90 353 90 188 q 106 591 90 519 q 175 691 121 663 q 357 719 229 719 q 536 669 476 719 l 543 672 q 444 894 507 799 l 289 868 l 289 913 l 417 935 q 362 995 389 969 q 329 1026 335 1021 l 329 1032 l 388 1032 q 469 943 438 986 l 593 965 l 593 921 l 496 904 q 568 744 536 836 q 611 567 600 653 q 622 388 622 482 q 609 126 622 201 q 542 20 596 51 q 357 -11 489 -11 m 357 33 q 510 58 467 33 q 564 141 554 82 q 574 353 574 200 q 563 546 574 485 q 507 641 553 607 q 357 675 461 675 q 202 651 246 675 q 149 568 158 628 q 139 353 139 508 q 149 141 139 200 q 203 58 158 82 q 357 33 247 33 z "},"ď":{"ha":732,"x_min":90,"x_max":747,"o":"m 339 -11 q 181 19 232 -11 q 110 124 129 49 q 90 354 90 199 q 109 585 90 510 q 180 690 128 660 q 339 719 232 719 q 483 694 431 719 q 557 610 536 669 l 563 610 l 563 1032 l 611 1032 l 611 0 l 574 0 l 568 111 l 563 111 q 483 13 540 38 q 339 -11 426 -11 m 351 33 q 481 59 433 33 q 543 139 528 85 q 560 233 557 185 q 563 374 563 281 q 559 478 563 435 q 546 556 556 522 q 479 647 528 619 q 344 675 431 675 q 210 653 251 675 q 153 566 168 631 q 139 354 139 501 q 153 142 139 207 q 211 56 168 78 q 351 33 254 33 m 676 631 l 693 832 l 693 956 l 747 956 l 747 832 l 708 631 l 676 631 z "},"đ":{"ha":732,"x_min":90,"x_max":700,"o":"m 700 911 l 611 911 l 611 0 l 574 0 l 568 111 l 563 111 q 483 13 540 38 q 339 -11 426 -11 q 181 19 232 -11 q 110 124 129 49 q 90 354 90 199 q 109 585 90 510 q 180 690 128 660 q 339 719 232 719 q 483 694 431 719 q 557 610 536 669 l 563 610 l 563 911 l 369 911 l 369 956 l 563 956 l 563 1032 l 611 1032 l 611 956 l 700 956 l 700 911 m 543 139 q 560 233 557 185 q 563 374 563 281 q 559 478 563 435 q 546 556 556 522 q 479 647 528 619 q 344 675 431 675 q 210 653 251 675 q 153 566 168 631 q 139 354 139 501 q 153 142 139 207 q 211 56 168 78 q 351 33 254 33 q 481 59 433 33 q 543 139 528 85 z "},"ḍ":{"ha":732,"x_min":90,"x_max":611,"o":"m 339 -11 q 181 19 232 -11 q 110 124 129 49 q 90 354 90 199 q 109 585 90 510 q 180 690 128 660 q 339 719 232 719 q 483 694 431 719 q 557 610 536 669 l 563 610 l 563 1032 l 611 1032 l 611 0 l 574 0 l 568 111 l 563 111 q 483 13 540 38 q 339 -11 426 -11 m 351 33 q 481 59 433 33 q 543 139 528 85 q 560 233 557 185 q 563 374 563 281 q 559 478 563 435 q 546 556 556 522 q 479 647 528 619 q 344 675 431 675 q 210 653 251 675 q 153 566 168 631 q 139 354 139 501 q 153 142 139 207 q 211 56 168 78 q 351 33 254 33 m 335 -176 l 335 -86 l 399 -86 l 399 -176 l 335 -176 z "},"ǳ":{"ha":1331,"x_min":90,"x_max":1268,"o":"m 339 -11 q 181 19 232 -11 q 110 124 129 49 q 90 354 90 199 q 109 585 90 510 q 180 690 128 660 q 339 719 232 719 q 483 694 431 719 q 557 610 536 669 l 563 610 l 563 1032 l 611 1032 l 611 0 l 574 0 l 568 111 l 563 111 q 483 13 540 38 q 339 -11 426 -11 m 351 33 q 481 59 433 33 q 543 139 528 85 q 560 233 557 185 q 563 374 563 281 q 559 478 563 435 q 546 556 556 522 q 479 647 528 619 q 344 675 431 675 q 210 653 251 675 q 153 566 168 631 q 139 354 139 501 q 153 142 139 207 q 211 56 168 78 q 351 33 254 33 m 794 0 l 794 39 l 1203 664 l 810 664 l 810 708 l 1265 708 l 1265 669 l 858 44 l 1268 44 l 1268 0 l 794 0 z "},"ǆ":{"ha":1331,"x_min":90,"x_max":1268,"o":"m 339 -11 q 181 19 232 -11 q 110 124 129 49 q 90 354 90 199 q 109 585 90 510 q 180 690 128 660 q 339 719 232 719 q 483 694 431 719 q 557 610 536 669 l 563 610 l 563 1032 l 611 1032 l 611 0 l 574 0 l 568 111 l 563 111 q 483 13 540 38 q 339 -11 426 -11 m 351 33 q 481 59 433 33 q 543 139 528 85 q 560 233 557 185 q 563 374 563 281 q 559 478 563 435 q 546 556 556 522 q 479 647 528 619 q 344 675 431 675 q 210 653 251 675 q 153 566 168 631 q 139 354 139 501 q 153 142 139 207 q 211 56 168 78 q 351 33 254 33 m 794 0 l 794 39 l 1203 664 l 810 664 l 810 708 l 1265 708 l 1265 669 l 858 44 l 1268 44 l 1268 0 l 794 0 m 1001 840 l 871 1025 l 871 1032 l 908 1032 l 1033 882 l 1158 1032 l 1196 1032 l 1196 1025 l 1065 840 l 1001 840 z "},"e":{"ha":692,"x_min":90,"x_max":600,"o":"m 600 338 l 139 338 q 153 144 139 204 q 215 58 168 83 q 365 33 261 33 q 474 39 415 33 q 576 53 533 44 l 576 7 q 481 -6 542 -1 q 360 -11 421 -11 q 184 19 240 -11 q 109 123 128 49 q 90 353 90 197 q 105 582 90 511 q 176 686 119 653 q 361 719 232 719 q 523 688 474 719 q 586 585 572 657 q 600 356 600 514 l 600 338 m 358 675 q 211 654 256 675 q 153 575 167 633 q 139 382 139 517 l 551 382 l 551 411 q 535 585 551 531 q 479 658 518 640 q 358 675 440 675 z "},"é":{"ha":692,"x_min":90,"x_max":600,"o":"m 600 338 l 139 338 q 153 144 139 204 q 215 58 168 83 q 365 33 261 33 q 474 39 415 33 q 576 53 533 44 l 576 7 q 481 -6 542 -1 q 360 -11 421 -11 q 184 19 240 -11 q 109 123 128 49 q 90 353 90 197 q 105 582 90 511 q 176 686 119 653 q 361 719 232 719 q 523 688 474 719 q 586 585 572 657 q 600 356 600 514 l 600 338 m 358 675 q 211 654 256 675 q 153 575 167 633 q 139 382 139 517 l 551 382 l 551 411 q 535 585 551 531 q 479 658 518 640 q 358 675 440 675 m 322 840 l 322 847 l 438 1032 l 499 1032 l 499 1025 l 358 840 l 322 840 z "},"ĕ":{"ha":692,"x_min":90,"x_max":600,"o":"m 600 338 l 139 338 q 153 144 139 204 q 215 58 168 83 q 365 33 261 33 q 474 39 415 33 q 576 53 533 44 l 576 7 q 481 -6 542 -1 q 360 -11 421 -11 q 184 19 240 -11 q 109 123 128 49 q 90 353 90 197 q 105 582 90 511 q 176 686 119 653 q 361 719 232 719 q 523 688 474 719 q 586 585 572 657 q 600 356 600 514 l 600 338 m 358 675 q 211 654 256 675 q 153 575 167 633 q 139 382 139 517 l 551 382 l 551 411 q 535 585 551 531 q 479 658 518 640 q 358 675 440 675 m 507 1032 q 499 922 507 960 q 456 860 490 883 q 344 836 421 836 q 233 860 268 836 q 191 922 199 883 q 183 1032 183 960 l 228 1032 q 233 939 228 969 q 264 892 239 908 q 344 875 289 875 q 426 892 400 875 q 457 939 451 908 q 463 1032 463 969 l 507 1032 z "},"ě":{"ha":692,"x_min":90,"x_max":600,"o":"m 600 338 l 139 338 q 153 144 139 204 q 215 58 168 83 q 365 33 261 33 q 474 39 415 33 q 576 53 533 44 l 576 7 q 481 -6 542 -1 q 360 -11 421 -11 q 184 19 240 -11 q 109 123 128 49 q 90 353 90 197 q 105 582 90 511 q 176 686 119 653 q 361 719 232 719 q 523 688 474 719 q 586 585 572 657 q 600 356 600 514 l 600 338 m 358 675 q 211 654 256 675 q 153 575 167 633 q 139 382 139 517 l 551 382 l 551 411 q 535 585 551 531 q 479 658 518 640 q 358 675 440 675 m 314 840 l 183 1025 l 183 1032 l 221 1032 l 346 882 l 471 1032 l 508 1032 l 508 1025 l 378 840 l 314 840 z "},"ê":{"ha":692,"x_min":90,"x_max":600,"o":"m 600 338 l 139 338 q 153 144 139 204 q 215 58 168 83 q 365 33 261 33 q 474 39 415 33 q 576 53 533 44 l 576 7 q 481 -6 542 -1 q 360 -11 421 -11 q 184 19 240 -11 q 109 123 128 49 q 90 353 90 197 q 105 582 90 511 q 176 686 119 653 q 361 719 232 719 q 523 688 474 719 q 586 585 572 657 q 600 356 600 514 l 600 338 m 358 675 q 211 654 256 675 q 153 575 167 633 q 139 382 139 517 l 551 382 l 551 411 q 535 585 551 531 q 479 658 518 640 q 358 675 440 675 m 185 840 l 185 847 l 315 1032 l 379 1032 l 510 847 l 510 840 l 472 840 l 347 990 l 222 840 l 185 840 z "},"ế":{"ha":692,"x_min":90,"x_max":619,"o":"m 600 338 l 139 338 q 153 144 139 204 q 215 58 168 83 q 365 33 261 33 q 474 39 415 33 q 576 53 533 44 l 576 7 q 481 -6 542 -1 q 360 -11 421 -11 q 184 19 240 -11 q 109 123 128 49 q 90 353 90 197 q 105 582 90 511 q 176 686 119 653 q 361 719 232 719 q 523 688 474 719 q 586 585 572 657 q 600 356 600 514 l 600 338 m 358 675 q 211 654 256 675 q 153 575 167 633 q 139 382 139 517 l 551 382 l 551 411 q 535 585 551 531 q 479 658 518 640 q 358 675 440 675 m 179 840 l 179 847 l 310 1032 l 374 1032 l 504 847 l 504 840 l 467 840 l 342 990 l 217 840 l 179 840 m 443 1032 l 443 1039 l 558 1224 l 619 1224 l 619 1217 l 479 1032 l 443 1032 z "},"ệ":{"ha":692,"x_min":90,"x_max":600,"o":"m 600 338 l 139 338 q 153 144 139 204 q 215 58 168 83 q 365 33 261 33 q 474 39 415 33 q 576 53 533 44 l 576 7 q 481 -6 542 -1 q 360 -11 421 -11 q 184 19 240 -11 q 109 123 128 49 q 90 353 90 197 q 105 582 90 511 q 176 686 119 653 q 361 719 232 719 q 523 688 474 719 q 586 585 572 657 q 600 356 600 514 l 600 338 m 358 675 q 211 654 256 675 q 153 575 167 633 q 139 382 139 517 l 551 382 l 551 411 q 535 585 551 531 q 479 658 518 640 q 358 675 440 675 m 314 -176 l 314 -86 l 378 -86 l 378 -176 l 314 -176 m 183 840 l 183 847 l 314 1032 l 378 1032 l 508 847 l 508 840 l 471 840 l 346 990 l 221 840 l 183 840 z "},"ề":{"ha":692,"x_min":90,"x_max":600,"o":"m 600 338 l 139 338 q 153 144 139 204 q 215 58 168 83 q 365 33 261 33 q 474 39 415 33 q 576 53 533 44 l 576 7 q 481 -6 542 -1 q 360 -11 421 -11 q 184 19 240 -11 q 109 123 128 49 q 90 353 90 197 q 105 582 90 511 q 176 686 119 653 q 361 719 232 719 q 523 688 474 719 q 586 585 572 657 q 600 356 600 514 l 600 338 m 358 675 q 211 654 256 675 q 153 575 167 633 q 139 382 139 517 l 551 382 l 551 411 q 535 585 551 531 q 479 658 518 640 q 358 675 440 675 m 178 840 l 178 847 l 308 1032 l 372 1032 l 503 847 l 503 840 l 465 840 l 340 990 l 215 840 l 178 840 m 474 1032 l 333 1217 l 333 1224 l 394 1224 l 510 1039 l 510 1032 l 474 1032 z "},"ể":{"ha":692,"x_min":90,"x_max":608,"o":"m 600 338 l 139 338 q 153 144 139 204 q 215 58 168 83 q 365 33 261 33 q 474 39 415 33 q 576 53 533 44 l 576 7 q 481 -6 542 -1 q 360 -11 421 -11 q 184 19 240 -11 q 109 123 128 49 q 90 353 90 197 q 105 582 90 511 q 176 686 119 653 q 361 719 232 719 q 523 688 474 719 q 586 585 572 657 q 600 356 600 514 l 600 338 m 358 675 q 211 654 256 675 q 153 575 167 633 q 139 382 139 517 l 551 382 l 551 411 q 535 585 551 531 q 479 658 518 640 q 358 675 440 675 m 183 840 l 183 847 l 314 1032 l 378 1032 l 508 847 l 508 840 l 471 840 l 346 990 l 221 840 l 183 840 m 407 1046 q 419 1088 407 1075 q 463 1108 431 1100 l 492 1117 q 553 1141 539 1129 q 567 1182 567 1153 q 556 1220 567 1208 q 522 1235 546 1232 q 443 1239 497 1239 q 315 1232 394 1239 l 315 1268 q 453 1276 381 1276 q 547 1269 514 1276 q 594 1242 579 1261 q 608 1188 608 1224 q 597 1125 608 1144 q 539 1093 585 1106 l 507 1083 q 464 1069 475 1075 q 450 1057 453 1064 q 447 1032 447 1050 l 407 1032 l 407 1046 z "},"ễ":{"ha":692,"x_min":90,"x_max":600,"o":"m 600 338 l 139 338 q 153 144 139 204 q 215 58 168 83 q 365 33 261 33 q 474 39 415 33 q 576 53 533 44 l 576 7 q 481 -6 542 -1 q 360 -11 421 -11 q 184 19 240 -11 q 109 123 128 49 q 90 353 90 197 q 105 582 90 511 q 176 686 119 653 q 361 719 232 719 q 523 688 474 719 q 586 585 572 657 q 600 356 600 514 l 600 338 m 358 675 q 211 654 256 675 q 153 575 167 633 q 139 382 139 517 l 551 382 l 551 411 q 535 585 551 531 q 479 658 518 640 q 358 675 440 675 m 181 840 l 181 847 l 311 1032 l 375 1032 l 506 847 l 506 840 l 468 840 l 343 990 l 218 840 l 181 840 m 557 1272 q 542 1168 557 1196 q 478 1140 526 1140 q 413 1150 446 1140 q 335 1178 381 1160 q 214 1211 257 1211 q 179 1192 188 1211 q 171 1125 171 1174 l 133 1125 q 149 1228 133 1200 q 214 1257 165 1257 q 277 1247 246 1257 q 358 1218 308 1238 q 425 1194 397 1203 q 478 1186 453 1186 q 512 1204 504 1186 q 519 1272 519 1222 l 557 1272 z "},"ȅ":{"ha":692,"x_min":86,"x_max":600,"o":"m 600 338 l 139 338 q 153 144 139 204 q 215 58 168 83 q 365 33 261 33 q 474 39 415 33 q 576 53 533 44 l 576 7 q 481 -6 542 -1 q 360 -11 421 -11 q 184 19 240 -11 q 109 123 128 49 q 90 353 90 197 q 105 582 90 511 q 176 686 119 653 q 361 719 232 719 q 523 688 474 719 q 586 585 572 657 q 600 356 600 514 l 600 338 m 358 675 q 211 654 256 675 q 153 575 167 633 q 139 382 139 517 l 551 382 l 551 411 q 535 585 551 531 q 479 658 518 640 q 358 675 440 675 m 263 843 l 226 843 l 86 1019 l 86 1026 l 149 1026 l 263 850 l 263 843 m 488 843 l 451 843 l 313 1019 l 313 1026 l 374 1026 l 488 850 l 488 843 z "},"ë":{"ha":692,"x_min":90,"x_max":600,"o":"m 600 338 l 139 338 q 153 144 139 204 q 215 58 168 83 q 365 33 261 33 q 474 39 415 33 q 576 53 533 44 l 576 7 q 481 -6 542 -1 q 360 -11 421 -11 q 184 19 240 -11 q 109 123 128 49 q 90 353 90 197 q 105 582 90 511 q 176 686 119 653 q 361 719 232 719 q 523 688 474 719 q 586 585 572 657 q 600 356 600 514 l 600 338 m 358 675 q 211 654 256 675 q 153 575 167 633 q 139 382 139 517 l 551 382 l 551 411 q 535 585 551 531 q 479 658 518 640 q 358 675 440 675 m 196 931 l 196 1015 l 254 1015 l 254 931 l 196 931 m 442 931 l 442 1015 l 500 1015 l 500 931 l 442 931 z "},"ė":{"ha":692,"x_min":90,"x_max":600,"o":"m 600 338 l 139 338 q 153 144 139 204 q 215 58 168 83 q 365 33 261 33 q 474 39 415 33 q 576 53 533 44 l 576 7 q 481 -6 542 -1 q 360 -11 421 -11 q 184 19 240 -11 q 109 123 128 49 q 90 353 90 197 q 105 582 90 511 q 176 686 119 653 q 361 719 232 719 q 523 688 474 719 q 586 585 572 657 q 600 356 600 514 l 600 338 m 358 675 q 211 654 256 675 q 153 575 167 633 q 139 382 139 517 l 551 382 l 551 411 q 535 585 551 531 q 479 658 518 640 q 358 675 440 675 m 315 931 l 315 1015 l 375 1015 l 375 931 l 315 931 z "},"ẹ":{"ha":692,"x_min":90,"x_max":600,"o":"m 600 338 l 139 338 q 153 144 139 204 q 215 58 168 83 q 365 33 261 33 q 474 39 415 33 q 576 53 533 44 l 576 7 q 481 -6 542 -1 q 360 -11 421 -11 q 184 19 240 -11 q 109 123 128 49 q 90 353 90 197 q 105 582 90 511 q 176 686 119 653 q 361 719 232 719 q 523 688 474 719 q 586 585 572 657 q 600 356 600 514 l 600 338 m 358 675 q 211 654 256 675 q 153 575 167 633 q 139 382 139 517 l 551 382 l 551 411 q 535 585 551 531 q 479 658 518 640 q 358 675 440 675 m 314 -176 l 314 -86 l 378 -86 l 378 -176 l 314 -176 z "},"è":{"ha":692,"x_min":90,"x_max":600,"o":"m 600 338 l 139 338 q 153 144 139 204 q 215 58 168 83 q 365 33 261 33 q 474 39 415 33 q 576 53 533 44 l 576 7 q 481 -6 542 -1 q 360 -11 421 -11 q 184 19 240 -11 q 109 123 128 49 q 90 353 90 197 q 105 582 90 511 q 176 686 119 653 q 361 719 232 719 q 523 688 474 719 q 586 585 572 657 q 600 356 600 514 l 600 338 m 358 675 q 211 654 256 675 q 153 575 167 633 q 139 382 139 517 l 551 382 l 551 411 q 535 585 551 531 q 479 658 518 640 q 358 675 440 675 m 349 840 l 208 1025 l 208 1032 l 269 1032 l 385 847 l 385 840 l 349 840 z "},"ẻ":{"ha":692,"x_min":90,"x_max":600,"o":"m 600 338 l 139 338 q 153 144 139 204 q 215 58 168 83 q 365 33 261 33 q 474 39 415 33 q 576 53 533 44 l 576 7 q 481 -6 542 -1 q 360 -11 421 -11 q 184 19 240 -11 q 109 123 128 49 q 90 353 90 197 q 105 582 90 511 q 176 686 119 653 q 361 719 232 719 q 523 688 474 719 q 586 585 572 657 q 600 356 600 514 l 600 338 m 358 675 q 211 654 256 675 q 153 575 167 633 q 139 382 139 517 l 551 382 l 551 411 q 535 585 551 531 q 479 658 518 640 q 358 675 440 675 m 290 858 q 302 900 290 888 q 346 921 314 913 l 375 929 q 436 953 422 942 q 450 994 450 965 q 440 1033 450 1021 q 405 1048 429 1044 q 326 1051 381 1051 q 199 1044 278 1051 l 199 1081 q 336 1089 264 1089 q 430 1081 397 1089 q 477 1055 463 1074 q 492 1000 492 1036 q 480 938 492 957 q 422 906 468 918 l 390 896 q 347 882 358 888 q 333 869 336 876 q 331 844 331 863 l 290 844 l 290 858 z "},"ȇ":{"ha":692,"x_min":90,"x_max":600,"o":"m 600 338 l 139 338 q 153 144 139 204 q 215 58 168 83 q 365 33 261 33 q 474 39 415 33 q 576 53 533 44 l 576 7 q 481 -6 542 -1 q 360 -11 421 -11 q 184 19 240 -11 q 109 123 128 49 q 90 353 90 197 q 105 582 90 511 q 176 686 119 653 q 361 719 232 719 q 523 688 474 719 q 586 585 572 657 q 600 356 600 514 l 600 338 m 358 675 q 211 654 256 675 q 153 575 167 633 q 139 382 139 517 l 551 382 l 551 411 q 535 585 551 531 q 479 658 518 640 q 358 675 440 675 m 185 844 q 193 955 185 917 q 236 1017 201 993 q 347 1040 271 1040 q 458 1017 424 1040 q 501 955 493 993 q 508 844 508 917 l 464 844 q 458 938 464 907 q 428 985 453 968 q 347 1001 403 1001 q 266 985 292 1001 q 235 938 240 968 q 229 844 229 907 l 185 844 z "},"ē":{"ha":692,"x_min":90,"x_max":600,"o":"m 600 338 l 139 338 q 153 144 139 204 q 215 58 168 83 q 365 33 261 33 q 474 39 415 33 q 576 53 533 44 l 576 7 q 481 -6 542 -1 q 360 -11 421 -11 q 184 19 240 -11 q 109 123 128 49 q 90 353 90 197 q 105 582 90 511 q 176 686 119 653 q 361 719 232 719 q 523 688 474 719 q 586 585 572 657 q 600 356 600 514 l 600 338 m 358 675 q 211 654 256 675 q 153 575 167 633 q 139 382 139 517 l 551 382 l 551 411 q 535 585 551 531 q 479 658 518 640 q 358 675 440 675 m 201 981 l 201 1031 l 488 1031 l 488 981 l 201 981 z "},"ę":{"ha":692,"x_min":90,"x_max":600,"o":"m 600 338 l 139 338 q 153 144 139 204 q 215 58 168 83 q 365 33 261 33 q 474 39 415 33 q 576 53 533 44 l 576 7 q 511 -72 542 -21 q 481 -165 481 -124 q 496 -210 481 -193 q 546 -228 511 -228 l 569 -226 l 569 -271 q 539 -272 557 -272 q 459 -245 485 -272 q 433 -175 433 -218 q 456 -86 433 -132 q 518 -3 479 -40 q 360 -11 447 -11 q 184 19 240 -11 q 109 123 128 49 q 90 353 90 197 q 105 582 90 511 q 176 686 119 653 q 361 719 232 719 q 523 688 474 719 q 586 585 572 657 q 600 356 600 514 l 600 338 m 358 675 q 211 654 256 675 q 153 575 167 633 q 139 382 139 517 l 551 382 l 551 411 q 535 585 551 531 q 479 658 518 640 q 358 675 440 675 z "},"ẽ":{"ha":692,"x_min":90,"x_max":600,"o":"m 600 338 l 139 338 q 153 144 139 204 q 215 58 168 83 q 365 33 261 33 q 474 39 415 33 q 576 53 533 44 l 576 7 q 481 -6 542 -1 q 360 -11 421 -11 q 184 19 240 -11 q 109 123 128 49 q 90 353 90 197 q 105 582 90 511 q 176 686 119 653 q 361 719 232 719 q 523 688 474 719 q 586 585 572 657 q 600 356 600 514 l 600 338 m 358 675 q 211 654 256 675 q 153 575 167 633 q 139 382 139 517 l 551 382 l 551 411 q 535 585 551 531 q 479 658 518 640 q 358 675 440 675 m 557 1032 q 542 928 557 956 q 478 900 526 900 q 413 910 446 900 q 335 938 381 919 q 214 971 257 971 q 179 952 188 971 q 171 885 171 933 l 133 885 q 149 988 133 960 q 214 1017 165 1017 q 277 1007 246 1017 q 358 978 308 997 q 425 954 397 963 q 478 946 453 946 q 512 964 504 946 q 519 1032 519 982 l 557 1032 z "},"ə":{"ha":692,"x_min":92,"x_max":601,"o":"m 332 719 q 508 690 451 719 q 583 585 564 660 q 601 356 601 511 q 587 126 601 197 q 516 22 572 56 q 331 -11 460 -11 q 169 20 218 -11 q 106 123 119 51 q 92 353 92 194 l 92 371 l 553 371 q 538 565 553 504 q 477 650 524 625 q 326 675 431 675 q 217 669 276 675 q 115 656 158 664 l 115 701 q 210 715 150 710 q 332 719 271 719 m 333 33 q 481 54 436 33 q 539 133 525 75 q 553 326 553 192 l 140 326 l 140 297 q 157 123 140 178 q 213 51 174 68 q 333 33 251 33 z "},"f":{"ha":422,"x_min":38,"x_max":381,"o":"m 168 664 l 38 664 l 38 708 l 168 708 l 168 868 q 192 974 168 939 q 259 1021 215 1010 q 381 1032 303 1032 l 381 990 q 280 981 314 990 q 231 948 246 972 q 217 876 217 924 l 217 708 l 381 708 l 381 664 l 217 664 l 217 0 l 168 0 l 168 664 z "},"g":{"ha":732,"x_min":90,"x_max":611,"o":"m 336 -282 q 111 -274 228 -282 l 111 -228 q 331 -237 225 -237 q 483 -210 435 -237 q 547 -117 531 -182 q 563 85 563 -51 l 563 99 l 557 99 q 483 14 536 39 q 339 -11 431 -11 q 180 19 232 -11 q 109 124 128 49 q 90 354 90 199 q 109 585 90 510 q 180 690 128 660 q 339 719 232 719 q 483 695 426 719 q 563 597 540 671 l 568 597 l 574 708 l 611 708 l 611 104 q 592 -132 611 -53 q 514 -247 572 -211 q 336 -282 456 -282 m 351 33 q 479 60 432 33 q 544 146 526 88 q 559 231 556 185 q 563 354 563 278 q 560 476 563 433 q 547 553 557 519 q 482 647 529 618 q 351 675 435 675 q 211 653 254 675 q 153 566 168 631 q 139 354 139 501 q 153 142 139 207 q 211 56 168 78 q 351 33 254 33 z "},"ǵ":{"ha":732,"x_min":90,"x_max":611,"o":"m 336 -282 q 111 -274 228 -282 l 111 -228 q 331 -237 225 -237 q 483 -210 435 -237 q 547 -117 531 -182 q 563 85 563 -51 l 563 99 l 557 99 q 483 14 536 39 q 339 -11 431 -11 q 180 19 232 -11 q 109 124 128 49 q 90 354 90 199 q 109 585 90 510 q 180 690 128 660 q 339 719 232 719 q 483 695 426 719 q 563 597 540 671 l 568 597 l 574 708 l 611 708 l 611 104 q 592 -132 611 -53 q 514 -247 572 -211 q 336 -282 456 -282 m 351 33 q 479 60 432 33 q 544 146 526 88 q 559 231 556 185 q 563 354 563 278 q 560 476 563 433 q 547 553 557 519 q 482 647 529 618 q 351 675 435 675 q 211 653 254 675 q 153 566 168 631 q 139 354 139 501 q 153 142 139 207 q 211 56 168 78 q 351 33 254 33 m 343 840 l 343 847 l 458 1032 l 519 1032 l 519 1025 l 379 840 l 343 840 z "},"ğ":{"ha":732,"x_min":90,"x_max":611,"o":"m 336 -282 q 111 -274 228 -282 l 111 -228 q 331 -237 225 -237 q 483 -210 435 -237 q 547 -117 531 -182 q 563 85 563 -51 l 563 99 l 557 99 q 483 14 536 39 q 339 -11 431 -11 q 180 19 232 -11 q 109 124 128 49 q 90 354 90 199 q 109 585 90 510 q 180 690 128 660 q 339 719 232 719 q 483 695 426 719 q 563 597 540 671 l 568 597 l 574 708 l 611 708 l 611 104 q 592 -132 611 -53 q 514 -247 572 -211 q 336 -282 456 -282 m 351 33 q 479 60 432 33 q 544 146 526 88 q 559 231 556 185 q 563 354 563 278 q 560 476 563 433 q 547 553 557 519 q 482 647 529 618 q 351 675 435 675 q 211 653 254 675 q 153 566 168 631 q 139 354 139 501 q 153 142 139 207 q 211 56 168 78 q 351 33 254 33 m 528 1032 q 519 922 528 960 q 476 860 511 883 q 365 836 442 836 q 254 860 289 836 q 212 922 219 883 q 204 1032 204 960 l 249 1032 q 254 939 249 969 q 285 892 260 908 q 365 875 310 875 q 447 892 421 875 q 478 939 472 908 q 483 1032 483 969 l 528 1032 z "},"ǧ":{"ha":732,"x_min":90,"x_max":611,"o":"m 336 -282 q 111 -274 228 -282 l 111 -228 q 331 -237 225 -237 q 483 -210 435 -237 q 547 -117 531 -182 q 563 85 563 -51 l 563 99 l 557 99 q 483 14 536 39 q 339 -11 431 -11 q 180 19 232 -11 q 109 124 128 49 q 90 354 90 199 q 109 585 90 510 q 180 690 128 660 q 339 719 232 719 q 483 695 426 719 q 563 597 540 671 l 568 597 l 574 708 l 611 708 l 611 104 q 592 -132 611 -53 q 514 -247 572 -211 q 336 -282 456 -282 m 351 33 q 479 60 432 33 q 544 146 526 88 q 559 231 556 185 q 563 354 563 278 q 560 476 563 433 q 547 553 557 519 q 482 647 529 618 q 351 675 435 675 q 211 653 254 675 q 153 566 168 631 q 139 354 139 501 q 153 142 139 207 q 211 56 168 78 q 351 33 254 33 m 335 840 l 204 1025 l 204 1032 l 242 1032 l 367 882 l 492 1032 l 529 1032 l 529 1025 l 399 840 l 335 840 z "},"ĝ":{"ha":732,"x_min":90,"x_max":611,"o":"m 336 -282 q 111 -274 228 -282 l 111 -228 q 331 -237 225 -237 q 483 -210 435 -237 q 547 -117 531 -182 q 563 85 563 -51 l 563 99 l 557 99 q 483 14 536 39 q 339 -11 431 -11 q 180 19 232 -11 q 109 124 128 49 q 90 354 90 199 q 109 585 90 510 q 180 690 128 660 q 339 719 232 719 q 483 695 426 719 q 563 597 540 671 l 568 597 l 574 708 l 611 708 l 611 104 q 592 -132 611 -53 q 514 -247 572 -211 q 336 -282 456 -282 m 351 33 q 479 60 432 33 q 544 146 526 88 q 559 231 556 185 q 563 354 563 278 q 560 476 563 433 q 547 553 557 519 q 482 647 529 618 q 351 675 435 675 q 211 653 254 675 q 153 566 168 631 q 139 354 139 501 q 153 142 139 207 q 211 56 168 78 q 351 33 254 33 m 204 840 l 204 847 l 335 1032 l 399 1032 l 529 847 l 529 840 l 492 840 l 367 990 l 242 840 l 204 840 z "},"ģ":{"ha":732,"x_min":90,"x_max":611,"o":"m 336 -282 q 111 -274 228 -282 l 111 -228 q 331 -237 225 -237 q 483 -210 435 -237 q 547 -117 531 -182 q 563 85 563 -51 l 563 99 l 557 99 q 483 14 536 39 q 339 -11 431 -11 q 180 19 232 -11 q 109 124 128 49 q 90 354 90 199 q 109 585 90 510 q 180 690 128 660 q 339 719 232 719 q 483 695 426 719 q 563 597 540 671 l 568 597 l 574 708 l 611 708 l 611 104 q 592 -132 611 -53 q 514 -247 572 -211 q 336 -282 456 -282 m 351 33 q 479 60 432 33 q 544 146 526 88 q 559 231 556 185 q 563 354 563 278 q 560 476 563 433 q 547 553 557 519 q 482 647 529 618 q 351 675 435 675 q 211 653 254 675 q 153 566 168 631 q 139 354 139 501 q 153 142 139 207 q 211 56 168 78 q 351 33 254 33 m 439 1044 q 394 1037 408 1044 q 376 1012 381 1029 q 372 957 372 994 l 372 933 l 400 933 l 400 843 l 333 843 l 333 947 q 342 1025 333 999 q 374 1063 351 1051 q 439 1074 396 1074 l 439 1044 z "},"ġ":{"ha":732,"x_min":90,"x_max":611,"o":"m 336 -282 q 111 -274 228 -282 l 111 -228 q 331 -237 225 -237 q 483 -210 435 -237 q 547 -117 531 -182 q 563 85 563 -51 l 563 99 l 557 99 q 483 14 536 39 q 339 -11 431 -11 q 180 19 232 -11 q 109 124 128 49 q 90 354 90 199 q 109 585 90 510 q 180 690 128 660 q 339 719 232 719 q 483 695 426 719 q 563 597 540 671 l 568 597 l 574 708 l 611 708 l 611 104 q 592 -132 611 -53 q 514 -247 572 -211 q 336 -282 456 -282 m 351 33 q 479 60 432 33 q 544 146 526 88 q 559 231 556 185 q 563 354 563 278 q 560 476 563 433 q 547 553 557 519 q 482 647 529 618 q 351 675 435 675 q 211 653 254 675 q 153 566 168 631 q 139 354 139 501 q 153 142 139 207 q 211 56 168 78 q 351 33 254 33 m 336 931 l 336 1015 l 396 1015 l 396 931 l 336 931 z "},"h":{"ha":739,"x_min":121,"x_max":621,"o":"m 572 438 q 558 593 572 544 q 504 658 543 642 q 381 675 465 675 q 235 636 281 675 q 180 537 190 597 q 169 367 169 476 l 169 0 l 121 0 l 121 1032 l 169 1032 l 169 611 l 175 611 q 392 719 214 719 q 539 693 490 719 q 604 610 588 667 q 621 444 621 553 l 621 0 l 572 0 l 572 438 z "},"ħ":{"ha":739,"x_min":32,"x_max":621,"o":"m 392 719 q 539 693 490 719 q 604 610 588 667 q 621 444 621 553 l 621 0 l 572 0 l 572 438 q 558 593 572 544 q 504 658 543 642 q 381 675 465 675 q 235 636 281 675 q 180 537 190 597 q 169 367 169 476 l 169 0 l 121 0 l 121 911 l 32 911 l 32 956 l 121 956 l 121 1032 l 169 1032 l 169 956 l 363 956 l 363 911 l 169 911 l 169 611 l 175 611 q 392 719 214 719 z "},"ĥ":{"ha":739,"x_min":-17,"x_max":621,"o":"m 572 438 q 558 593 572 544 q 504 658 543 642 q 381 675 465 675 q 235 636 281 675 q 180 537 190 597 q 169 367 169 476 l 169 0 l 121 0 l 121 1032 l 169 1032 l 169 611 l 175 611 q 392 719 214 719 q 539 693 490 719 q 604 610 588 667 q 621 444 621 553 l 621 0 l 572 0 l 572 438 m -17 1088 l -17 1094 l 114 1279 l 178 1279 l 308 1094 l 308 1088 l 271 1088 l 146 1238 l 21 1088 l -17 1088 z "},"ḥ":{"ha":739,"x_min":121,"x_max":621,"o":"m 572 438 q 558 593 572 544 q 504 658 543 642 q 381 675 465 675 q 235 636 281 675 q 180 537 190 597 q 169 367 169 476 l 169 0 l 121 0 l 121 1032 l 169 1032 l 169 611 l 175 611 q 392 719 214 719 q 539 693 490 719 q 604 610 588 667 q 621 444 621 553 l 621 0 l 572 0 l 572 438 m 338 -176 l 338 -86 l 401 -86 l 401 -176 l 338 -176 z "},"i":{"ha":290,"x_min":117,"x_max":174,"o":"m 117 947 l 117 1032 l 174 1032 l 174 947 l 117 947 m 121 0 l 121 708 l 169 708 l 169 0 l 121 0 z "},"ı":{"ha":290,"x_min":121,"x_max":169,"o":"m 121 0 l 121 708 l 169 708 l 169 0 l 121 0 z "},"í":{"ha":290,"x_min":117,"x_max":293,"o":"m 121 0 l 121 708 l 169 708 l 169 0 l 121 0 m 117 840 l 117 847 l 232 1032 l 293 1032 l 293 1025 l 153 840 l 117 840 z "},"ĭ":{"ha":290,"x_min":-17,"x_max":307,"o":"m 121 0 l 121 708 l 169 708 l 169 0 l 121 0 m 307 1032 q 299 922 307 960 q 256 860 290 883 q 144 836 221 836 q 33 860 68 836 q -9 922 -1 883 q -17 1032 -17 960 l 28 1032 q 33 939 28 969 q 64 892 39 908 q 144 875 89 875 q 226 892 200 875 q 257 939 251 908 q 263 1032 263 969 l 307 1032 z "},"ǐ":{"ha":290,"x_min":-17,"x_max":308,"o":"m 121 0 l 121 708 l 169 708 l 169 0 l 121 0 m 114 840 l -17 1025 l -17 1032 l 21 1032 l 146 882 l 271 1032 l 308 1032 l 308 1025 l 178 840 l 114 840 z "},"î":{"ha":290,"x_min":-17,"x_max":308,"o":"m 121 0 l 121 708 l 169 708 l 169 0 l 121 0 m -17 840 l -17 847 l 114 1032 l 178 1032 l 308 847 l 308 840 l 271 840 l 146 990 l 21 840 l -17 840 z "},"ȉ":{"ha":290,"x_min":-114,"x_max":288,"o":"m 121 0 l 121 708 l 169 708 l 169 0 l 121 0 m 63 843 l 26 843 l -114 1019 l -114 1026 l -51 1026 l 63 850 l 63 843 m 288 843 l 251 843 l 113 1019 l 113 1026 l 174 1026 l 288 850 l 288 843 z "},"ï":{"ha":290,"x_min":-7,"x_max":297,"o":"m 121 0 l 121 708 l 169 708 l 169 0 l 121 0 m -7 931 l -7 1015 l 51 1015 l 51 931 l -7 931 m 239 931 l 239 1015 l 297 1015 l 297 931 l 239 931 z "},"ị":{"ha":290,"x_min":85,"x_max":174,"o":"m 117 947 l 117 1032 l 174 1032 l 174 947 l 117 947 m 121 0 l 121 708 l 169 708 l 169 0 l 121 0 m 85 -176 l 85 -86 l 149 -86 l 149 -176 l 85 -176 z "},"ì":{"ha":290,"x_min":-4,"x_max":172,"o":"m 121 0 l 121 708 l 169 708 l 169 0 l 121 0 m 136 840 l -4 1025 l -4 1032 l 57 1032 l 172 847 l 172 840 l 136 840 z "},"ỉ":{"ha":290,"x_min":-1,"x_max":292,"o":"m 121 0 l 121 708 l 169 708 l 169 0 l 121 0 m 90 858 q 102 900 90 888 q 146 921 114 913 l 175 929 q 236 953 222 942 q 250 994 250 965 q 240 1033 250 1021 q 205 1048 229 1044 q 126 1051 181 1051 q -1 1044 78 1051 l -1 1081 q 136 1089 64 1089 q 230 1081 197 1089 q 277 1055 263 1074 q 292 1000 292 1036 q 280 938 292 957 q 222 906 268 918 l 190 896 q 147 882 158 888 q 133 869 136 876 q 131 844 131 863 l 90 844 l 90 858 z "},"ȋ":{"ha":290,"x_min":-15,"x_max":308,"o":"m 121 0 l 121 708 l 169 708 l 169 0 l 121 0 m -15 844 q -7 955 -15 917 q 36 1017 1 993 q 147 1040 71 1040 q 258 1017 224 1040 q 301 955 293 993 q 308 844 308 917 l 264 844 q 258 938 264 907 q 228 985 253 968 q 147 1001 203 1001 q 66 985 92 1001 q 35 938 40 968 q 29 844 29 907 l -15 844 z "},"ĳ":{"ha":581,"x_min":117,"x_max":464,"o":"m 117 947 l 117 1032 l 174 1032 l 174 947 l 117 947 m 121 0 l 121 708 l 169 708 l 169 0 l 121 0 m 407 947 l 407 1032 l 464 1032 l 464 947 l 407 947 m 288 -232 q 370 -225 344 -232 q 403 -203 396 -218 q 411 -153 411 -187 l 411 708 l 460 708 l 460 -139 q 442 -230 460 -201 q 390 -266 424 -258 q 288 -274 356 -274 l 288 -232 z "},"ī":{"ha":290,"x_min":1,"x_max":288,"o":"m 121 0 l 121 708 l 169 708 l 169 0 l 121 0 m 1 981 l 1 1031 l 288 1031 l 288 981 l 1 981 z "},"į":{"ha":290,"x_min":35,"x_max":175,"o":"m 115 1015 l 175 1015 l 175 931 l 115 931 l 115 1015 m 82 -164 q 147 -228 82 -228 l 171 -226 l 171 -271 q 140 -272 158 -272 q 60 -245 86 -272 q 35 -172 35 -218 q 58 -85 35 -132 q 121 0 82 -37 l 121 708 l 169 708 l 169 0 q 110 -76 139 -26 q 82 -164 82 -125 z "},"ĩ":{"ha":290,"x_min":-67,"x_max":357,"o":"m 121 0 l 121 708 l 169 708 l 169 0 l 121 0 m 357 1032 q 342 928 357 956 q 278 900 326 900 q 213 910 246 900 q 135 938 181 919 q 14 971 57 971 q -21 952 -12 971 q -29 885 -29 933 l -67 885 q -51 988 -67 960 q 14 1017 -35 1017 q 77 1007 46 1017 q 158 978 108 997 q 225 954 197 963 q 278 946 253 946 q 312 964 304 946 q 319 1032 319 982 l 357 1032 z "},"j":{"ha":290,"x_min":-3,"x_max":174,"o":"m 117 947 l 117 1032 l 174 1032 l 174 947 l 117 947 m -3 -232 q 80 -225 54 -232 q 113 -203 106 -218 q 121 -153 121 -187 l 121 708 l 169 708 l 169 -139 q 151 -230 169 -201 q 99 -266 133 -258 q -3 -274 65 -274 l -3 -232 z "},"ȷ":{"ha":290,"x_min":-3,"x_max":169,"o":"m -3 -232 q 80 -225 54 -232 q 113 -203 106 -218 q 121 -153 121 -187 l 121 708 l 169 708 l 169 -139 q 151 -230 169 -201 q 99 -266 133 -258 q -3 -274 65 -274 l -3 -232 z "},"ĵ":{"ha":290,"x_min":-17,"x_max":308,"o":"m -3 -232 q 80 -225 54 -232 q 113 -203 106 -218 q 121 -153 121 -187 l 121 708 l 169 708 l 169 -139 q 151 -230 169 -201 q 99 -266 133 -258 q -3 -274 65 -274 l -3 -232 m -17 840 l -17 847 l 114 1032 l 178 1032 l 308 847 l 308 840 l 271 840 l 146 990 l 21 840 l -17 840 z "},"k":{"ha":638,"x_min":121,"x_max":592,"o":"m 531 0 l 276 338 l 169 338 l 169 0 l 121 0 l 121 1032 l 169 1032 l 169 385 l 276 385 l 528 708 l 586 708 l 317 364 l 592 0 l 531 0 z "},"ķ":{"ha":638,"x_min":121,"x_max":592,"o":"m 531 0 l 276 338 l 169 338 l 169 0 l 121 0 l 121 1032 l 169 1032 l 169 385 l 276 385 l 528 708 l 586 708 l 317 364 l 592 0 l 531 0 m 265 -287 q 310 -280 296 -287 q 328 -255 324 -272 q 332 -200 332 -237 l 332 -176 l 304 -176 l 304 -86 l 371 -86 l 371 -190 q 362 -268 371 -242 q 331 -306 353 -294 q 265 -317 308 -317 l 265 -287 z "},"ĸ":{"ha":638,"x_min":121,"x_max":592,"o":"m 531 0 l 276 338 l 169 338 l 169 0 l 121 0 l 121 708 l 169 708 l 169 385 l 276 385 l 528 708 l 586 708 l 317 364 l 592 0 l 531 0 z "},"l":{"ha":290,"x_min":121,"x_max":169,"o":"m 121 0 l 121 1032 l 169 1032 l 169 0 l 121 0 z "},"ĺ":{"ha":290,"x_min":121,"x_max":299,"o":"m 121 0 l 121 1032 l 169 1032 l 169 0 l 121 0 m 122 1088 l 122 1094 l 238 1279 l 299 1279 l 299 1272 l 158 1088 l 122 1088 z "},"ľ":{"ha":290,"x_min":121,"x_max":308,"o":"m 121 0 l 121 1032 l 169 1032 l 169 0 l 121 0 m 238 631 l 254 832 l 254 956 l 308 956 l 308 832 l 269 631 l 238 631 z "},"ļ":{"ha":290,"x_min":93,"x_max":199,"o":"m 121 0 l 121 1032 l 169 1032 l 169 0 l 121 0 m 93 -287 q 138 -280 124 -287 q 156 -255 151 -272 q 160 -200 160 -237 l 160 -176 l 132 -176 l 132 -86 l 199 -86 l 199 -190 q 190 -268 199 -242 q 158 -306 181 -294 q 93 -317 136 -317 l 93 -287 z "},"ŀ":{"ha":308,"x_min":121,"x_max":331,"o":"m 121 0 l 121 1032 l 169 1032 l 169 0 l 121 0 m 267 371 l 267 461 l 331 461 l 331 371 l 267 371 z "},"ǉ":{"ha":581,"x_min":121,"x_max":464,"o":"m 121 0 l 121 1032 l 169 1032 l 169 0 l 121 0 m 407 947 l 407 1032 l 464 1032 l 464 947 l 407 947 m 288 -232 q 370 -225 344 -232 q 403 -203 396 -218 q 411 -153 411 -187 l 411 708 l 460 708 l 460 -139 q 442 -230 460 -201 q 390 -266 424 -258 q 288 -274 356 -274 l 288 -232 z "},"ł":{"ha":292,"x_min":38,"x_max":258,"o":"m 121 0 l 121 469 l 38 440 l 38 489 l 121 518 l 121 1032 l 169 1032 l 169 535 l 258 567 l 258 518 l 169 486 l 169 0 l 121 0 z "},"m":{"ha":1110,"x_min":121,"x_max":992,"o":"m 943 438 q 931 593 943 544 q 883 658 918 642 q 772 675 849 675 q 640 639 681 675 q 590 543 599 603 q 581 367 581 483 l 581 0 l 532 0 l 532 438 q 519 593 532 544 q 473 658 507 642 q 363 675 439 675 q 231 636 272 675 q 179 537 189 597 q 169 367 169 476 l 169 0 l 121 0 l 121 708 l 160 708 l 164 597 l 169 597 q 229 686 185 653 q 371 719 274 719 q 509 692 465 719 q 568 597 553 664 l 575 597 q 637 686 590 653 q 781 719 683 719 q 916 693 871 719 q 976 609 961 667 q 992 444 992 551 l 992 0 l 943 0 l 943 438 z "},"n":{"ha":739,"x_min":121,"x_max":621,"o":"m 572 438 q 558 593 572 544 q 504 658 543 642 q 381 675 465 675 q 235 636 281 675 q 180 537 190 597 q 169 367 169 476 l 169 0 l 121 0 l 121 708 l 160 708 l 164 597 l 169 597 q 236 686 188 653 q 392 719 285 719 q 539 693 490 719 q 604 610 588 667 q 621 444 621 553 l 621 0 l 572 0 l 572 438 z "},"ń":{"ha":739,"x_min":121,"x_max":621,"o":"m 572 438 q 558 593 572 544 q 504 658 543 642 q 381 675 465 675 q 235 636 281 675 q 180 537 190 597 q 169 367 169 476 l 169 0 l 121 0 l 121 708 l 160 708 l 164 597 l 169 597 q 236 686 188 653 q 392 719 285 719 q 539 693 490 719 q 604 610 588 667 q 621 444 621 553 l 621 0 l 572 0 l 572 438 m 346 840 l 346 847 l 461 1032 l 522 1032 l 522 1025 l 382 840 l 346 840 z "},"ŉ":{"ha":739,"x_min":6,"x_max":621,"o":"m 6 831 q 50 838 36 831 q 68 863 64 846 q 72 918 72 881 l 72 942 l 44 942 l 44 1032 l 110 1032 l 110 928 q 101 850 110 876 q 71 813 93 824 q 6 801 49 801 l 6 831 m 572 438 q 558 593 572 544 q 504 658 543 642 q 381 675 465 675 q 235 636 281 675 q 180 537 190 597 q 169 367 169 476 l 169 0 l 121 0 l 121 708 l 160 708 l 164 597 l 169 597 q 236 686 188 653 q 392 719 285 719 q 539 693 490 719 q 604 610 588 667 q 621 444 621 553 l 621 0 l 572 0 l 572 438 z "},"ň":{"ha":739,"x_min":121,"x_max":621,"o":"m 572 438 q 558 593 572 544 q 504 658 543 642 q 381 675 465 675 q 235 636 281 675 q 180 537 190 597 q 169 367 169 476 l 169 0 l 121 0 l 121 708 l 160 708 l 164 597 l 169 597 q 236 686 188 653 q 392 719 285 719 q 539 693 490 719 q 604 610 588 667 q 621 444 621 553 l 621 0 l 572 0 l 572 438 m 338 840 l 207 1025 l 207 1032 l 244 1032 l 369 882 l 494 1032 l 532 1032 l 532 1025 l 401 840 l 338 840 z "},"ņ":{"ha":739,"x_min":121,"x_max":621,"o":"m 572 438 q 558 593 572 544 q 504 658 543 642 q 381 675 465 675 q 235 636 281 675 q 180 537 190 597 q 169 367 169 476 l 169 0 l 121 0 l 121 708 l 160 708 l 164 597 l 169 597 q 236 686 188 653 q 392 719 285 719 q 539 693 490 719 q 604 610 588 667 q 621 444 621 553 l 621 0 l 572 0 l 572 438 m 317 -287 q 361 -280 347 -287 q 379 -255 375 -272 q 383 -200 383 -237 l 383 -176 l 356 -176 l 356 -86 l 422 -86 l 422 -190 q 413 -268 422 -242 q 382 -306 404 -294 q 317 -317 360 -317 l 317 -287 z "},"ṅ":{"ha":739,"x_min":121,"x_max":621,"o":"m 572 438 q 558 593 572 544 q 504 658 543 642 q 381 675 465 675 q 235 636 281 675 q 180 537 190 597 q 169 367 169 476 l 169 0 l 121 0 l 121 708 l 160 708 l 164 597 l 169 597 q 236 686 188 653 q 392 719 285 719 q 539 693 490 719 q 604 610 588 667 q 621 444 621 553 l 621 0 l 572 0 l 572 438 m 339 931 l 339 1015 l 399 1015 l 399 931 l 339 931 z "},"ŋ":{"ha":739,"x_min":121,"x_max":621,"o":"m 392 719 q 539 693 490 719 q 604 610 588 667 q 621 444 621 553 l 621 -139 q 603 -230 621 -201 q 551 -266 585 -258 q 449 -274 517 -274 l 449 -232 q 531 -225 506 -232 q 565 -203 557 -218 q 572 -153 572 -187 l 572 438 q 558 593 572 544 q 504 658 543 642 q 381 675 465 675 q 235 636 281 675 q 180 537 190 597 q 169 367 169 476 l 169 0 l 121 0 l 121 708 l 160 708 l 164 597 l 169 597 q 236 686 188 653 q 392 719 285 719 z "},"ɲ":{"ha":739,"x_min":-3,"x_max":621,"o":"m -3 -232 q 80 -225 54 -232 q 113 -203 106 -218 q 121 -153 121 -187 l 121 708 l 160 708 l 164 597 l 169 597 q 236 686 188 653 q 392 719 285 719 q 539 693 490 719 q 604 610 588 667 q 621 444 621 553 l 621 0 l 572 0 l 572 438 q 558 593 572 544 q 504 658 543 642 q 381 675 465 675 q 235 636 281 675 q 180 538 190 597 q 169 368 169 478 l 169 -139 q 151 -230 169 -201 q 99 -266 133 -258 q -3 -274 65 -274 l -3 -232 z "},"ǌ":{"ha":1029,"x_min":121,"x_max":913,"o":"m 572 438 q 558 593 572 544 q 504 658 543 642 q 381 675 465 675 q 235 636 281 675 q 180 537 190 597 q 169 367 169 476 l 169 0 l 121 0 l 121 708 l 160 708 l 164 597 l 169 597 q 236 686 188 653 q 392 719 285 719 q 539 693 490 719 q 604 610 588 667 q 621 444 621 553 l 621 0 l 572 0 l 572 438 m 856 947 l 856 1032 l 913 1032 l 913 947 l 856 947 m 736 -232 q 819 -225 793 -232 q 852 -203 844 -218 q 860 -153 860 -187 l 860 708 l 908 708 l 908 -139 q 890 -230 908 -201 q 838 -266 872 -258 q 736 -274 804 -274 l 736 -232 z "},"ñ":{"ha":739,"x_min":121,"x_max":621,"o":"m 572 438 q 558 593 572 544 q 504 658 543 642 q 381 675 465 675 q 235 636 281 675 q 180 537 190 597 q 169 367 169 476 l 169 0 l 121 0 l 121 708 l 160 708 l 164 597 l 169 597 q 236 686 188 653 q 392 719 285 719 q 539 693 490 719 q 604 610 588 667 q 621 444 621 553 l 621 0 l 572 0 l 572 438 m 583 1032 q 568 928 583 956 q 504 900 553 900 q 440 910 472 900 q 361 938 407 919 q 240 971 283 971 q 206 952 214 971 q 197 885 197 933 l 160 885 q 176 988 160 960 q 240 1017 192 1017 q 303 1007 272 1017 q 385 978 335 997 q 451 954 424 963 q 504 946 479 946 q 538 964 531 946 q 546 1032 546 982 l 583 1032 z "},"o":{"ha":713,"x_min":90,"x_max":622,"o":"m 357 -11 q 175 17 229 -11 q 106 116 121 44 q 90 353 90 188 q 106 591 90 519 q 176 691 121 663 q 357 719 231 719 q 538 691 483 719 q 607 591 592 663 q 622 353 622 519 q 607 116 622 188 q 538 17 592 44 q 357 -11 483 -11 m 357 33 q 510 57 467 33 q 563 140 553 81 q 574 353 574 199 q 563 567 574 507 q 509 651 553 628 q 357 675 465 675 q 203 651 247 675 q 149 567 160 628 q 139 353 139 507 q 149 140 139 199 q 203 57 160 81 q 357 33 247 33 z "},"ó":{"ha":713,"x_min":90,"x_max":622,"o":"m 357 -11 q 175 17 229 -11 q 106 116 121 44 q 90 353 90 188 q 106 591 90 519 q 176 691 121 663 q 357 719 231 719 q 538 691 483 719 q 607 591 592 663 q 622 353 622 519 q 607 116 622 188 q 538 17 592 44 q 357 -11 483 -11 m 357 33 q 510 57 467 33 q 563 140 553 81 q 574 353 574 199 q 563 567 574 507 q 509 651 553 628 q 357 675 465 675 q 203 651 247 675 q 149 567 160 628 q 139 353 139 507 q 149 140 139 199 q 203 57 160 81 q 357 33 247 33 m 321 840 l 321 847 l 436 1032 l 497 1032 l 497 1025 l 357 840 l 321 840 z "},"ŏ":{"ha":713,"x_min":90,"x_max":622,"o":"m 357 -11 q 175 17 229 -11 q 106 116 121 44 q 90 353 90 188 q 106 591 90 519 q 176 691 121 663 q 357 719 231 719 q 538 691 483 719 q 607 591 592 663 q 622 353 622 519 q 607 116 622 188 q 538 17 592 44 q 357 -11 483 -11 m 357 33 q 510 57 467 33 q 563 140 553 81 q 574 353 574 199 q 563 567 574 507 q 509 651 553 628 q 357 675 465 675 q 203 651 247 675 q 149 567 160 628 q 139 353 139 507 q 149 140 139 199 q 203 57 160 81 q 357 33 247 33 m 518 1032 q 510 922 518 960 q 467 860 501 883 q 356 836 432 836 q 244 860 279 836 q 202 922 210 883 q 194 1032 194 960 l 239 1032 q 244 939 239 969 q 275 892 250 908 q 356 875 300 875 q 437 892 411 875 q 468 939 463 908 q 474 1032 474 969 l 518 1032 z "},"ǒ":{"ha":713,"x_min":90,"x_max":622,"o":"m 357 -11 q 175 17 229 -11 q 106 116 121 44 q 90 353 90 188 q 106 591 90 519 q 176 691 121 663 q 357 719 231 719 q 538 691 483 719 q 607 591 592 663 q 622 353 622 519 q 607 116 622 188 q 538 17 592 44 q 357 -11 483 -11 m 357 33 q 510 57 467 33 q 563 140 553 81 q 574 353 574 199 q 563 567 574 507 q 509 651 553 628 q 357 675 465 675 q 203 651 247 675 q 149 567 160 628 q 139 353 139 507 q 149 140 139 199 q 203 57 160 81 q 357 33 247 33 m 325 840 l 194 1025 l 194 1032 l 232 1032 l 357 882 l 482 1032 l 519 1032 l 519 1025 l 389 840 l 325 840 z "},"ô":{"ha":713,"x_min":90,"x_max":622,"o":"m 357 -11 q 175 17 229 -11 q 106 116 121 44 q 90 353 90 188 q 106 591 90 519 q 176 691 121 663 q 357 719 231 719 q 538 691 483 719 q 607 591 592 663 q 622 353 622 519 q 607 116 622 188 q 538 17 592 44 q 357 -11 483 -11 m 357 33 q 510 57 467 33 q 563 140 553 81 q 574 353 574 199 q 563 567 574 507 q 509 651 553 628 q 357 675 465 675 q 203 651 247 675 q 149 567 160 628 q 139 353 139 507 q 149 140 139 199 q 203 57 160 81 q 357 33 247 33 m 194 840 l 194 847 l 325 1032 l 389 1032 l 519 847 l 519 840 l 482 840 l 357 990 l 232 840 l 194 840 z "},"ố":{"ha":713,"x_min":90,"x_max":631,"o":"m 357 -11 q 175 17 229 -11 q 106 116 121 44 q 90 353 90 188 q 106 591 90 519 q 176 691 121 663 q 357 719 231 719 q 538 691 483 719 q 607 591 592 663 q 622 353 622 519 q 607 116 622 188 q 538 17 592 44 q 357 -11 483 -11 m 357 33 q 510 57 467 33 q 563 140 553 81 q 574 353 574 199 q 563 567 574 507 q 509 651 553 628 q 357 675 465 675 q 203 651 247 675 q 149 567 160 628 q 139 353 139 507 q 149 140 139 199 q 203 57 160 81 q 357 33 247 33 m 190 840 l 190 847 l 321 1032 l 385 1032 l 515 847 l 515 840 l 478 840 l 353 990 l 228 840 l 190 840 m 454 1032 l 454 1039 l 569 1224 l 631 1224 l 631 1217 l 490 1032 l 454 1032 z "},"ộ":{"ha":713,"x_min":90,"x_max":622,"o":"m 357 -11 q 175 17 229 -11 q 106 116 121 44 q 90 353 90 188 q 106 591 90 519 q 176 691 121 663 q 357 719 231 719 q 538 691 483 719 q 607 591 592 663 q 622 353 622 519 q 607 116 622 188 q 538 17 592 44 q 357 -11 483 -11 m 357 33 q 510 57 467 33 q 563 140 553 81 q 574 353 574 199 q 563 567 574 507 q 509 651 553 628 q 357 675 465 675 q 203 651 247 675 q 149 567 160 628 q 139 353 139 507 q 149 140 139 199 q 203 57 160 81 q 357 33 247 33 m 325 -176 l 325 -86 l 389 -86 l 389 -176 l 325 -176 m 194 840 l 194 847 l 325 1032 l 389 1032 l 519 847 l 519 840 l 482 840 l 357 990 l 232 840 l 194 840 z "},"ồ":{"ha":713,"x_min":90,"x_max":622,"o":"m 357 -11 q 175 17 229 -11 q 106 116 121 44 q 90 353 90 188 q 106 591 90 519 q 176 691 121 663 q 357 719 231 719 q 538 691 483 719 q 607 591 592 663 q 622 353 622 519 q 607 116 622 188 q 538 17 592 44 q 357 -11 483 -11 m 357 33 q 510 57 467 33 q 563 140 553 81 q 574 353 574 199 q 563 567 574 507 q 509 651 553 628 q 357 675 465 675 q 203 651 247 675 q 149 567 160 628 q 139 353 139 507 q 149 140 139 199 q 203 57 160 81 q 357 33 247 33 m 189 840 l 189 847 l 319 1032 l 383 1032 l 514 847 l 514 840 l 476 840 l 351 990 l 226 840 l 189 840 m 485 1032 l 344 1217 l 344 1224 l 406 1224 l 521 1039 l 521 1032 l 485 1032 z "},"ổ":{"ha":713,"x_min":90,"x_max":622,"o":"m 357 -11 q 175 17 229 -11 q 106 116 121 44 q 90 353 90 188 q 106 591 90 519 q 176 691 121 663 q 357 719 231 719 q 538 691 483 719 q 607 591 592 663 q 622 353 622 519 q 607 116 622 188 q 538 17 592 44 q 357 -11 483 -11 m 357 33 q 510 57 467 33 q 563 140 553 81 q 574 353 574 199 q 563 567 574 507 q 509 651 553 628 q 357 675 465 675 q 203 651 247 675 q 149 567 160 628 q 139 353 139 507 q 149 140 139 199 q 203 57 160 81 q 357 33 247 33 m 194 840 l 194 847 l 325 1032 l 389 1032 l 519 847 l 519 840 l 482 840 l 357 990 l 232 840 l 194 840 m 418 1046 q 430 1088 418 1075 q 474 1108 442 1100 l 503 1117 q 564 1141 550 1129 q 578 1182 578 1153 q 567 1220 578 1208 q 533 1235 557 1232 q 454 1239 508 1239 q 326 1232 406 1239 l 326 1268 q 464 1276 392 1276 q 558 1269 525 1276 q 605 1242 590 1261 q 619 1188 619 1224 q 608 1125 619 1144 q 550 1093 596 1106 l 518 1083 q 475 1069 486 1075 q 461 1057 464 1064 q 458 1032 458 1050 l 418 1032 l 418 1046 z "},"ỗ":{"ha":713,"x_min":90,"x_max":622,"o":"m 357 -11 q 175 17 229 -11 q 106 116 121 44 q 90 353 90 188 q 106 591 90 519 q 176 691 121 663 q 357 719 231 719 q 538 691 483 719 q 607 591 592 663 q 622 353 622 519 q 607 116 622 188 q 538 17 592 44 q 357 -11 483 -11 m 357 33 q 510 57 467 33 q 563 140 553 81 q 574 353 574 199 q 563 567 574 507 q 509 651 553 628 q 357 675 465 675 q 203 651 247 675 q 149 567 160 628 q 139 353 139 507 q 149 140 139 199 q 203 57 160 81 q 357 33 247 33 m 192 840 l 192 847 l 322 1032 l 386 1032 l 517 847 l 517 840 l 479 840 l 354 990 l 229 840 l 192 840 m 568 1272 q 553 1168 568 1196 q 489 1140 538 1140 q 424 1150 457 1140 q 346 1178 392 1160 q 225 1211 268 1211 q 190 1192 199 1211 q 182 1125 182 1174 l 144 1125 q 160 1228 144 1200 q 225 1257 176 1257 q 288 1247 257 1257 q 369 1218 319 1238 q 436 1194 408 1203 q 489 1186 464 1186 q 523 1204 515 1186 q 531 1272 531 1222 l 568 1272 z "},"ȍ":{"ha":713,"x_min":90,"x_max":622,"o":"m 357 -11 q 175 17 229 -11 q 106 116 121 44 q 90 353 90 188 q 106 591 90 519 q 176 691 121 663 q 357 719 231 719 q 538 691 483 719 q 607 591 592 663 q 622 353 622 519 q 607 116 622 188 q 538 17 592 44 q 357 -11 483 -11 m 357 33 q 510 57 467 33 q 563 140 553 81 q 574 353 574 199 q 563 567 574 507 q 509 651 553 628 q 357 675 465 675 q 203 651 247 675 q 149 567 160 628 q 139 353 139 507 q 149 140 139 199 q 203 57 160 81 q 357 33 247 33 m 274 843 l 238 843 l 97 1019 l 97 1026 l 160 1026 l 274 850 l 274 843 m 499 843 l 463 843 l 324 1019 l 324 1026 l 385 1026 l 499 850 l 499 843 z "},"ö":{"ha":713,"x_min":90,"x_max":622,"o":"m 357 -11 q 175 17 229 -11 q 106 116 121 44 q 90 353 90 188 q 106 591 90 519 q 176 691 121 663 q 357 719 231 719 q 538 691 483 719 q 607 591 592 663 q 622 353 622 519 q 607 116 622 188 q 538 17 592 44 q 357 -11 483 -11 m 357 33 q 510 57 467 33 q 563 140 553 81 q 574 353 574 199 q 563 567 574 507 q 509 651 553 628 q 357 675 465 675 q 203 651 247 675 q 149 567 160 628 q 139 353 139 507 q 149 140 139 199 q 203 57 160 81 q 357 33 247 33 m 204 931 l 204 1015 l 263 1015 l 263 931 l 204 931 m 450 931 l 450 1015 l 508 1015 l 508 931 l 450 931 z "},"ọ":{"ha":713,"x_min":90,"x_max":622,"o":"m 357 -11 q 175 17 229 -11 q 106 116 121 44 q 90 353 90 188 q 106 591 90 519 q 176 691 121 663 q 357 719 231 719 q 538 691 483 719 q 607 591 592 663 q 622 353 622 519 q 607 116 622 188 q 538 17 592 44 q 357 -11 483 -11 m 357 33 q 510 57 467 33 q 563 140 553 81 q 574 353 574 199 q 563 567 574 507 q 509 651 553 628 q 357 675 465 675 q 203 651 247 675 q 149 567 160 628 q 139 353 139 507 q 149 140 139 199 q 203 57 160 81 q 357 33 247 33 m 325 -176 l 325 -86 l 389 -86 l 389 -176 l 325 -176 z "},"ò":{"ha":713,"x_min":90,"x_max":622,"o":"m 357 -11 q 175 17 229 -11 q 106 116 121 44 q 90 353 90 188 q 106 591 90 519 q 176 691 121 663 q 357 719 231 719 q 538 691 483 719 q 607 591 592 663 q 622 353 622 519 q 607 116 622 188 q 538 17 592 44 q 357 -11 483 -11 m 357 33 q 510 57 467 33 q 563 140 553 81 q 574 353 574 199 q 563 567 574 507 q 509 651 553 628 q 357 675 465 675 q 203 651 247 675 q 149 567 160 628 q 139 353 139 507 q 149 140 139 199 q 203 57 160 81 q 357 33 247 33 m 360 840 l 219 1025 l 219 1032 l 281 1032 l 396 847 l 396 840 l 360 840 z "},"ỏ":{"ha":713,"x_min":90,"x_max":622,"o":"m 357 -11 q 175 17 229 -11 q 106 116 121 44 q 90 353 90 188 q 106 591 90 519 q 176 691 121 663 q 357 719 231 719 q 538 691 483 719 q 607 591 592 663 q 622 353 622 519 q 607 116 622 188 q 538 17 592 44 q 357 -11 483 -11 m 357 33 q 510 57 467 33 q 563 140 553 81 q 574 353 574 199 q 563 567 574 507 q 509 651 553 628 q 357 675 465 675 q 203 651 247 675 q 149 567 160 628 q 139 353 139 507 q 149 140 139 199 q 203 57 160 81 q 357 33 247 33 m 301 858 q 313 900 301 888 q 357 921 325 913 l 386 929 q 447 953 433 942 q 461 994 461 965 q 451 1033 461 1021 q 416 1048 440 1044 q 338 1051 392 1051 q 210 1044 289 1051 l 210 1081 q 347 1089 275 1089 q 441 1081 408 1089 q 488 1055 474 1074 q 503 1000 503 1036 q 491 938 503 957 q 433 906 479 918 l 401 896 q 358 882 369 888 q 344 869 347 876 q 342 844 342 863 l 301 844 l 301 858 z "},"ơ":{"ha":713,"x_min":90,"x_max":675,"o":"m 675 844 l 675 803 q 666 721 675 749 q 634 681 657 693 q 567 669 611 669 q 612 565 601 635 q 622 353 622 496 q 607 116 622 188 q 538 17 592 44 q 357 -11 483 -11 q 175 17 229 -11 q 106 116 121 44 q 90 353 90 188 q 106 591 90 519 q 176 691 121 663 q 357 719 231 719 q 490 708 444 719 l 564 708 q 619 725 607 708 q 631 793 631 742 l 631 844 l 675 844 m 574 353 q 563 567 574 507 q 509 651 553 628 q 357 675 465 675 q 203 651 247 675 q 149 567 160 628 q 139 353 139 507 q 149 140 139 199 q 203 57 160 81 q 357 33 247 33 q 510 57 467 33 q 563 140 553 81 q 574 353 574 199 z "},"ớ":{"ha":713,"x_min":90,"x_max":675,"o":"m 675 844 l 675 803 q 666 721 675 749 q 634 681 657 693 q 567 669 611 669 q 612 565 601 635 q 622 353 622 496 q 607 116 622 188 q 538 17 592 44 q 357 -11 483 -11 q 175 17 229 -11 q 106 116 121 44 q 90 353 90 188 q 106 591 90 519 q 176 691 121 663 q 357 719 231 719 q 490 708 444 719 l 564 708 q 619 725 607 708 q 631 793 631 742 l 631 844 l 675 844 m 574 353 q 563 567 574 507 q 509 651 553 628 q 357 675 465 675 q 203 651 247 675 q 149 567 160 628 q 139 353 139 507 q 149 140 139 199 q 203 57 160 81 q 357 33 247 33 q 510 57 467 33 q 563 140 553 81 q 574 353 574 199 m 333 840 l 333 847 l 449 1032 l 510 1032 l 510 1025 l 369 840 l 333 840 z "},"ợ":{"ha":713,"x_min":90,"x_max":675,"o":"m 675 844 l 675 803 q 666 721 675 749 q 634 681 657 693 q 567 669 611 669 q 612 565 601 635 q 622 353 622 496 q 607 116 622 188 q 538 17 592 44 q 357 -11 483 -11 q 175 17 229 -11 q 106 116 121 44 q 90 353 90 188 q 106 591 90 519 q 176 691 121 663 q 357 719 231 719 q 490 708 444 719 l 564 708 q 619 725 607 708 q 631 793 631 742 l 631 844 l 675 844 m 574 353 q 563 567 574 507 q 509 651 553 628 q 357 675 465 675 q 203 651 247 675 q 149 567 160 628 q 139 353 139 507 q 149 140 139 199 q 203 57 160 81 q 357 33 247 33 q 510 57 467 33 q 563 140 553 81 q 574 353 574 199 m 325 -176 l 325 -86 l 389 -86 l 389 -176 l 325 -176 z "},"ờ":{"ha":713,"x_min":90,"x_max":675,"o":"m 675 844 l 675 803 q 666 721 675 749 q 634 681 657 693 q 567 669 611 669 q 612 565 601 635 q 622 353 622 496 q 607 116 622 188 q 538 17 592 44 q 357 -11 483 -11 q 175 17 229 -11 q 106 116 121 44 q 90 353 90 188 q 106 591 90 519 q 176 691 121 663 q 357 719 231 719 q 490 708 444 719 l 564 708 q 619 725 607 708 q 631 793 631 742 l 631 844 l 675 844 m 574 353 q 563 567 574 507 q 509 651 553 628 q 357 675 465 675 q 203 651 247 675 q 149 567 160 628 q 139 353 139 507 q 149 140 139 199 q 203 57 160 81 q 357 33 247 33 q 510 57 467 33 q 563 140 553 81 q 574 353 574 199 m 351 840 l 211 1025 l 211 1032 l 272 1032 l 388 847 l 388 840 l 351 840 z "},"ở":{"ha":713,"x_min":90,"x_max":675,"o":"m 675 844 l 675 803 q 666 721 675 749 q 634 681 657 693 q 567 669 611 669 q 612 565 601 635 q 622 353 622 496 q 607 116 622 188 q 538 17 592 44 q 357 -11 483 -11 q 175 17 229 -11 q 106 116 121 44 q 90 353 90 188 q 106 591 90 519 q 176 691 121 663 q 357 719 231 719 q 490 708 444 719 l 564 708 q 619 725 607 708 q 631 793 631 742 l 631 844 l 675 844 m 574 353 q 563 567 574 507 q 509 651 553 628 q 357 675 465 675 q 203 651 247 675 q 149 567 160 628 q 139 353 139 507 q 149 140 139 199 q 203 57 160 81 q 357 33 247 33 q 510 57 467 33 q 563 140 553 81 q 574 353 574 199 m 301 858 q 313 900 301 888 q 357 921 325 913 l 386 929 q 447 953 433 942 q 461 994 461 965 q 451 1033 461 1021 q 416 1048 440 1044 q 338 1051 392 1051 q 210 1044 289 1051 l 210 1081 q 347 1089 275 1089 q 441 1081 408 1089 q 488 1055 474 1074 q 503 1000 503 1036 q 491 938 503 957 q 433 906 479 918 l 401 896 q 358 882 369 888 q 344 869 347 876 q 342 844 342 863 l 301 844 l 301 858 z "},"ỡ":{"ha":713,"x_min":90,"x_max":675,"o":"m 675 844 l 675 803 q 666 721 675 749 q 634 681 657 693 q 567 669 611 669 q 612 565 601 635 q 622 353 622 496 q 607 116 622 188 q 538 17 592 44 q 357 -11 483 -11 q 175 17 229 -11 q 106 116 121 44 q 90 353 90 188 q 106 591 90 519 q 176 691 121 663 q 357 719 231 719 q 490 708 444 719 l 564 708 q 619 725 607 708 q 631 793 631 742 l 631 844 l 675 844 m 574 353 q 563 567 574 507 q 509 651 553 628 q 357 675 465 675 q 203 651 247 675 q 149 567 160 628 q 139 353 139 507 q 149 140 139 199 q 203 57 160 81 q 357 33 247 33 q 510 57 467 33 q 563 140 553 81 q 574 353 574 199 m 568 1032 q 553 928 568 956 q 489 900 538 900 q 424 910 457 900 q 346 938 392 919 q 225 971 268 971 q 190 952 199 971 q 182 885 182 933 l 144 885 q 160 988 144 960 q 225 1017 176 1017 q 288 1007 257 1017 q 369 978 319 997 q 436 954 408 963 q 489 946 464 946 q 523 964 515 946 q 531 1032 531 982 l 568 1032 z "},"ő":{"ha":713,"x_min":90,"x_max":638,"o":"m 357 -11 q 175 17 229 -11 q 106 116 121 44 q 90 353 90 188 q 106 591 90 519 q 176 691 121 663 q 357 719 231 719 q 538 691 483 719 q 607 591 592 663 q 622 353 622 519 q 607 116 622 188 q 538 17 592 44 q 357 -11 483 -11 m 357 33 q 510 57 467 33 q 563 140 553 81 q 574 353 574 199 q 563 567 574 507 q 509 651 553 628 q 357 675 465 675 q 203 651 247 675 q 149 567 160 628 q 139 353 139 507 q 149 140 139 199 q 203 57 160 81 q 357 33 247 33 m 236 843 l 236 850 l 350 1026 l 411 1026 l 411 1019 l 272 843 l 236 843 m 461 843 l 461 850 l 575 1026 l 638 1026 l 638 1019 l 497 843 l 461 843 z "},"ȏ":{"ha":713,"x_min":90,"x_max":622,"o":"m 357 -11 q 175 17 229 -11 q 106 116 121 44 q 90 353 90 188 q 106 591 90 519 q 176 691 121 663 q 357 719 231 719 q 538 691 483 719 q 607 591 592 663 q 622 353 622 519 q 607 116 622 188 q 538 17 592 44 q 357 -11 483 -11 m 357 33 q 510 57 467 33 q 563 140 553 81 q 574 353 574 199 q 563 567 574 507 q 509 651 553 628 q 357 675 465 675 q 203 651 247 675 q 149 567 160 628 q 139 353 139 507 q 149 140 139 199 q 203 57 160 81 q 357 33 247 33 m 196 844 q 204 955 196 917 q 247 1017 213 993 q 358 1040 282 1040 q 469 1017 435 1040 q 512 955 504 993 q 519 844 519 917 l 475 844 q 469 938 475 907 q 439 985 464 968 q 358 1001 414 1001 q 277 985 303 1001 q 246 938 251 968 q 240 844 240 907 l 196 844 z "},"ō":{"ha":713,"x_min":90,"x_max":622,"o":"m 357 -11 q 175 17 229 -11 q 106 116 121 44 q 90 353 90 188 q 106 591 90 519 q 176 691 121 663 q 357 719 231 719 q 538 691 483 719 q 607 591 592 663 q 622 353 622 519 q 607 116 622 188 q 538 17 592 44 q 357 -11 483 -11 m 357 33 q 510 57 467 33 q 563 140 553 81 q 574 353 574 199 q 563 567 574 507 q 509 651 553 628 q 357 675 465 675 q 203 651 247 675 q 149 567 160 628 q 139 353 139 507 q 149 140 139 199 q 203 57 160 81 q 357 33 247 33 m 213 981 l 213 1031 l 499 1031 l 499 981 l 213 981 z "},"ǫ":{"ha":713,"x_min":90,"x_max":622,"o":"m 357 719 q 538 691 483 719 q 607 591 592 663 q 622 353 622 519 q 610 131 622 201 q 556 29 597 61 q 487 -58 519 0 q 454 -164 454 -117 q 519 -228 454 -228 l 543 -226 l 543 -271 q 513 -272 531 -272 q 433 -245 458 -272 q 407 -174 407 -218 q 427 -87 407 -133 q 481 -3 447 -42 q 357 -11 431 -11 q 175 17 229 -11 q 106 116 121 44 q 90 353 90 188 q 106 591 90 519 q 176 691 121 663 q 357 719 231 719 m 357 33 q 510 57 467 33 q 563 140 553 81 q 574 353 574 199 q 563 567 574 507 q 509 651 553 628 q 357 675 465 675 q 203 651 247 675 q 149 567 160 628 q 139 353 139 507 q 149 140 139 199 q 203 57 160 81 q 357 33 247 33 z "},"ø":{"ha":713,"x_min":90,"x_max":622,"o":"m 560 675 q 611 572 600 642 q 622 353 622 503 q 607 116 622 188 q 538 17 592 44 q 357 -11 483 -11 q 190 10 243 -11 l 142 -76 l 92 -76 l 153 32 q 101 135 113 65 q 90 353 90 204 q 106 591 90 519 q 176 691 121 663 q 357 719 231 719 q 521 699 469 719 l 569 785 l 621 785 l 560 675 m 139 353 q 144 162 139 218 q 176 76 150 106 l 499 657 q 357 675 457 675 q 203 651 247 675 q 149 567 160 628 q 139 353 139 507 m 357 33 q 510 57 467 33 q 563 140 553 81 q 574 353 574 199 q 568 544 574 488 q 536 632 563 601 l 213 50 q 357 33 256 33 z "},"ǿ":{"ha":713,"x_min":90,"x_max":622,"o":"m 560 675 q 611 572 600 642 q 622 353 622 503 q 607 116 622 188 q 538 17 592 44 q 357 -11 483 -11 q 190 10 243 -11 l 142 -76 l 92 -76 l 153 32 q 101 135 113 65 q 90 353 90 204 q 106 591 90 519 q 176 691 121 663 q 357 719 231 719 q 521 699 469 719 l 569 785 l 621 785 l 560 675 m 139 353 q 144 162 139 218 q 176 76 150 106 l 499 657 q 357 675 457 675 q 203 651 247 675 q 149 567 160 628 q 139 353 139 507 m 357 33 q 510 57 467 33 q 563 140 553 81 q 574 353 574 199 q 568 544 574 488 q 536 632 563 601 l 213 50 q 357 33 256 33 m 333 840 l 333 847 l 449 1032 l 510 1032 l 510 1025 l 369 840 l 333 840 z "},"õ":{"ha":713,"x_min":90,"x_max":622,"o":"m 357 -11 q 175 17 229 -11 q 106 116 121 44 q 90 353 90 188 q 106 591 90 519 q 176 691 121 663 q 357 719 231 719 q 538 691 483 719 q 607 591 592 663 q 622 353 622 519 q 607 116 622 188 q 538 17 592 44 q 357 -11 483 -11 m 357 33 q 510 57 467 33 q 563 140 553 81 q 574 353 574 199 q 563 567 574 507 q 509 651 553 628 q 357 675 465 675 q 203 651 247 675 q 149 567 160 628 q 139 353 139 507 q 149 140 139 199 q 203 57 160 81 q 357 33 247 33 m 567 1032 q 551 928 567 956 q 488 900 536 900 q 423 910 456 900 q 344 938 390 919 q 224 971 267 971 q 189 952 197 971 q 181 885 181 933 l 143 885 q 159 988 143 960 q 224 1017 175 1017 q 287 1007 256 1017 q 368 978 318 997 q 435 954 407 963 q 488 946 463 946 q 522 964 514 946 q 529 1032 529 982 l 567 1032 z "},"œ":{"ha":1174,"x_min":90,"x_max":1083,"o":"m 1083 338 l 622 338 q 637 144 622 204 q 698 58 651 83 q 849 33 744 33 q 958 39 899 33 q 1060 53 1017 44 l 1060 7 q 963 -6 1024 -1 q 843 -11 903 -11 q 680 14 735 -11 q 600 103 625 39 q 526 13 579 36 q 357 -11 472 -11 q 175 17 229 -11 q 106 116 121 44 q 90 353 90 188 q 106 591 90 519 q 176 691 121 663 q 357 719 231 719 q 523 696 468 719 q 599 610 578 672 q 678 694 622 668 q 844 719 733 719 q 1006 688 957 719 q 1069 585 1056 657 q 1083 356 1083 514 l 1083 338 m 357 33 q 510 57 467 33 q 563 140 553 81 q 574 353 574 199 q 563 567 574 507 q 509 651 553 628 q 357 675 465 675 q 203 651 247 675 q 149 567 160 628 q 139 353 139 507 q 149 140 139 199 q 203 57 160 81 q 357 33 247 33 m 840 675 q 694 654 739 675 q 636 575 650 633 q 622 382 622 517 l 1035 382 l 1035 411 q 1018 585 1035 531 q 963 658 1001 640 q 840 675 924 675 z "},"p":{"ha":732,"x_min":121,"x_max":642,"o":"m 121 708 l 160 708 l 164 597 l 169 597 q 249 695 192 671 q 393 719 306 719 q 552 690 500 719 q 623 585 604 660 q 642 354 642 510 q 623 124 642 199 q 552 19 604 49 q 393 -11 500 -11 q 249 14 301 -11 q 175 99 196 39 l 169 99 l 169 -274 l 121 -274 l 121 708 m 381 33 q 521 56 478 33 q 578 142 564 78 q 593 354 593 207 q 578 566 593 501 q 521 653 564 631 q 381 675 478 675 q 251 648 299 675 q 186 561 203 621 q 172 478 175 522 q 169 354 169 433 q 172 234 169 279 q 183 160 175 189 q 251 63 204 92 q 381 33 299 33 z "},"þ":{"ha":732,"x_min":121,"x_max":642,"o":"m 121 1032 l 169 1032 l 169 610 l 175 610 q 249 694 196 669 q 393 719 301 719 q 552 690 500 719 q 623 585 604 660 q 642 354 642 510 q 623 124 642 199 q 552 19 604 49 q 393 -11 500 -11 q 249 14 301 -11 q 175 99 196 39 l 169 99 l 169 -264 l 121 -264 l 121 1032 m 381 33 q 521 56 478 33 q 578 142 564 78 q 593 354 593 207 q 578 566 593 501 q 521 653 564 631 q 381 675 478 675 q 251 647 299 675 q 185 554 203 619 q 172 476 175 519 q 169 354 169 433 q 172 235 169 279 q 182 165 174 192 q 250 63 203 93 q 381 33 297 33 z "},"q":{"ha":732,"x_min":90,"x_max":611,"o":"m 563 99 l 557 99 q 483 14 536 39 q 339 -11 431 -11 q 180 19 232 -11 q 109 124 128 49 q 90 354 90 199 q 110 585 90 510 q 181 690 129 660 q 339 719 232 719 q 483 695 426 719 q 563 597 540 671 l 568 597 l 574 708 l 611 708 l 611 -274 l 563 -274 l 563 99 m 351 33 q 481 61 433 33 q 546 151 528 89 q 560 232 557 186 q 563 354 563 278 q 559 479 563 433 q 543 569 556 525 q 481 649 528 624 q 351 675 433 675 q 211 653 254 675 q 153 566 168 631 q 139 354 139 501 q 153 142 139 207 q 211 56 168 78 q 351 33 254 33 z "},"r":{"ha":424,"x_min":121,"x_max":388,"o":"m 121 708 l 158 708 l 164 561 l 169 561 q 245 685 190 651 q 388 719 300 719 l 388 669 q 253 634 300 669 q 188 533 206 599 q 169 360 169 467 l 169 0 l 121 0 l 121 708 z "},"ŕ":{"ha":424,"x_min":121,"x_max":388,"o":"m 121 708 l 158 708 l 164 561 l 169 561 q 245 685 190 651 q 388 719 300 719 l 388 669 q 253 634 300 669 q 188 533 206 599 q 169 360 169 467 l 169 0 l 121 0 l 121 708 m 189 840 l 189 847 l 304 1032 l 365 1032 l 365 1025 l 225 840 l 189 840 z "},"ř":{"ha":424,"x_min":50,"x_max":388,"o":"m 121 708 l 158 708 l 164 561 l 169 561 q 245 685 190 651 q 388 719 300 719 l 388 669 q 253 634 300 669 q 188 533 206 599 q 169 360 169 467 l 169 0 l 121 0 l 121 708 m 181 840 l 50 1025 l 50 1032 l 88 1032 l 213 882 l 338 1032 l 375 1032 l 375 1025 l 244 840 l 181 840 z "},"ŗ":{"ha":424,"x_min":93,"x_max":388,"o":"m 121 708 l 158 708 l 164 561 l 169 561 q 245 685 190 651 q 388 719 300 719 l 388 669 q 253 634 300 669 q 188 533 206 599 q 169 360 169 467 l 169 0 l 121 0 l 121 708 m 93 -287 q 138 -280 124 -287 q 156 -255 151 -272 q 160 -200 160 -237 l 160 -176 l 132 -176 l 132 -86 l 199 -86 l 199 -190 q 190 -268 199 -242 q 158 -306 181 -294 q 93 -317 136 -317 l 93 -287 z "},"ȑ":{"ha":424,"x_min":-47,"x_max":388,"o":"m 121 708 l 158 708 l 164 561 l 169 561 q 245 685 190 651 q 388 719 300 719 l 388 669 q 253 634 300 669 q 188 533 206 599 q 169 360 169 467 l 169 0 l 121 0 l 121 708 m 129 843 l 93 843 l -47 1019 l -47 1026 l 15 1026 l 129 850 l 129 843 m 354 843 l 318 843 l 179 1019 l 179 1026 l 240 1026 l 354 850 l 354 843 z "},"ṛ":{"ha":424,"x_min":114,"x_max":388,"o":"m 121 708 l 158 708 l 164 561 l 169 561 q 245 685 190 651 q 388 719 300 719 l 388 669 q 253 634 300 669 q 188 533 206 599 q 169 360 169 467 l 169 0 l 121 0 l 121 708 m 114 -176 l 114 -86 l 178 -86 l 178 -176 l 114 -176 z "},"ȓ":{"ha":424,"x_min":51,"x_max":388,"o":"m 121 708 l 158 708 l 164 561 l 169 561 q 245 685 190 651 q 388 719 300 719 l 388 669 q 253 634 300 669 q 188 533 206 599 q 169 360 169 467 l 169 0 l 121 0 l 121 708 m 51 844 q 60 955 51 917 q 103 1017 68 993 q 214 1040 138 1040 q 325 1017 290 1040 q 367 955 360 993 q 375 844 375 917 l 331 844 q 325 938 331 907 q 294 985 319 968 q 214 1001 269 1001 q 133 985 158 1001 q 101 938 107 968 q 96 844 96 907 l 51 844 z "},"s":{"ha":613,"x_min":76,"x_max":536,"o":"m 307 -11 q 197 -7 257 -11 q 96 4 138 -3 l 96 50 q 217 37 171 40 q 324 33 263 33 q 428 49 393 33 q 476 97 464 65 q 488 185 488 129 q 479 276 488 249 q 453 313 471 304 q 393 326 435 322 l 213 346 q 105 392 133 356 q 76 518 76 429 q 104 649 76 606 q 182 706 132 692 q 318 719 232 719 q 413 715 361 719 q 501 703 465 710 l 501 657 q 297 675 410 675 q 203 665 239 675 q 146 624 167 656 q 125 528 125 592 q 133 445 125 472 q 161 408 142 418 q 222 394 181 399 l 396 375 q 484 353 456 368 q 524 299 513 338 q 536 185 536 261 q 513 65 536 107 q 441 6 490 22 q 307 -11 392 -11 z "},"ś":{"ha":613,"x_min":76,"x_max":536,"o":"m 307 -11 q 197 -7 257 -11 q 96 4 138 -3 l 96 50 q 217 37 171 40 q 324 33 263 33 q 428 49 393 33 q 476 97 464 65 q 488 185 488 129 q 479 276 488 249 q 453 313 471 304 q 393 326 435 322 l 213 346 q 105 392 133 356 q 76 518 76 429 q 104 649 76 606 q 182 706 132 692 q 318 719 232 719 q 413 715 361 719 q 501 703 465 710 l 501 657 q 297 675 410 675 q 203 665 239 675 q 146 624 167 656 q 125 528 125 592 q 133 445 125 472 q 161 408 142 418 q 222 394 181 399 l 396 375 q 484 353 456 368 q 524 299 513 338 q 536 185 536 261 q 513 65 536 107 q 441 6 490 22 q 307 -11 392 -11 m 282 840 l 282 847 l 397 1032 l 458 1032 l 458 1025 l 318 840 l 282 840 z "},"ꞌ":{"ha":133,"x_min":40,"x_max":94,"o":"m 40 408 l 40 1032 l 94 1032 l 94 708 l 72 408 l 40 408 z "},"š":{"ha":613,"x_min":76,"x_max":536,"o":"m 307 -11 q 197 -7 257 -11 q 96 4 138 -3 l 96 50 q 217 37 171 40 q 324 33 263 33 q 428 49 393 33 q 476 97 464 65 q 488 185 488 129 q 479 276 488 249 q 453 313 471 304 q 393 326 435 322 l 213 346 q 105 392 133 356 q 76 518 76 429 q 104 649 76 606 q 182 706 132 692 q 318 719 232 719 q 413 715 361 719 q 501 703 465 710 l 501 657 q 297 675 410 675 q 203 665 239 675 q 146 624 167 656 q 125 528 125 592 q 133 445 125 472 q 161 408 142 418 q 222 394 181 399 l 396 375 q 484 353 456 368 q 524 299 513 338 q 536 185 536 261 q 513 65 536 107 q 441 6 490 22 q 307 -11 392 -11 m 278 840 l 147 1025 l 147 1032 l 185 1032 l 310 882 l 435 1032 l 472 1032 l 472 1025 l 342 840 l 278 840 z "},"ş":{"ha":613,"x_min":76,"x_max":536,"o":"m 536 185 q 515 67 536 110 q 447 8 493 25 q 322 -11 401 -10 l 264 -264 l 208 -264 l 208 -257 l 282 -11 q 96 4 186 -8 l 96 50 q 217 37 171 40 q 324 33 263 33 q 428 49 393 33 q 476 97 464 65 q 488 185 488 129 q 479 276 488 249 q 453 313 471 304 q 393 326 435 322 l 213 346 q 105 392 133 356 q 76 518 76 429 q 104 649 76 606 q 182 706 132 692 q 318 719 232 719 q 413 715 361 719 q 501 703 465 710 l 501 657 q 297 675 410 675 q 203 665 239 675 q 146 624 167 656 q 125 528 125 592 q 133 445 125 472 q 161 408 142 418 q 222 394 181 399 l 396 375 q 484 353 456 368 q 524 299 513 338 q 536 185 536 261 z "},"ŝ":{"ha":613,"x_min":76,"x_max":536,"o":"m 307 -11 q 197 -7 257 -11 q 96 4 138 -3 l 96 50 q 217 37 171 40 q 324 33 263 33 q 428 49 393 33 q 476 97 464 65 q 488 185 488 129 q 479 276 488 249 q 453 313 471 304 q 393 326 435 322 l 213 346 q 105 392 133 356 q 76 518 76 429 q 104 649 76 606 q 182 706 132 692 q 318 719 232 719 q 413 715 361 719 q 501 703 465 710 l 501 657 q 297 675 410 675 q 203 665 239 675 q 146 624 167 656 q 125 528 125 592 q 133 445 125 472 q 161 408 142 418 q 222 394 181 399 l 396 375 q 484 353 456 368 q 524 299 513 338 q 536 185 536 261 q 513 65 536 107 q 441 6 490 22 q 307 -11 392 -11 m 143 840 l 143 847 l 274 1032 l 338 1032 l 468 847 l 468 840 l 431 840 l 306 990 l 181 840 l 143 840 z "},"ș":{"ha":613,"x_min":76,"x_max":536,"o":"m 307 -11 q 197 -7 257 -11 q 96 4 138 -3 l 96 50 q 217 37 171 40 q 324 33 263 33 q 428 49 393 33 q 476 97 464 65 q 488 185 488 129 q 479 276 488 249 q 453 313 471 304 q 393 326 435 322 l 213 346 q 105 392 133 356 q 76 518 76 429 q 104 649 76 606 q 182 706 132 692 q 318 719 232 719 q 413 715 361 719 q 501 703 465 710 l 501 657 q 297 675 410 675 q 203 665 239 675 q 146 624 167 656 q 125 528 125 592 q 133 445 125 472 q 161 408 142 418 q 222 394 181 399 l 396 375 q 484 353 456 368 q 524 299 513 338 q 536 185 536 261 q 513 65 536 107 q 441 6 490 22 q 307 -11 392 -11 m 253 -287 q 297 -280 283 -287 q 315 -255 311 -272 q 319 -200 319 -237 l 319 -176 l 292 -176 l 292 -86 l 358 -86 l 358 -190 q 349 -268 358 -242 q 318 -306 340 -294 q 253 -317 296 -317 l 253 -287 z "},"ṣ":{"ha":613,"x_min":76,"x_max":536,"o":"m 307 -11 q 197 -7 257 -11 q 96 4 138 -3 l 96 50 q 217 37 171 40 q 324 33 263 33 q 428 49 393 33 q 476 97 464 65 q 488 185 488 129 q 479 276 488 249 q 453 313 471 304 q 393 326 435 322 l 213 346 q 105 392 133 356 q 76 518 76 429 q 104 649 76 606 q 182 706 132 692 q 318 719 232 719 q 413 715 361 719 q 501 703 465 710 l 501 657 q 297 675 410 675 q 203 665 239 675 q 146 624 167 656 q 125 528 125 592 q 133 445 125 472 q 161 408 142 418 q 222 394 181 399 l 396 375 q 484 353 456 368 q 524 299 513 338 q 536 185 536 261 q 513 65 536 107 q 441 6 490 22 q 307 -11 392 -11 m 274 -176 l 274 -86 l 338 -86 l 338 -176 l 274 -176 z "},"ß":{"ha":753,"x_min":121,"x_max":661,"o":"m 308 0 l 308 44 l 392 44 q 540 63 496 44 q 598 136 583 81 q 613 326 613 192 q 594 486 613 431 q 531 565 575 542 q 407 589 488 589 l 357 589 l 357 633 l 407 633 q 558 674 513 633 q 603 811 603 715 q 583 922 603 882 q 517 979 564 961 q 388 997 471 997 q 260 976 307 997 q 191 901 214 956 q 168 747 168 847 l 168 0 l 121 0 l 121 749 q 147 919 121 856 q 233 1012 174 982 q 394 1042 293 1042 q 547 1017 492 1042 q 627 942 603 993 q 651 806 651 892 q 617 675 651 719 q 506 618 582 631 l 506 613 q 624 536 586 599 q 661 339 661 474 q 643 133 661 203 q 574 31 625 63 q 417 0 522 0 l 308 0 z "},"ſ":{"ha":379,"x_min":38,"x_max":381,"o":"m 168 664 l 38 664 l 38 708 l 168 708 l 168 868 q 192 974 168 939 q 259 1021 215 1010 q 381 1032 303 1032 l 381 990 q 280 981 314 990 q 231 948 246 972 q 217 876 217 924 l 217 0 l 168 0 l 168 664 z "},"t":{"ha":406,"x_min":38,"x_max":368,"o":"m 168 0 l 168 664 l 38 664 l 38 708 l 168 708 l 168 914 l 217 914 l 217 708 l 368 708 l 368 664 l 217 664 l 217 0 l 168 0 z "},"ŧ":{"ha":406,"x_min":38,"x_max":368,"o":"m 368 664 l 217 664 l 217 393 l 365 393 l 365 349 l 217 349 l 217 0 l 168 0 l 168 349 l 46 349 l 46 393 l 168 393 l 168 664 l 38 664 l 38 708 l 168 708 l 168 914 l 217 914 l 217 708 l 368 708 l 368 664 z "},"ť":{"ha":406,"x_min":38,"x_max":489,"o":"m 168 0 l 168 664 l 38 664 l 38 708 l 168 708 l 168 914 l 217 914 l 217 708 l 368 708 l 368 664 l 217 664 l 217 0 l 168 0 m 418 631 l 435 832 l 435 956 l 489 956 l 489 832 l 450 631 l 418 631 z "},"ţ":{"ha":406,"x_min":38,"x_max":368,"o":"m 217 708 l 368 708 l 368 664 l 217 664 l 217 0 l 211 0 l 151 -264 l 96 -264 l 96 -257 l 174 0 l 168 0 l 168 664 l 38 664 l 38 708 l 168 708 l 168 914 l 217 914 l 217 708 z "},"ț":{"ha":406,"x_min":38,"x_max":368,"o":"m 168 0 l 168 664 l 38 664 l 38 708 l 168 708 l 168 914 l 217 914 l 217 708 l 368 708 l 368 664 l 217 664 l 217 0 l 168 0 m 140 -287 q 185 -280 171 -287 q 203 -255 199 -272 q 207 -200 207 -237 l 207 -176 l 179 -176 l 179 -86 l 246 -86 l 246 -190 q 237 -268 246 -242 q 206 -306 228 -294 q 140 -317 183 -317 l 140 -287 z "},"ṭ":{"ha":406,"x_min":38,"x_max":368,"o":"m 168 0 l 168 664 l 38 664 l 38 708 l 168 708 l 168 914 l 217 914 l 217 708 l 368 708 l 368 664 l 217 664 l 217 0 l 168 0 m 161 -176 l 161 -86 l 225 -86 l 225 -176 l 161 -176 z "},"u":{"ha":739,"x_min":119,"x_max":619,"o":"m 576 111 l 571 111 q 505 22 554 56 q 349 -11 456 -11 q 201 15 250 -11 q 136 99 153 42 q 119 264 119 156 l 119 708 l 168 708 l 168 271 q 183 115 168 164 q 236 50 197 67 q 360 33 275 33 q 505 72 460 33 q 560 172 550 111 q 571 342 571 232 l 571 708 l 619 708 l 619 0 l 581 0 l 576 111 z "},"ú":{"ha":739,"x_min":119,"x_max":619,"o":"m 576 111 l 571 111 q 505 22 554 56 q 349 -11 456 -11 q 201 15 250 -11 q 136 99 153 42 q 119 264 119 156 l 119 708 l 168 708 l 168 271 q 183 115 168 164 q 236 50 197 67 q 360 33 275 33 q 505 72 460 33 q 560 172 550 111 q 571 342 571 232 l 571 708 l 619 708 l 619 0 l 581 0 l 576 111 m 344 840 l 344 847 l 460 1032 l 521 1032 l 521 1025 l 381 840 l 344 840 z "},"ŭ":{"ha":739,"x_min":119,"x_max":619,"o":"m 576 111 l 571 111 q 505 22 554 56 q 349 -11 456 -11 q 201 15 250 -11 q 136 99 153 42 q 119 264 119 156 l 119 708 l 168 708 l 168 271 q 183 115 168 164 q 236 50 197 67 q 360 33 275 33 q 505 72 460 33 q 560 172 550 111 q 571 342 571 232 l 571 708 l 619 708 l 619 0 l 581 0 l 576 111 m 531 1032 q 522 922 531 960 q 479 860 514 883 q 368 836 444 836 q 257 860 292 836 q 215 922 222 883 q 207 1032 207 960 l 251 1032 q 257 939 251 969 q 288 892 263 908 q 368 875 313 875 q 449 892 424 875 q 481 939 475 908 q 486 1032 486 969 l 531 1032 z "},"ǔ":{"ha":739,"x_min":119,"x_max":619,"o":"m 576 111 l 571 111 q 505 22 554 56 q 349 -11 456 -11 q 201 15 250 -11 q 136 99 153 42 q 119 264 119 156 l 119 708 l 168 708 l 168 271 q 183 115 168 164 q 236 50 197 67 q 360 33 275 33 q 505 72 460 33 q 560 172 550 111 q 571 342 571 232 l 571 708 l 619 708 l 619 0 l 581 0 l 576 111 m 338 840 l 207 1025 l 207 1032 l 244 1032 l 369 882 l 494 1032 l 532 1032 l 532 1025 l 401 840 l 338 840 z "},"û":{"ha":739,"x_min":119,"x_max":619,"o":"m 576 111 l 571 111 q 505 22 554 56 q 349 -11 456 -11 q 201 15 250 -11 q 136 99 153 42 q 119 264 119 156 l 119 708 l 168 708 l 168 271 q 183 115 168 164 q 236 50 197 67 q 360 33 275 33 q 505 72 460 33 q 560 172 550 111 q 571 342 571 232 l 571 708 l 619 708 l 619 0 l 581 0 l 576 111 m 207 840 l 207 847 l 338 1032 l 401 1032 l 532 847 l 532 840 l 494 840 l 369 990 l 244 840 l 207 840 z "},"ȕ":{"ha":739,"x_min":110,"x_max":619,"o":"m 576 111 l 571 111 q 505 22 554 56 q 349 -11 456 -11 q 201 15 250 -11 q 136 99 153 42 q 119 264 119 156 l 119 708 l 168 708 l 168 271 q 183 115 168 164 q 236 50 197 67 q 360 33 275 33 q 505 72 460 33 q 560 172 550 111 q 571 342 571 232 l 571 708 l 619 708 l 619 0 l 581 0 l 576 111 m 286 843 l 250 843 l 110 1019 l 110 1026 l 172 1026 l 286 850 l 286 843 m 511 843 l 475 843 l 336 1019 l 336 1026 l 397 1026 l 511 850 l 511 843 z "},"ü":{"ha":739,"x_min":119,"x_max":619,"o":"m 576 111 l 571 111 q 505 22 554 56 q 349 -11 456 -11 q 201 15 250 -11 q 136 99 153 42 q 119 264 119 156 l 119 708 l 168 708 l 168 271 q 183 115 168 164 q 236 50 197 67 q 360 33 275 33 q 505 72 460 33 q 560 172 550 111 q 571 342 571 232 l 571 708 l 619 708 l 619 0 l 581 0 l 576 111 m 217 931 l 217 1015 l 275 1015 l 275 931 l 217 931 m 463 931 l 463 1015 l 521 1015 l 521 931 l 463 931 z "}}}
